%TF.GenerationSoftware,KiCad,Pcbnew,(6.0.10)*%
%TF.CreationDate,2022-12-26T22:41:12+13:00*%
%TF.ProjectId,esphome_shunt_monitor_ina226,65737068-6f6d-4655-9f73-68756e745f6d,rev?*%
%TF.SameCoordinates,Original*%
%TF.FileFunction,Soldermask,Top*%
%TF.FilePolarity,Negative*%
%FSLAX46Y46*%
G04 Gerber Fmt 4.6, Leading zero omitted, Abs format (unit mm)*
G04 Created by KiCad (PCBNEW (6.0.10)) date 2022-12-26 22:41:12*
%MOMM*%
%LPD*%
G01*
G04 APERTURE LIST*
%ADD10C,1.524000*%
%ADD11R,2.100000X2.100000*%
%ADD12C,2.100000*%
%ADD13C,2.300000*%
%ADD14R,2.300000X2.000000*%
G04 APERTURE END LIST*
D10*
%TO.C,TTGO1*%
X90742900Y-93827600D03*
X90742900Y-91287600D03*
X90742900Y-88747600D03*
X90742900Y-86207600D03*
X90742900Y-83667600D03*
X90742900Y-81127600D03*
X90742900Y-78587600D03*
X90742900Y-76047600D03*
X90742900Y-73507600D03*
X90742900Y-70967600D03*
X90742900Y-68427600D03*
X90742900Y-65887600D03*
X67882900Y-65887600D03*
X67882900Y-68427600D03*
X67882900Y-70967600D03*
X67882900Y-73507600D03*
X67882900Y-76047600D03*
X67882900Y-78587600D03*
X67882900Y-81127600D03*
X67882900Y-83667600D03*
X67882900Y-86207600D03*
X67882900Y-88747600D03*
X67882900Y-91287600D03*
X67882900Y-93827600D03*
%TD*%
D11*
%TO.C,J11*%
X133219200Y-74079900D03*
D12*
X128139200Y-74079900D03*
X123059200Y-74079900D03*
X117979200Y-74079900D03*
X112899200Y-74079900D03*
X107819200Y-74079900D03*
X102739200Y-74079900D03*
X97659200Y-74079900D03*
D11*
X133219200Y-66459900D03*
D12*
X128139200Y-66459900D03*
X123059200Y-66459900D03*
X117979200Y-66459900D03*
X112899200Y-66459900D03*
X107819200Y-66459900D03*
X102739200Y-66459900D03*
X97659200Y-66459900D03*
%TD*%
D11*
%TO.C,J1*%
X95228400Y-99757700D03*
D12*
X100308400Y-99757700D03*
X105388400Y-99757700D03*
X110468400Y-99757700D03*
X115548400Y-99757700D03*
X120628400Y-99757700D03*
X125708400Y-99757700D03*
X130788400Y-99757700D03*
D11*
X95228400Y-107377700D03*
D12*
X100308400Y-107377700D03*
X105388400Y-107377700D03*
X110468400Y-107377700D03*
X115548400Y-107377700D03*
X120628400Y-107377700D03*
X125708400Y-107377700D03*
X130788400Y-107377700D03*
%TD*%
D13*
%TO.C,PS1*%
X96076000Y-79208000D03*
X96076000Y-94608000D03*
X125476000Y-84408000D03*
D14*
X125476000Y-89408000D03*
%TD*%
M02*
