%TF.GenerationSoftware,KiCad,Pcbnew,(6.0.10)*%
%TF.CreationDate,2022-12-26T22:41:12+13:00*%
%TF.ProjectId,esphome_shunt_monitor_ina226,65737068-6f6d-4655-9f73-68756e745f6d,rev?*%
%TF.SameCoordinates,Original*%
%TF.FileFunction,Copper,L1,Top*%
%TF.FilePolarity,Positive*%
%FSLAX46Y46*%
G04 Gerber Fmt 4.6, Leading zero omitted, Abs format (unit mm)*
G04 Created by KiCad (PCBNEW (6.0.10)) date 2022-12-26 22:41:12*
%MOMM*%
%LPD*%
G01*
G04 APERTURE LIST*
%TA.AperFunction,ComponentPad*%
%ADD10C,1.524000*%
%TD*%
%TA.AperFunction,ComponentPad*%
%ADD11R,2.100000X2.100000*%
%TD*%
%TA.AperFunction,ComponentPad*%
%ADD12C,2.100000*%
%TD*%
%TA.AperFunction,ComponentPad*%
%ADD13C,2.300000*%
%TD*%
%TA.AperFunction,ComponentPad*%
%ADD14R,2.300000X2.000000*%
%TD*%
%TA.AperFunction,ViaPad*%
%ADD15C,0.800000*%
%TD*%
%TA.AperFunction,Conductor*%
%ADD16C,0.250000*%
%TD*%
%TA.AperFunction,Conductor*%
%ADD17C,0.600000*%
%TD*%
G04 APERTURE END LIST*
D10*
%TO.P,TTGO1,1,5V*%
%TO.N,/5V*%
X90742900Y-93827600D03*
%TO.P,TTGO1,2,GND*%
%TO.N,GND*%
X90742900Y-91287600D03*
%TO.P,TTGO1,3,GPIO27*%
%TO.N,unconnected-(TTGO1-Pad3)*%
X90742900Y-88747600D03*
%TO.P,TTGO1,4,GPIO26*%
%TO.N,unconnected-(TTGO1-Pad4)*%
X90742900Y-86207600D03*
%TO.P,TTGO1,5,GPIO25*%
%TO.N,unconnected-(TTGO1-Pad5)*%
X90742900Y-83667600D03*
%TO.P,TTGO1,6,GPIO33*%
%TO.N,unconnected-(TTGO1-Pad6)*%
X90742900Y-81127600D03*
%TO.P,TTGO1,7,GPIO32*%
%TO.N,unconnected-(TTGO1-Pad7)*%
X90742900Y-78587600D03*
%TO.P,TTGO1,8,SVN*%
%TO.N,unconnected-(TTGO1-Pad8)*%
X90742900Y-76047600D03*
%TO.P,TTGO1,9,GPIO38*%
%TO.N,unconnected-(TTGO1-Pad9)*%
X90742900Y-73507600D03*
%TO.P,TTGO1,10,GPIO37*%
%TO.N,unconnected-(TTGO1-Pad10)*%
X90742900Y-70967600D03*
%TO.P,TTGO1,11,SVP*%
%TO.N,unconnected-(TTGO1-Pad11)*%
X90742900Y-68427600D03*
%TO.P,TTGO1,12,3.3V*%
%TO.N,unconnected-(TTGO1-Pad12)*%
X90742900Y-65887600D03*
%TO.P,TTGO1,13,GND*%
%TO.N,GND*%
X67882900Y-65887600D03*
%TO.P,TTGO1,14,GND*%
X67882900Y-68427600D03*
%TO.P,TTGO1,15,GPIO21*%
%TO.N,SDA*%
X67882900Y-70967600D03*
%TO.P,TTGO1,16,GPIO22*%
%TO.N,SCL*%
X67882900Y-73507600D03*
%TO.P,TTGO1,17,GPIO17*%
%TO.N,unconnected-(TTGO1-Pad17)*%
X67882900Y-76047600D03*
%TO.P,TTGO1,18,GPIO2*%
%TO.N,unconnected-(TTGO1-Pad18)*%
X67882900Y-78587600D03*
%TO.P,TTGO1,19,GPIO15*%
%TO.N,unconnected-(TTGO1-Pad19)*%
X67882900Y-81127600D03*
%TO.P,TTGO1,20,GPIO13*%
%TO.N,unconnected-(TTGO1-Pad20)*%
X67882900Y-83667600D03*
%TO.P,TTGO1,21,GPIO12*%
%TO.N,unconnected-(TTGO1-Pad21)*%
X67882900Y-86207600D03*
%TO.P,TTGO1,22,GND*%
%TO.N,GND*%
X67882900Y-88747600D03*
%TO.P,TTGO1,23,GND*%
X67882900Y-91287600D03*
%TO.P,TTGO1,24,3.3V*%
%TO.N,+3.3V*%
X67882900Y-93827600D03*
%TD*%
D11*
%TO.P,J11,1_A,1*%
%TO.N,/INA226-3/Vin+*%
X133219200Y-74079900D03*
D12*
%TO.P,J11,2_A,2*%
%TO.N,/INA226-3/Vin-*%
X128139200Y-74079900D03*
%TO.P,J11,3_A,3*%
%TO.N,/INA226-2/Vin+*%
X123059200Y-74079900D03*
%TO.P,J11,4_A,4*%
%TO.N,/INA226-2/Vin-*%
X117979200Y-74079900D03*
%TO.P,J11,5_A,5*%
%TO.N,/INA226-1/Vin+*%
X112899200Y-74079900D03*
%TO.P,J11,6_A,6*%
%TO.N,/INA226-1/Vin-*%
X107819200Y-74079900D03*
%TO.P,J11,7_A,7*%
%TO.N,/INA226-0/Vin+*%
X102739200Y-74079900D03*
%TO.P,J11,8_A,8*%
%TO.N,/INA226-0/Vin-*%
X97659200Y-74079900D03*
D11*
%TO.P,J11,1_B,1*%
%TO.N,/INA226-3/Vin+*%
X133219200Y-66459900D03*
D12*
%TO.P,J11,2_B,2*%
%TO.N,/INA226-3/Vin-*%
X128139200Y-66459900D03*
%TO.P,J11,3_B,3*%
%TO.N,/INA226-2/Vin+*%
X123059200Y-66459900D03*
%TO.P,J11,4_B,4*%
%TO.N,/INA226-2/Vin-*%
X117979200Y-66459900D03*
%TO.P,J11,5_B,5*%
%TO.N,/INA226-1/Vin+*%
X112899200Y-66459900D03*
%TO.P,J11,6_B,6*%
%TO.N,/INA226-1/Vin-*%
X107819200Y-66459900D03*
%TO.P,J11,7_B,7*%
%TO.N,/INA226-0/Vin+*%
X102739200Y-66459900D03*
%TO.P,J11,8_B,8*%
%TO.N,/INA226-0/Vin-*%
X97659200Y-66459900D03*
%TD*%
D11*
%TO.P,J1,1_A,1*%
%TO.N,/INA226-4/Vin+*%
X95228400Y-99757700D03*
D12*
%TO.P,J1,2_A,2*%
%TO.N,/INA226-4/Vin-*%
X100308400Y-99757700D03*
%TO.P,J1,3_A,3*%
%TO.N,/INA226-5/Vin+*%
X105388400Y-99757700D03*
%TO.P,J1,4_A,4*%
%TO.N,/INA226-5/Vin-*%
X110468400Y-99757700D03*
%TO.P,J1,5_A,5*%
%TO.N,/INA226-6/Vin+*%
X115548400Y-99757700D03*
%TO.P,J1,6_A,6*%
%TO.N,/INA226-6/Vin-*%
X120628400Y-99757700D03*
%TO.P,J1,7_A,7*%
%TO.N,/V+Input*%
X125708400Y-99757700D03*
%TO.P,J1,8_A,8*%
%TO.N,GND*%
X130788400Y-99757700D03*
D11*
%TO.P,J1,1_B,1*%
%TO.N,/INA226-4/Vin+*%
X95228400Y-107377700D03*
D12*
%TO.P,J1,2_B,2*%
%TO.N,/INA226-4/Vin-*%
X100308400Y-107377700D03*
%TO.P,J1,3_B,3*%
%TO.N,/INA226-5/Vin+*%
X105388400Y-107377700D03*
%TO.P,J1,4_B,4*%
%TO.N,/INA226-5/Vin-*%
X110468400Y-107377700D03*
%TO.P,J1,5_B,5*%
%TO.N,/INA226-6/Vin+*%
X115548400Y-107377700D03*
%TO.P,J1,6_B,6*%
%TO.N,/INA226-6/Vin-*%
X120628400Y-107377700D03*
%TO.P,J1,7_B,7*%
%TO.N,/V+Input*%
X125708400Y-107377700D03*
%TO.P,J1,8_B,8*%
%TO.N,GND*%
X130788400Y-107377700D03*
%TD*%
D13*
%TO.P,PS1,4,+Vout*%
%TO.N,/5V*%
X96076000Y-79208000D03*
%TO.P,PS1,3,-Vout*%
%TO.N,GND*%
X96076000Y-94608000D03*
%TO.P,PS1,2,AC/N*%
%TO.N,/V+Input*%
X125476000Y-84408000D03*
D14*
%TO.P,PS1,1,AC/L*%
%TO.N,GND*%
X125476000Y-89408000D03*
%TD*%
D15*
%TO.N,+3.3V*%
X100787200Y-88341200D03*
X121285000Y-91186000D03*
X114503200Y-92557600D03*
X105435400Y-92506800D03*
X127199811Y-80949800D03*
X118309811Y-80924400D03*
X108175211Y-80949800D03*
X99869411Y-80924400D03*
%TO.N,Vbus*%
X102346711Y-77799000D03*
X110728711Y-77761500D03*
X129993811Y-77799000D03*
X120951411Y-77761500D03*
X102616000Y-95683000D03*
X111607600Y-95732600D03*
X120721120Y-95321825D03*
X129362200Y-96012000D03*
%TO.N,SDA*%
X98171000Y-94107000D03*
X107340400Y-94958500D03*
X116179600Y-94996000D03*
X134565811Y-78740000D03*
X125523411Y-78523500D03*
X115414211Y-78486000D03*
X106711021Y-78523500D03*
%TO.N,SCL*%
X131670211Y-79248000D03*
X122653211Y-79248000D03*
X112620211Y-79248000D03*
X104111211Y-79248000D03*
X118872000Y-94234000D03*
X110236000Y-94234000D03*
X100838000Y-94234000D03*
%TD*%
D16*
%TO.N,Vbus*%
X129362200Y-96012000D02*
X129362200Y-82600800D01*
X124307600Y-82600800D02*
X129130200Y-82600800D01*
X123023200Y-83885200D02*
X124307600Y-82600800D01*
X123023200Y-93019745D02*
X123023200Y-83885200D01*
X120721120Y-95321825D02*
X123023200Y-93019745D01*
X134650116Y-77799000D02*
X129993811Y-77799000D01*
X135290811Y-78439695D02*
X134650116Y-77799000D01*
X134797800Y-79908400D02*
X135290811Y-79415389D01*
X132741796Y-79908400D02*
X134797800Y-79908400D01*
X135290811Y-79415389D02*
X135290811Y-78439695D01*
X130049396Y-82600800D02*
X132741796Y-79908400D01*
X129082800Y-82600800D02*
X130049396Y-82600800D01*
%TO.N,SDA*%
X124112996Y-82136400D02*
X129877400Y-82136400D01*
X122573200Y-83676196D02*
X124112996Y-82136400D01*
X122573200Y-92444440D02*
X122573200Y-83676196D01*
X129877400Y-82136400D02*
X133490300Y-78523500D01*
X120021640Y-94996000D02*
X122573200Y-92444440D01*
X116179600Y-94996000D02*
X120021640Y-94996000D01*
%TO.N,SCL*%
X122123200Y-92227400D02*
X120116600Y-94234000D01*
X122123200Y-83489800D02*
X122123200Y-92227400D01*
X123926600Y-81686400D02*
X122123200Y-83489800D01*
X120116600Y-94234000D02*
X118872000Y-94234000D01*
X130556000Y-79248000D02*
X128117600Y-81686400D01*
X128117600Y-81686400D02*
X123926600Y-81686400D01*
D17*
%TO.N,/V+Input*%
X125704600Y-99753900D02*
X125708400Y-99757700D01*
X125704600Y-93751400D02*
X125704600Y-99753900D01*
X127533400Y-91922600D02*
X125704600Y-93751400D01*
X127533400Y-86465400D02*
X127533400Y-91922600D01*
X125476000Y-84408000D02*
X127533400Y-86465400D01*
D16*
%TO.N,SDA*%
X69203700Y-72288400D02*
X67882900Y-70967600D01*
X92379800Y-72414004D02*
X92379800Y-72288400D01*
X98489296Y-78523500D02*
X92379800Y-72414004D01*
X106711021Y-78523500D02*
X98489296Y-78523500D01*
X92379800Y-72288400D02*
X69203700Y-72288400D01*
%TO.N,SCL*%
X67908300Y-73533000D02*
X67882900Y-73507600D01*
X88011000Y-73533000D02*
X67908300Y-73533000D01*
X89438600Y-74960600D02*
X88011000Y-73533000D01*
X94290000Y-74960600D02*
X89438600Y-74960600D01*
X98577400Y-79248000D02*
X94290000Y-74960600D01*
X104111211Y-79248000D02*
X98577400Y-79248000D01*
D17*
%TO.N,+3.3V*%
X98755200Y-82038611D02*
X99869411Y-80924400D01*
X98755200Y-88341200D02*
X98755200Y-82038611D01*
D16*
%TO.N,SDA*%
X133490300Y-78523500D02*
X134349311Y-78523500D01*
X125523411Y-78523500D02*
X133490300Y-78523500D01*
D17*
%TO.N,+3.3V*%
X70643500Y-96258000D02*
X90838400Y-96258000D01*
X90838400Y-96258000D02*
X98755200Y-88341200D01*
X68213100Y-93827600D02*
X70643500Y-96258000D01*
X67882900Y-93827600D02*
X68213100Y-93827600D01*
%TO.N,/5V*%
X96076000Y-88875500D02*
X96076000Y-79208000D01*
X90742900Y-93827600D02*
X91123900Y-93827600D01*
X91123900Y-93827600D02*
X96076000Y-88875500D01*
%TO.N,+3.3V*%
X121285000Y-91617800D02*
X121285000Y-91186000D01*
X120345200Y-92557600D02*
X121285000Y-91617800D01*
X114503200Y-92557600D02*
X120345200Y-92557600D01*
X100787200Y-88341200D02*
X101269800Y-88341200D01*
X98755200Y-88341200D02*
X100787200Y-88341200D01*
X114452400Y-92506800D02*
X114503200Y-92557600D01*
X105435400Y-92506800D02*
X114452400Y-92506800D01*
X101269800Y-88341200D02*
X105435400Y-92506800D01*
X127174411Y-80924400D02*
X127199811Y-80949800D01*
X118309811Y-80924400D02*
X127174411Y-80924400D01*
X118284411Y-80949800D02*
X118309811Y-80924400D01*
X108175211Y-80949800D02*
X118284411Y-80949800D01*
X108149811Y-80924400D02*
X108175211Y-80949800D01*
X99869411Y-80924400D02*
X108149811Y-80924400D01*
D16*
%TO.N,SDA*%
X106748521Y-78486000D02*
X115414211Y-78486000D01*
X106711021Y-78523500D02*
X106748521Y-78486000D01*
%TO.N,Vbus*%
X102384211Y-77761500D02*
X110728711Y-77761500D01*
X102346711Y-77799000D02*
X102384211Y-77761500D01*
X120951411Y-77761500D02*
X110728711Y-77761500D01*
X129956311Y-77761500D02*
X120951411Y-77761500D01*
X129993811Y-77799000D02*
X129956311Y-77761500D01*
X102665600Y-95732600D02*
X102616000Y-95683000D01*
X111607600Y-95732600D02*
X102665600Y-95732600D01*
X120721120Y-95321825D02*
X120310345Y-95732600D01*
X120310345Y-95732600D02*
X111607600Y-95732600D01*
%TO.N,SDA*%
X99022500Y-94958500D02*
X98171000Y-94107000D01*
X107340400Y-94958500D02*
X99022500Y-94958500D01*
X107377900Y-94996000D02*
X107340400Y-94958500D01*
X116179600Y-94996000D02*
X107377900Y-94996000D01*
X134349311Y-78523500D02*
X134565811Y-78740000D01*
X125485911Y-78486000D02*
X125523411Y-78523500D01*
X115414211Y-78486000D02*
X125485911Y-78486000D01*
%TO.N,SCL*%
X122653211Y-79248000D02*
X131670211Y-79248000D01*
X118239711Y-79248000D02*
X122653211Y-79248000D01*
X112620211Y-79248000D02*
X118239711Y-79248000D01*
X104111211Y-79248000D02*
X112620211Y-79248000D01*
X110236000Y-94234000D02*
X118872000Y-94234000D01*
X100838000Y-94234000D02*
X110236000Y-94234000D01*
%TD*%
%TA.AperFunction,Conductor*%
%TO.N,GND*%
G36*
X136290054Y-59023956D02*
G01*
X136335874Y-59076703D01*
X136347144Y-59128409D01*
X136333719Y-88743959D01*
X136321856Y-114912566D01*
X136302141Y-114979597D01*
X136249316Y-115025328D01*
X136197766Y-115036510D01*
X66494048Y-114985890D01*
X66427023Y-114966157D01*
X66381306Y-114913320D01*
X66370138Y-114861953D01*
X66365819Y-106301059D01*
X93777900Y-106301059D01*
X93777901Y-107378477D01*
X93777901Y-108459218D01*
X93792754Y-108553004D01*
X93850350Y-108666042D01*
X93940058Y-108755750D01*
X94053096Y-108813346D01*
X94082333Y-108817977D01*
X94142061Y-108827437D01*
X94142066Y-108827437D01*
X94146881Y-108828200D01*
X94151759Y-108828200D01*
X95229176Y-108828199D01*
X96309918Y-108828199D01*
X96382551Y-108816696D01*
X96394069Y-108814872D01*
X96394070Y-108814872D01*
X96403704Y-108813346D01*
X96516742Y-108755750D01*
X96606450Y-108666042D01*
X96664046Y-108553004D01*
X96668677Y-108523767D01*
X96678137Y-108464039D01*
X96678137Y-108464034D01*
X96678900Y-108459219D01*
X96678900Y-107377700D01*
X96678900Y-107342140D01*
X98853363Y-107342140D01*
X98853656Y-107347222D01*
X98853656Y-107347223D01*
X98855478Y-107378813D01*
X98867094Y-107580262D01*
X98919531Y-107812945D01*
X99009267Y-108033939D01*
X99011929Y-108038283D01*
X99131231Y-108232966D01*
X99131235Y-108232971D01*
X99133893Y-108237309D01*
X99137225Y-108241155D01*
X99137226Y-108241157D01*
X99175641Y-108285504D01*
X99290060Y-108417594D01*
X99293970Y-108420840D01*
X99293974Y-108420844D01*
X99441548Y-108543362D01*
X99473576Y-108569952D01*
X99679512Y-108690291D01*
X99684265Y-108692106D01*
X99684267Y-108692107D01*
X99765567Y-108723153D01*
X99902337Y-108775380D01*
X100022871Y-108799903D01*
X100131081Y-108821919D01*
X100131084Y-108821919D01*
X100136066Y-108822933D01*
X100291774Y-108828642D01*
X100369346Y-108831487D01*
X100369349Y-108831487D01*
X100374425Y-108831673D01*
X100611009Y-108801365D01*
X100615880Y-108799904D01*
X100615883Y-108799903D01*
X100763054Y-108755750D01*
X100839468Y-108732825D01*
X100885078Y-108710481D01*
X101049093Y-108630131D01*
X101049099Y-108630127D01*
X101053664Y-108627891D01*
X101131289Y-108572522D01*
X101243702Y-108492338D01*
X101247845Y-108489383D01*
X101416797Y-108321020D01*
X101555982Y-108127323D01*
X101661663Y-107913495D01*
X101731000Y-107685277D01*
X101762133Y-107448799D01*
X101763871Y-107377700D01*
X101760948Y-107342140D01*
X103933363Y-107342140D01*
X103933656Y-107347222D01*
X103933656Y-107347223D01*
X103935478Y-107378813D01*
X103947094Y-107580262D01*
X103999531Y-107812945D01*
X104089267Y-108033939D01*
X104091929Y-108038283D01*
X104211231Y-108232966D01*
X104211235Y-108232971D01*
X104213893Y-108237309D01*
X104217225Y-108241155D01*
X104217226Y-108241157D01*
X104255641Y-108285504D01*
X104370060Y-108417594D01*
X104373970Y-108420840D01*
X104373974Y-108420844D01*
X104521548Y-108543362D01*
X104553576Y-108569952D01*
X104759512Y-108690291D01*
X104764265Y-108692106D01*
X104764267Y-108692107D01*
X104845567Y-108723153D01*
X104982337Y-108775380D01*
X105102871Y-108799903D01*
X105211081Y-108821919D01*
X105211084Y-108821919D01*
X105216066Y-108822933D01*
X105371774Y-108828642D01*
X105449346Y-108831487D01*
X105449349Y-108831487D01*
X105454425Y-108831673D01*
X105691009Y-108801365D01*
X105695880Y-108799904D01*
X105695883Y-108799903D01*
X105843054Y-108755750D01*
X105919468Y-108732825D01*
X105965078Y-108710481D01*
X106129093Y-108630131D01*
X106129099Y-108630127D01*
X106133664Y-108627891D01*
X106211289Y-108572522D01*
X106323702Y-108492338D01*
X106327845Y-108489383D01*
X106496797Y-108321020D01*
X106635982Y-108127323D01*
X106741663Y-107913495D01*
X106811000Y-107685277D01*
X106842133Y-107448799D01*
X106843871Y-107377700D01*
X106840948Y-107342140D01*
X109013363Y-107342140D01*
X109013656Y-107347222D01*
X109013656Y-107347223D01*
X109015478Y-107378813D01*
X109027094Y-107580262D01*
X109079531Y-107812945D01*
X109169267Y-108033939D01*
X109171929Y-108038283D01*
X109291231Y-108232966D01*
X109291235Y-108232971D01*
X109293893Y-108237309D01*
X109297225Y-108241155D01*
X109297226Y-108241157D01*
X109335641Y-108285504D01*
X109450060Y-108417594D01*
X109453970Y-108420840D01*
X109453974Y-108420844D01*
X109601548Y-108543362D01*
X109633576Y-108569952D01*
X109839512Y-108690291D01*
X109844265Y-108692106D01*
X109844267Y-108692107D01*
X109925567Y-108723153D01*
X110062337Y-108775380D01*
X110182871Y-108799903D01*
X110291081Y-108821919D01*
X110291084Y-108821919D01*
X110296066Y-108822933D01*
X110451774Y-108828642D01*
X110529346Y-108831487D01*
X110529349Y-108831487D01*
X110534425Y-108831673D01*
X110771009Y-108801365D01*
X110775880Y-108799904D01*
X110775883Y-108799903D01*
X110923054Y-108755750D01*
X110999468Y-108732825D01*
X111045078Y-108710481D01*
X111209093Y-108630131D01*
X111209099Y-108630127D01*
X111213664Y-108627891D01*
X111291289Y-108572522D01*
X111403702Y-108492338D01*
X111407845Y-108489383D01*
X111576797Y-108321020D01*
X111715982Y-108127323D01*
X111821663Y-107913495D01*
X111891000Y-107685277D01*
X111922133Y-107448799D01*
X111923871Y-107377700D01*
X111920948Y-107342140D01*
X114093363Y-107342140D01*
X114093656Y-107347222D01*
X114093656Y-107347223D01*
X114095478Y-107378813D01*
X114107094Y-107580262D01*
X114159531Y-107812945D01*
X114249267Y-108033939D01*
X114251929Y-108038283D01*
X114371231Y-108232966D01*
X114371235Y-108232971D01*
X114373893Y-108237309D01*
X114377225Y-108241155D01*
X114377226Y-108241157D01*
X114415641Y-108285504D01*
X114530060Y-108417594D01*
X114533970Y-108420840D01*
X114533974Y-108420844D01*
X114681548Y-108543362D01*
X114713576Y-108569952D01*
X114919512Y-108690291D01*
X114924265Y-108692106D01*
X114924267Y-108692107D01*
X115005567Y-108723153D01*
X115142337Y-108775380D01*
X115262871Y-108799903D01*
X115371081Y-108821919D01*
X115371084Y-108821919D01*
X115376066Y-108822933D01*
X115531774Y-108828642D01*
X115609346Y-108831487D01*
X115609349Y-108831487D01*
X115614425Y-108831673D01*
X115851009Y-108801365D01*
X115855880Y-108799904D01*
X115855883Y-108799903D01*
X116003054Y-108755750D01*
X116079468Y-108732825D01*
X116125078Y-108710481D01*
X116289093Y-108630131D01*
X116289099Y-108630127D01*
X116293664Y-108627891D01*
X116371289Y-108572522D01*
X116483702Y-108492338D01*
X116487845Y-108489383D01*
X116656797Y-108321020D01*
X116795982Y-108127323D01*
X116901663Y-107913495D01*
X116971000Y-107685277D01*
X117002133Y-107448799D01*
X117003871Y-107377700D01*
X117000948Y-107342140D01*
X119173363Y-107342140D01*
X119173656Y-107347222D01*
X119173656Y-107347223D01*
X119175478Y-107378813D01*
X119187094Y-107580262D01*
X119239531Y-107812945D01*
X119329267Y-108033939D01*
X119331929Y-108038283D01*
X119451231Y-108232966D01*
X119451235Y-108232971D01*
X119453893Y-108237309D01*
X119457225Y-108241155D01*
X119457226Y-108241157D01*
X119495641Y-108285504D01*
X119610060Y-108417594D01*
X119613970Y-108420840D01*
X119613974Y-108420844D01*
X119761548Y-108543362D01*
X119793576Y-108569952D01*
X119999512Y-108690291D01*
X120004265Y-108692106D01*
X120004267Y-108692107D01*
X120085567Y-108723153D01*
X120222337Y-108775380D01*
X120342871Y-108799903D01*
X120451081Y-108821919D01*
X120451084Y-108821919D01*
X120456066Y-108822933D01*
X120611774Y-108828642D01*
X120689346Y-108831487D01*
X120689349Y-108831487D01*
X120694425Y-108831673D01*
X120931009Y-108801365D01*
X120935880Y-108799904D01*
X120935883Y-108799903D01*
X121083054Y-108755750D01*
X121159468Y-108732825D01*
X121205078Y-108710481D01*
X121369093Y-108630131D01*
X121369099Y-108630127D01*
X121373664Y-108627891D01*
X121451289Y-108572522D01*
X121563702Y-108492338D01*
X121567845Y-108489383D01*
X121736797Y-108321020D01*
X121875982Y-108127323D01*
X121981663Y-107913495D01*
X122051000Y-107685277D01*
X122082133Y-107448799D01*
X122083871Y-107377700D01*
X122080948Y-107342140D01*
X124253363Y-107342140D01*
X124253656Y-107347222D01*
X124253656Y-107347223D01*
X124255478Y-107378813D01*
X124267094Y-107580262D01*
X124319531Y-107812945D01*
X124409267Y-108033939D01*
X124411929Y-108038283D01*
X124531231Y-108232966D01*
X124531235Y-108232971D01*
X124533893Y-108237309D01*
X124537225Y-108241155D01*
X124537226Y-108241157D01*
X124575641Y-108285504D01*
X124690060Y-108417594D01*
X124693970Y-108420840D01*
X124693974Y-108420844D01*
X124841548Y-108543362D01*
X124873576Y-108569952D01*
X125079512Y-108690291D01*
X125084265Y-108692106D01*
X125084267Y-108692107D01*
X125165567Y-108723153D01*
X125302337Y-108775380D01*
X125422871Y-108799903D01*
X125531081Y-108821919D01*
X125531084Y-108821919D01*
X125536066Y-108822933D01*
X125691774Y-108828642D01*
X125769346Y-108831487D01*
X125769349Y-108831487D01*
X125774425Y-108831673D01*
X126011009Y-108801365D01*
X126015880Y-108799904D01*
X126015883Y-108799903D01*
X126163054Y-108755750D01*
X126239468Y-108732825D01*
X126285078Y-108710481D01*
X126419585Y-108644587D01*
X129880596Y-108644587D01*
X129886232Y-108652117D01*
X130074736Y-108767632D01*
X130083399Y-108772047D01*
X130300963Y-108862164D01*
X130310199Y-108865165D01*
X130539188Y-108920141D01*
X130548773Y-108921659D01*
X130783546Y-108940136D01*
X130793254Y-108940136D01*
X131028027Y-108921659D01*
X131037612Y-108920141D01*
X131266601Y-108865165D01*
X131275837Y-108862164D01*
X131493401Y-108772047D01*
X131502064Y-108767632D01*
X131686957Y-108654330D01*
X131696269Y-108644036D01*
X131692547Y-108635400D01*
X130801007Y-107743860D01*
X130787287Y-107736368D01*
X130785481Y-107736497D01*
X130778974Y-107740679D01*
X129887247Y-108632406D01*
X129880596Y-108644587D01*
X126419585Y-108644587D01*
X126449093Y-108630131D01*
X126449099Y-108630127D01*
X126453664Y-108627891D01*
X126531289Y-108572522D01*
X126643702Y-108492338D01*
X126647845Y-108489383D01*
X126816797Y-108321020D01*
X126955982Y-108127323D01*
X127061663Y-107913495D01*
X127131000Y-107685277D01*
X127162133Y-107448799D01*
X127163752Y-107382554D01*
X129225964Y-107382554D01*
X129244441Y-107617327D01*
X129245959Y-107626912D01*
X129300935Y-107855901D01*
X129303936Y-107865137D01*
X129394053Y-108082701D01*
X129398468Y-108091364D01*
X129511770Y-108276257D01*
X129522064Y-108285569D01*
X129530700Y-108281847D01*
X130422240Y-107390307D01*
X130428516Y-107378813D01*
X131147068Y-107378813D01*
X131147197Y-107380619D01*
X131151379Y-107387126D01*
X132043106Y-108278853D01*
X132055287Y-108285504D01*
X132062817Y-108279868D01*
X132178332Y-108091364D01*
X132182747Y-108082701D01*
X132272864Y-107865137D01*
X132275865Y-107855901D01*
X132330841Y-107626912D01*
X132332359Y-107617327D01*
X132350836Y-107382554D01*
X132350836Y-107372846D01*
X132332359Y-107138073D01*
X132330841Y-107128488D01*
X132275865Y-106899499D01*
X132272864Y-106890263D01*
X132182747Y-106672699D01*
X132178332Y-106664036D01*
X132065030Y-106479143D01*
X132054736Y-106469831D01*
X132046100Y-106473553D01*
X131154560Y-107365093D01*
X131147068Y-107378813D01*
X130428516Y-107378813D01*
X130429732Y-107376587D01*
X130429603Y-107374781D01*
X130425421Y-107368274D01*
X129533694Y-106476547D01*
X129521513Y-106469896D01*
X129513983Y-106475532D01*
X129398468Y-106664036D01*
X129394053Y-106672699D01*
X129303936Y-106890263D01*
X129300935Y-106899499D01*
X129245959Y-107128488D01*
X129244441Y-107138073D01*
X129225964Y-107372846D01*
X129225964Y-107382554D01*
X127163752Y-107382554D01*
X127163871Y-107377700D01*
X127160948Y-107342140D01*
X127144744Y-107145059D01*
X127144327Y-107139984D01*
X127086221Y-106908652D01*
X126991112Y-106689916D01*
X126861555Y-106489651D01*
X126701029Y-106313236D01*
X126697044Y-106310089D01*
X126697041Y-106310086D01*
X126517836Y-106168559D01*
X126513845Y-106165407D01*
X126415946Y-106111364D01*
X129880531Y-106111364D01*
X129884253Y-106120000D01*
X130775793Y-107011540D01*
X130789513Y-107019032D01*
X130791319Y-107018903D01*
X130797826Y-107014721D01*
X131689553Y-106122994D01*
X131696204Y-106110813D01*
X131690568Y-106103283D01*
X131502064Y-105987768D01*
X131493401Y-105983353D01*
X131275837Y-105893236D01*
X131266601Y-105890235D01*
X131037612Y-105835259D01*
X131028027Y-105833741D01*
X130793254Y-105815264D01*
X130783546Y-105815264D01*
X130548773Y-105833741D01*
X130539188Y-105835259D01*
X130310199Y-105890235D01*
X130300963Y-105893236D01*
X130083399Y-105983353D01*
X130074736Y-105987768D01*
X129889843Y-106101070D01*
X129880531Y-106111364D01*
X126415946Y-106111364D01*
X126363579Y-106082456D01*
X126309486Y-106052595D01*
X126309483Y-106052594D01*
X126305031Y-106050136D01*
X126080194Y-105970517D01*
X125911840Y-105940528D01*
X125850380Y-105929580D01*
X125850379Y-105929580D01*
X125845372Y-105928688D01*
X125755879Y-105927595D01*
X125611960Y-105925836D01*
X125611958Y-105925836D01*
X125606871Y-105925774D01*
X125601841Y-105926544D01*
X125601837Y-105926544D01*
X125471526Y-105946485D01*
X125371098Y-105961853D01*
X125366270Y-105963431D01*
X125366266Y-105963432D01*
X125269011Y-105995220D01*
X125144382Y-106035955D01*
X124932814Y-106146090D01*
X124928746Y-106149144D01*
X124928745Y-106149145D01*
X124746146Y-106286245D01*
X124746143Y-106286247D01*
X124742075Y-106289302D01*
X124577287Y-106461742D01*
X124574420Y-106465944D01*
X124574419Y-106465946D01*
X124445746Y-106654573D01*
X124442875Y-106658782D01*
X124342451Y-106875128D01*
X124341091Y-106880032D01*
X124302543Y-107019032D01*
X124278709Y-107104972D01*
X124253363Y-107342140D01*
X122080948Y-107342140D01*
X122064744Y-107145059D01*
X122064327Y-107139984D01*
X122006221Y-106908652D01*
X121911112Y-106689916D01*
X121781555Y-106489651D01*
X121621029Y-106313236D01*
X121617044Y-106310089D01*
X121617041Y-106310086D01*
X121437836Y-106168559D01*
X121433845Y-106165407D01*
X121283579Y-106082456D01*
X121229486Y-106052595D01*
X121229483Y-106052594D01*
X121225031Y-106050136D01*
X121000194Y-105970517D01*
X120831840Y-105940528D01*
X120770380Y-105929580D01*
X120770379Y-105929580D01*
X120765372Y-105928688D01*
X120675879Y-105927595D01*
X120531960Y-105925836D01*
X120531958Y-105925836D01*
X120526871Y-105925774D01*
X120521841Y-105926544D01*
X120521837Y-105926544D01*
X120391526Y-105946485D01*
X120291098Y-105961853D01*
X120286270Y-105963431D01*
X120286266Y-105963432D01*
X120189011Y-105995220D01*
X120064382Y-106035955D01*
X119852814Y-106146090D01*
X119848746Y-106149144D01*
X119848745Y-106149145D01*
X119666146Y-106286245D01*
X119666143Y-106286247D01*
X119662075Y-106289302D01*
X119497287Y-106461742D01*
X119494420Y-106465944D01*
X119494419Y-106465946D01*
X119365746Y-106654573D01*
X119362875Y-106658782D01*
X119262451Y-106875128D01*
X119261091Y-106880032D01*
X119222543Y-107019032D01*
X119198709Y-107104972D01*
X119173363Y-107342140D01*
X117000948Y-107342140D01*
X116984744Y-107145059D01*
X116984327Y-107139984D01*
X116926221Y-106908652D01*
X116831112Y-106689916D01*
X116701555Y-106489651D01*
X116541029Y-106313236D01*
X116537044Y-106310089D01*
X116537041Y-106310086D01*
X116357836Y-106168559D01*
X116353845Y-106165407D01*
X116203579Y-106082456D01*
X116149486Y-106052595D01*
X116149483Y-106052594D01*
X116145031Y-106050136D01*
X115920194Y-105970517D01*
X115751840Y-105940528D01*
X115690380Y-105929580D01*
X115690379Y-105929580D01*
X115685372Y-105928688D01*
X115595879Y-105927595D01*
X115451960Y-105925836D01*
X115451958Y-105925836D01*
X115446871Y-105925774D01*
X115441841Y-105926544D01*
X115441837Y-105926544D01*
X115311526Y-105946485D01*
X115211098Y-105961853D01*
X115206270Y-105963431D01*
X115206266Y-105963432D01*
X115109011Y-105995220D01*
X114984382Y-106035955D01*
X114772814Y-106146090D01*
X114768746Y-106149144D01*
X114768745Y-106149145D01*
X114586146Y-106286245D01*
X114586143Y-106286247D01*
X114582075Y-106289302D01*
X114417287Y-106461742D01*
X114414420Y-106465944D01*
X114414419Y-106465946D01*
X114285746Y-106654573D01*
X114282875Y-106658782D01*
X114182451Y-106875128D01*
X114181091Y-106880032D01*
X114142543Y-107019032D01*
X114118709Y-107104972D01*
X114093363Y-107342140D01*
X111920948Y-107342140D01*
X111904744Y-107145059D01*
X111904327Y-107139984D01*
X111846221Y-106908652D01*
X111751112Y-106689916D01*
X111621555Y-106489651D01*
X111461029Y-106313236D01*
X111457044Y-106310089D01*
X111457041Y-106310086D01*
X111277836Y-106168559D01*
X111273845Y-106165407D01*
X111123579Y-106082456D01*
X111069486Y-106052595D01*
X111069483Y-106052594D01*
X111065031Y-106050136D01*
X110840194Y-105970517D01*
X110671840Y-105940528D01*
X110610380Y-105929580D01*
X110610379Y-105929580D01*
X110605372Y-105928688D01*
X110515879Y-105927595D01*
X110371960Y-105925836D01*
X110371958Y-105925836D01*
X110366871Y-105925774D01*
X110361841Y-105926544D01*
X110361837Y-105926544D01*
X110231526Y-105946485D01*
X110131098Y-105961853D01*
X110126270Y-105963431D01*
X110126266Y-105963432D01*
X110029011Y-105995220D01*
X109904382Y-106035955D01*
X109692814Y-106146090D01*
X109688746Y-106149144D01*
X109688745Y-106149145D01*
X109506146Y-106286245D01*
X109506143Y-106286247D01*
X109502075Y-106289302D01*
X109337287Y-106461742D01*
X109334420Y-106465944D01*
X109334419Y-106465946D01*
X109205746Y-106654573D01*
X109202875Y-106658782D01*
X109102451Y-106875128D01*
X109101091Y-106880032D01*
X109062543Y-107019032D01*
X109038709Y-107104972D01*
X109013363Y-107342140D01*
X106840948Y-107342140D01*
X106824744Y-107145059D01*
X106824327Y-107139984D01*
X106766221Y-106908652D01*
X106671112Y-106689916D01*
X106541555Y-106489651D01*
X106381029Y-106313236D01*
X106377044Y-106310089D01*
X106377041Y-106310086D01*
X106197836Y-106168559D01*
X106193845Y-106165407D01*
X106043579Y-106082456D01*
X105989486Y-106052595D01*
X105989483Y-106052594D01*
X105985031Y-106050136D01*
X105760194Y-105970517D01*
X105591840Y-105940528D01*
X105530380Y-105929580D01*
X105530379Y-105929580D01*
X105525372Y-105928688D01*
X105435879Y-105927595D01*
X105291960Y-105925836D01*
X105291958Y-105925836D01*
X105286871Y-105925774D01*
X105281841Y-105926544D01*
X105281837Y-105926544D01*
X105151526Y-105946485D01*
X105051098Y-105961853D01*
X105046270Y-105963431D01*
X105046266Y-105963432D01*
X104949011Y-105995220D01*
X104824382Y-106035955D01*
X104612814Y-106146090D01*
X104608746Y-106149144D01*
X104608745Y-106149145D01*
X104426146Y-106286245D01*
X104426143Y-106286247D01*
X104422075Y-106289302D01*
X104257287Y-106461742D01*
X104254420Y-106465944D01*
X104254419Y-106465946D01*
X104125746Y-106654573D01*
X104122875Y-106658782D01*
X104022451Y-106875128D01*
X104021091Y-106880032D01*
X103982543Y-107019032D01*
X103958709Y-107104972D01*
X103933363Y-107342140D01*
X101760948Y-107342140D01*
X101744744Y-107145059D01*
X101744327Y-107139984D01*
X101686221Y-106908652D01*
X101591112Y-106689916D01*
X101461555Y-106489651D01*
X101301029Y-106313236D01*
X101297044Y-106310089D01*
X101297041Y-106310086D01*
X101117836Y-106168559D01*
X101113845Y-106165407D01*
X100963579Y-106082456D01*
X100909486Y-106052595D01*
X100909483Y-106052594D01*
X100905031Y-106050136D01*
X100680194Y-105970517D01*
X100511840Y-105940528D01*
X100450380Y-105929580D01*
X100450379Y-105929580D01*
X100445372Y-105928688D01*
X100355879Y-105927595D01*
X100211960Y-105925836D01*
X100211958Y-105925836D01*
X100206871Y-105925774D01*
X100201841Y-105926544D01*
X100201837Y-105926544D01*
X100071526Y-105946485D01*
X99971098Y-105961853D01*
X99966270Y-105963431D01*
X99966266Y-105963432D01*
X99869011Y-105995220D01*
X99744382Y-106035955D01*
X99532814Y-106146090D01*
X99528746Y-106149144D01*
X99528745Y-106149145D01*
X99346146Y-106286245D01*
X99346143Y-106286247D01*
X99342075Y-106289302D01*
X99177287Y-106461742D01*
X99174420Y-106465944D01*
X99174419Y-106465946D01*
X99045746Y-106654573D01*
X99042875Y-106658782D01*
X98942451Y-106875128D01*
X98941091Y-106880032D01*
X98902543Y-107019032D01*
X98878709Y-107104972D01*
X98853363Y-107342140D01*
X96678900Y-107342140D01*
X96678899Y-106301053D01*
X96678899Y-106296182D01*
X96664046Y-106202396D01*
X96606450Y-106089358D01*
X96516742Y-105999650D01*
X96403704Y-105942054D01*
X96374467Y-105937423D01*
X96314739Y-105927963D01*
X96314734Y-105927963D01*
X96309919Y-105927200D01*
X96305041Y-105927200D01*
X95227624Y-105927201D01*
X94146882Y-105927201D01*
X94074249Y-105938704D01*
X94062731Y-105940528D01*
X94062730Y-105940528D01*
X94053096Y-105942054D01*
X93940058Y-105999650D01*
X93850350Y-106089358D01*
X93792754Y-106202396D01*
X93791227Y-106212038D01*
X93778990Y-106289302D01*
X93777900Y-106296181D01*
X93777900Y-106301059D01*
X66365819Y-106301059D01*
X66361974Y-98681059D01*
X93777900Y-98681059D01*
X93777901Y-99758473D01*
X93777901Y-100839218D01*
X93792754Y-100933004D01*
X93850350Y-101046042D01*
X93940058Y-101135750D01*
X94053096Y-101193346D01*
X94082333Y-101197977D01*
X94142061Y-101207437D01*
X94142066Y-101207437D01*
X94146881Y-101208200D01*
X94151759Y-101208200D01*
X95229176Y-101208199D01*
X96309918Y-101208199D01*
X96382551Y-101196696D01*
X96394069Y-101194872D01*
X96394070Y-101194872D01*
X96403704Y-101193346D01*
X96516742Y-101135750D01*
X96606450Y-101046042D01*
X96664046Y-100933004D01*
X96668677Y-100903767D01*
X96678137Y-100844039D01*
X96678137Y-100844034D01*
X96678900Y-100839219D01*
X96678900Y-99757700D01*
X96678900Y-99722140D01*
X98853363Y-99722140D01*
X98853656Y-99727222D01*
X98853656Y-99727223D01*
X98855478Y-99758813D01*
X98867094Y-99960262D01*
X98919531Y-100192945D01*
X99009267Y-100413939D01*
X99011929Y-100418283D01*
X99131231Y-100612966D01*
X99131235Y-100612971D01*
X99133893Y-100617309D01*
X99137225Y-100621155D01*
X99137226Y-100621157D01*
X99175641Y-100665504D01*
X99290060Y-100797594D01*
X99293970Y-100800840D01*
X99293974Y-100800844D01*
X99441548Y-100923362D01*
X99473576Y-100949952D01*
X99679512Y-101070291D01*
X99684265Y-101072106D01*
X99684267Y-101072107D01*
X99765567Y-101103153D01*
X99902337Y-101155380D01*
X100022871Y-101179903D01*
X100131081Y-101201919D01*
X100131084Y-101201919D01*
X100136066Y-101202933D01*
X100291774Y-101208642D01*
X100369346Y-101211487D01*
X100369349Y-101211487D01*
X100374425Y-101211673D01*
X100611009Y-101181365D01*
X100615880Y-101179904D01*
X100615883Y-101179903D01*
X100763054Y-101135750D01*
X100839468Y-101112825D01*
X100885078Y-101090481D01*
X101049093Y-101010131D01*
X101049099Y-101010127D01*
X101053664Y-101007891D01*
X101131289Y-100952522D01*
X101243702Y-100872338D01*
X101247845Y-100869383D01*
X101416797Y-100701020D01*
X101555982Y-100507323D01*
X101661663Y-100293495D01*
X101731000Y-100065277D01*
X101762133Y-99828799D01*
X101763871Y-99757700D01*
X101760948Y-99722140D01*
X103933363Y-99722140D01*
X103933656Y-99727222D01*
X103933656Y-99727223D01*
X103935478Y-99758813D01*
X103947094Y-99960262D01*
X103999531Y-100192945D01*
X104089267Y-100413939D01*
X104091929Y-100418283D01*
X104211231Y-100612966D01*
X104211235Y-100612971D01*
X104213893Y-100617309D01*
X104217225Y-100621155D01*
X104217226Y-100621157D01*
X104255641Y-100665504D01*
X104370060Y-100797594D01*
X104373970Y-100800840D01*
X104373974Y-100800844D01*
X104521548Y-100923362D01*
X104553576Y-100949952D01*
X104759512Y-101070291D01*
X104764265Y-101072106D01*
X104764267Y-101072107D01*
X104845567Y-101103153D01*
X104982337Y-101155380D01*
X105102871Y-101179903D01*
X105211081Y-101201919D01*
X105211084Y-101201919D01*
X105216066Y-101202933D01*
X105371774Y-101208642D01*
X105449346Y-101211487D01*
X105449349Y-101211487D01*
X105454425Y-101211673D01*
X105691009Y-101181365D01*
X105695880Y-101179904D01*
X105695883Y-101179903D01*
X105843054Y-101135750D01*
X105919468Y-101112825D01*
X105965078Y-101090481D01*
X106129093Y-101010131D01*
X106129099Y-101010127D01*
X106133664Y-101007891D01*
X106211289Y-100952522D01*
X106323702Y-100872338D01*
X106327845Y-100869383D01*
X106496797Y-100701020D01*
X106635982Y-100507323D01*
X106741663Y-100293495D01*
X106811000Y-100065277D01*
X106842133Y-99828799D01*
X106843871Y-99757700D01*
X106840948Y-99722140D01*
X109013363Y-99722140D01*
X109013656Y-99727222D01*
X109013656Y-99727223D01*
X109015478Y-99758813D01*
X109027094Y-99960262D01*
X109079531Y-100192945D01*
X109169267Y-100413939D01*
X109171929Y-100418283D01*
X109291231Y-100612966D01*
X109291235Y-100612971D01*
X109293893Y-100617309D01*
X109297225Y-100621155D01*
X109297226Y-100621157D01*
X109335641Y-100665504D01*
X109450060Y-100797594D01*
X109453970Y-100800840D01*
X109453974Y-100800844D01*
X109601548Y-100923362D01*
X109633576Y-100949952D01*
X109839512Y-101070291D01*
X109844265Y-101072106D01*
X109844267Y-101072107D01*
X109925567Y-101103153D01*
X110062337Y-101155380D01*
X110182871Y-101179903D01*
X110291081Y-101201919D01*
X110291084Y-101201919D01*
X110296066Y-101202933D01*
X110451774Y-101208642D01*
X110529346Y-101211487D01*
X110529349Y-101211487D01*
X110534425Y-101211673D01*
X110771009Y-101181365D01*
X110775880Y-101179904D01*
X110775883Y-101179903D01*
X110923054Y-101135750D01*
X110999468Y-101112825D01*
X111045078Y-101090481D01*
X111209093Y-101010131D01*
X111209099Y-101010127D01*
X111213664Y-101007891D01*
X111291289Y-100952522D01*
X111403702Y-100872338D01*
X111407845Y-100869383D01*
X111576797Y-100701020D01*
X111715982Y-100507323D01*
X111821663Y-100293495D01*
X111891000Y-100065277D01*
X111922133Y-99828799D01*
X111923871Y-99757700D01*
X111920948Y-99722140D01*
X114093363Y-99722140D01*
X114093656Y-99727222D01*
X114093656Y-99727223D01*
X114095478Y-99758813D01*
X114107094Y-99960262D01*
X114159531Y-100192945D01*
X114249267Y-100413939D01*
X114251929Y-100418283D01*
X114371231Y-100612966D01*
X114371235Y-100612971D01*
X114373893Y-100617309D01*
X114377225Y-100621155D01*
X114377226Y-100621157D01*
X114415641Y-100665504D01*
X114530060Y-100797594D01*
X114533970Y-100800840D01*
X114533974Y-100800844D01*
X114681548Y-100923362D01*
X114713576Y-100949952D01*
X114919512Y-101070291D01*
X114924265Y-101072106D01*
X114924267Y-101072107D01*
X115005567Y-101103153D01*
X115142337Y-101155380D01*
X115262871Y-101179903D01*
X115371081Y-101201919D01*
X115371084Y-101201919D01*
X115376066Y-101202933D01*
X115531774Y-101208642D01*
X115609346Y-101211487D01*
X115609349Y-101211487D01*
X115614425Y-101211673D01*
X115851009Y-101181365D01*
X115855880Y-101179904D01*
X115855883Y-101179903D01*
X116003054Y-101135750D01*
X116079468Y-101112825D01*
X116125078Y-101090481D01*
X116289093Y-101010131D01*
X116289099Y-101010127D01*
X116293664Y-101007891D01*
X116371289Y-100952522D01*
X116483702Y-100872338D01*
X116487845Y-100869383D01*
X116656797Y-100701020D01*
X116795982Y-100507323D01*
X116901663Y-100293495D01*
X116971000Y-100065277D01*
X117002133Y-99828799D01*
X117003871Y-99757700D01*
X117000948Y-99722140D01*
X119173363Y-99722140D01*
X119173656Y-99727222D01*
X119173656Y-99727223D01*
X119175478Y-99758813D01*
X119187094Y-99960262D01*
X119239531Y-100192945D01*
X119329267Y-100413939D01*
X119331929Y-100418283D01*
X119451231Y-100612966D01*
X119451235Y-100612971D01*
X119453893Y-100617309D01*
X119457225Y-100621155D01*
X119457226Y-100621157D01*
X119495641Y-100665504D01*
X119610060Y-100797594D01*
X119613970Y-100800840D01*
X119613974Y-100800844D01*
X119761548Y-100923362D01*
X119793576Y-100949952D01*
X119999512Y-101070291D01*
X120004265Y-101072106D01*
X120004267Y-101072107D01*
X120085567Y-101103153D01*
X120222337Y-101155380D01*
X120342871Y-101179903D01*
X120451081Y-101201919D01*
X120451084Y-101201919D01*
X120456066Y-101202933D01*
X120611774Y-101208642D01*
X120689346Y-101211487D01*
X120689349Y-101211487D01*
X120694425Y-101211673D01*
X120931009Y-101181365D01*
X120935880Y-101179904D01*
X120935883Y-101179903D01*
X121083054Y-101135750D01*
X121159468Y-101112825D01*
X121205078Y-101090481D01*
X121369093Y-101010131D01*
X121369099Y-101010127D01*
X121373664Y-101007891D01*
X121451289Y-100952522D01*
X121563702Y-100872338D01*
X121567845Y-100869383D01*
X121736797Y-100701020D01*
X121875982Y-100507323D01*
X121981663Y-100293495D01*
X122051000Y-100065277D01*
X122082133Y-99828799D01*
X122083871Y-99757700D01*
X122080948Y-99722140D01*
X122064744Y-99525059D01*
X122064327Y-99519984D01*
X122006221Y-99288652D01*
X121911112Y-99069916D01*
X121781555Y-98869651D01*
X121621029Y-98693236D01*
X121617044Y-98690089D01*
X121617041Y-98690086D01*
X121437836Y-98548559D01*
X121433845Y-98545407D01*
X121283579Y-98462456D01*
X121229486Y-98432595D01*
X121229483Y-98432594D01*
X121225031Y-98430136D01*
X121000194Y-98350517D01*
X120831840Y-98320528D01*
X120770380Y-98309580D01*
X120770379Y-98309580D01*
X120765372Y-98308688D01*
X120675879Y-98307595D01*
X120531960Y-98305836D01*
X120531958Y-98305836D01*
X120526871Y-98305774D01*
X120521841Y-98306544D01*
X120521837Y-98306544D01*
X120391526Y-98326485D01*
X120291098Y-98341853D01*
X120286270Y-98343431D01*
X120286266Y-98343432D01*
X120189011Y-98375220D01*
X120064382Y-98415955D01*
X119852814Y-98526090D01*
X119848746Y-98529144D01*
X119848745Y-98529145D01*
X119666146Y-98666245D01*
X119666143Y-98666247D01*
X119662075Y-98669302D01*
X119497287Y-98841742D01*
X119494420Y-98845944D01*
X119494419Y-98845946D01*
X119365746Y-99034573D01*
X119362875Y-99038782D01*
X119262451Y-99255128D01*
X119261091Y-99260032D01*
X119222543Y-99399032D01*
X119198709Y-99484972D01*
X119173363Y-99722140D01*
X117000948Y-99722140D01*
X116984744Y-99525059D01*
X116984327Y-99519984D01*
X116926221Y-99288652D01*
X116831112Y-99069916D01*
X116701555Y-98869651D01*
X116541029Y-98693236D01*
X116537044Y-98690089D01*
X116537041Y-98690086D01*
X116357836Y-98548559D01*
X116353845Y-98545407D01*
X116203579Y-98462456D01*
X116149486Y-98432595D01*
X116149483Y-98432594D01*
X116145031Y-98430136D01*
X115920194Y-98350517D01*
X115751840Y-98320528D01*
X115690380Y-98309580D01*
X115690379Y-98309580D01*
X115685372Y-98308688D01*
X115595879Y-98307595D01*
X115451960Y-98305836D01*
X115451958Y-98305836D01*
X115446871Y-98305774D01*
X115441841Y-98306544D01*
X115441837Y-98306544D01*
X115311526Y-98326485D01*
X115211098Y-98341853D01*
X115206270Y-98343431D01*
X115206266Y-98343432D01*
X115109011Y-98375220D01*
X114984382Y-98415955D01*
X114772814Y-98526090D01*
X114768746Y-98529144D01*
X114768745Y-98529145D01*
X114586146Y-98666245D01*
X114586143Y-98666247D01*
X114582075Y-98669302D01*
X114417287Y-98841742D01*
X114414420Y-98845944D01*
X114414419Y-98845946D01*
X114285746Y-99034573D01*
X114282875Y-99038782D01*
X114182451Y-99255128D01*
X114181091Y-99260032D01*
X114142543Y-99399032D01*
X114118709Y-99484972D01*
X114093363Y-99722140D01*
X111920948Y-99722140D01*
X111904744Y-99525059D01*
X111904327Y-99519984D01*
X111846221Y-99288652D01*
X111751112Y-99069916D01*
X111621555Y-98869651D01*
X111461029Y-98693236D01*
X111457044Y-98690089D01*
X111457041Y-98690086D01*
X111277836Y-98548559D01*
X111273845Y-98545407D01*
X111123579Y-98462456D01*
X111069486Y-98432595D01*
X111069483Y-98432594D01*
X111065031Y-98430136D01*
X110840194Y-98350517D01*
X110671840Y-98320528D01*
X110610380Y-98309580D01*
X110610379Y-98309580D01*
X110605372Y-98308688D01*
X110515879Y-98307595D01*
X110371960Y-98305836D01*
X110371958Y-98305836D01*
X110366871Y-98305774D01*
X110361841Y-98306544D01*
X110361837Y-98306544D01*
X110231526Y-98326485D01*
X110131098Y-98341853D01*
X110126270Y-98343431D01*
X110126266Y-98343432D01*
X110029011Y-98375220D01*
X109904382Y-98415955D01*
X109692814Y-98526090D01*
X109688746Y-98529144D01*
X109688745Y-98529145D01*
X109506146Y-98666245D01*
X109506143Y-98666247D01*
X109502075Y-98669302D01*
X109337287Y-98841742D01*
X109334420Y-98845944D01*
X109334419Y-98845946D01*
X109205746Y-99034573D01*
X109202875Y-99038782D01*
X109102451Y-99255128D01*
X109101091Y-99260032D01*
X109062543Y-99399032D01*
X109038709Y-99484972D01*
X109013363Y-99722140D01*
X106840948Y-99722140D01*
X106824744Y-99525059D01*
X106824327Y-99519984D01*
X106766221Y-99288652D01*
X106671112Y-99069916D01*
X106541555Y-98869651D01*
X106381029Y-98693236D01*
X106377044Y-98690089D01*
X106377041Y-98690086D01*
X106197836Y-98548559D01*
X106193845Y-98545407D01*
X106043579Y-98462456D01*
X105989486Y-98432595D01*
X105989483Y-98432594D01*
X105985031Y-98430136D01*
X105760194Y-98350517D01*
X105591840Y-98320528D01*
X105530380Y-98309580D01*
X105530379Y-98309580D01*
X105525372Y-98308688D01*
X105435879Y-98307595D01*
X105291960Y-98305836D01*
X105291958Y-98305836D01*
X105286871Y-98305774D01*
X105281841Y-98306544D01*
X105281837Y-98306544D01*
X105151526Y-98326485D01*
X105051098Y-98341853D01*
X105046270Y-98343431D01*
X105046266Y-98343432D01*
X104949011Y-98375220D01*
X104824382Y-98415955D01*
X104612814Y-98526090D01*
X104608746Y-98529144D01*
X104608745Y-98529145D01*
X104426146Y-98666245D01*
X104426143Y-98666247D01*
X104422075Y-98669302D01*
X104257287Y-98841742D01*
X104254420Y-98845944D01*
X104254419Y-98845946D01*
X104125746Y-99034573D01*
X104122875Y-99038782D01*
X104022451Y-99255128D01*
X104021091Y-99260032D01*
X103982543Y-99399032D01*
X103958709Y-99484972D01*
X103933363Y-99722140D01*
X101760948Y-99722140D01*
X101744744Y-99525059D01*
X101744327Y-99519984D01*
X101686221Y-99288652D01*
X101591112Y-99069916D01*
X101461555Y-98869651D01*
X101301029Y-98693236D01*
X101297044Y-98690089D01*
X101297041Y-98690086D01*
X101117836Y-98548559D01*
X101113845Y-98545407D01*
X100963579Y-98462456D01*
X100909486Y-98432595D01*
X100909483Y-98432594D01*
X100905031Y-98430136D01*
X100680194Y-98350517D01*
X100511840Y-98320528D01*
X100450380Y-98309580D01*
X100450379Y-98309580D01*
X100445372Y-98308688D01*
X100355879Y-98307595D01*
X100211960Y-98305836D01*
X100211958Y-98305836D01*
X100206871Y-98305774D01*
X100201841Y-98306544D01*
X100201837Y-98306544D01*
X100071526Y-98326485D01*
X99971098Y-98341853D01*
X99966270Y-98343431D01*
X99966266Y-98343432D01*
X99869011Y-98375220D01*
X99744382Y-98415955D01*
X99532814Y-98526090D01*
X99528746Y-98529144D01*
X99528745Y-98529145D01*
X99346146Y-98666245D01*
X99346143Y-98666247D01*
X99342075Y-98669302D01*
X99177287Y-98841742D01*
X99174420Y-98845944D01*
X99174419Y-98845946D01*
X99045746Y-99034573D01*
X99042875Y-99038782D01*
X98942451Y-99255128D01*
X98941091Y-99260032D01*
X98902543Y-99399032D01*
X98878709Y-99484972D01*
X98853363Y-99722140D01*
X96678900Y-99722140D01*
X96678899Y-98681053D01*
X96678899Y-98676182D01*
X96664046Y-98582396D01*
X96606450Y-98469358D01*
X96516742Y-98379650D01*
X96403704Y-98322054D01*
X96374467Y-98317423D01*
X96314739Y-98307963D01*
X96314734Y-98307963D01*
X96309919Y-98307200D01*
X96305041Y-98307200D01*
X95227624Y-98307201D01*
X94146882Y-98307201D01*
X94074249Y-98318704D01*
X94062731Y-98320528D01*
X94062730Y-98320528D01*
X94053096Y-98322054D01*
X93940058Y-98379650D01*
X93850350Y-98469358D01*
X93792754Y-98582396D01*
X93791227Y-98592038D01*
X93778990Y-98669302D01*
X93777900Y-98676181D01*
X93777900Y-98681059D01*
X66361974Y-98681059D01*
X66358246Y-91292995D01*
X66608521Y-91292995D01*
X66626945Y-91503577D01*
X66628819Y-91514208D01*
X66683531Y-91718398D01*
X66687220Y-91728531D01*
X66776557Y-91920114D01*
X66781955Y-91929464D01*
X66815189Y-91976926D01*
X66825500Y-91985168D01*
X66838734Y-91978212D01*
X67516740Y-91300207D01*
X67523016Y-91288713D01*
X68241568Y-91288713D01*
X68241697Y-91290518D01*
X68245880Y-91297027D01*
X68927778Y-91978924D01*
X68939364Y-91985250D01*
X68951188Y-91976103D01*
X68983845Y-91929464D01*
X68989243Y-91920114D01*
X69078580Y-91728531D01*
X69082269Y-91718398D01*
X69136981Y-91514208D01*
X69138855Y-91503577D01*
X69157279Y-91292995D01*
X89468521Y-91292995D01*
X89486945Y-91503577D01*
X89488819Y-91514208D01*
X89543531Y-91718398D01*
X89547220Y-91728531D01*
X89636557Y-91920114D01*
X89641955Y-91929464D01*
X89675189Y-91976926D01*
X89685500Y-91985168D01*
X89698734Y-91978212D01*
X90376740Y-91300207D01*
X90384232Y-91286487D01*
X90384103Y-91284682D01*
X90379920Y-91278173D01*
X89698022Y-90596276D01*
X89686436Y-90589950D01*
X89674612Y-90599097D01*
X89641955Y-90645736D01*
X89636557Y-90655086D01*
X89547220Y-90846669D01*
X89543531Y-90856802D01*
X89488819Y-91060992D01*
X89486945Y-91071623D01*
X89468521Y-91282205D01*
X89468521Y-91292995D01*
X69157279Y-91292995D01*
X69157279Y-91282205D01*
X69138855Y-91071623D01*
X69136981Y-91060992D01*
X69082269Y-90856802D01*
X69078580Y-90846669D01*
X68989243Y-90655086D01*
X68983845Y-90645736D01*
X68950611Y-90598274D01*
X68940300Y-90590032D01*
X68927066Y-90596988D01*
X68249060Y-91274993D01*
X68241568Y-91288713D01*
X67523016Y-91288713D01*
X67524232Y-91286487D01*
X67524103Y-91284682D01*
X67519920Y-91278173D01*
X66838022Y-90596276D01*
X66826436Y-90589950D01*
X66814612Y-90599097D01*
X66781955Y-90645736D01*
X66776557Y-90655086D01*
X66687220Y-90846669D01*
X66683531Y-90856802D01*
X66628819Y-91060992D01*
X66626945Y-91071623D01*
X66608521Y-91282205D01*
X66608521Y-91292995D01*
X66358246Y-91292995D01*
X66357495Y-89804064D01*
X67185249Y-89804064D01*
X67194397Y-89815888D01*
X67241036Y-89848546D01*
X67250386Y-89853944D01*
X67360344Y-89905218D01*
X67412784Y-89951390D01*
X67431936Y-90018584D01*
X67411720Y-90085465D01*
X67360345Y-90129982D01*
X67250386Y-90181257D01*
X67241036Y-90186655D01*
X67193574Y-90219889D01*
X67185332Y-90230200D01*
X67192288Y-90243434D01*
X67870293Y-90921440D01*
X67884013Y-90928932D01*
X67885818Y-90928803D01*
X67892327Y-90924620D01*
X68574224Y-90242722D01*
X68580551Y-90231136D01*
X68571403Y-90219312D01*
X68524764Y-90186654D01*
X68515418Y-90181258D01*
X68405456Y-90129982D01*
X68353017Y-90083810D01*
X68333865Y-90016616D01*
X68354081Y-89949735D01*
X68405456Y-89905218D01*
X68515418Y-89853942D01*
X68524764Y-89848546D01*
X68572226Y-89815312D01*
X68580469Y-89805000D01*
X68573513Y-89791767D01*
X67895507Y-89113760D01*
X67881787Y-89106268D01*
X67879982Y-89106397D01*
X67873473Y-89110580D01*
X67191576Y-89792478D01*
X67185249Y-89804064D01*
X66357495Y-89804064D01*
X66356968Y-88760207D01*
X66356964Y-88752995D01*
X66608521Y-88752995D01*
X66626945Y-88963577D01*
X66628819Y-88974208D01*
X66683531Y-89178398D01*
X66687220Y-89188531D01*
X66776557Y-89380114D01*
X66781955Y-89389464D01*
X66815189Y-89436926D01*
X66825500Y-89445168D01*
X66838734Y-89438212D01*
X67516740Y-88760207D01*
X67523016Y-88748713D01*
X68241568Y-88748713D01*
X68241697Y-88750518D01*
X68245880Y-88757027D01*
X68927778Y-89438924D01*
X68939364Y-89445250D01*
X68951188Y-89436103D01*
X68983845Y-89389464D01*
X68989243Y-89380114D01*
X69078580Y-89188531D01*
X69082269Y-89178398D01*
X69136981Y-88974208D01*
X69138855Y-88963577D01*
X69157279Y-88752995D01*
X69157279Y-88742205D01*
X69138855Y-88531623D01*
X69136981Y-88520992D01*
X69082269Y-88316802D01*
X69078580Y-88306669D01*
X68989243Y-88115086D01*
X68983845Y-88105736D01*
X68950611Y-88058274D01*
X68940300Y-88050032D01*
X68927066Y-88056988D01*
X68249060Y-88734993D01*
X68241568Y-88748713D01*
X67523016Y-88748713D01*
X67524232Y-88746487D01*
X67524103Y-88744682D01*
X67519920Y-88738173D01*
X66838022Y-88056276D01*
X66826436Y-88049950D01*
X66814612Y-88059097D01*
X66781955Y-88105736D01*
X66776557Y-88115086D01*
X66687220Y-88306669D01*
X66683531Y-88316802D01*
X66628819Y-88520992D01*
X66626945Y-88531623D01*
X66608521Y-88742205D01*
X66608521Y-88752995D01*
X66356964Y-88752995D01*
X66346712Y-68432995D01*
X66608521Y-68432995D01*
X66626945Y-68643577D01*
X66628819Y-68654208D01*
X66683531Y-68858398D01*
X66687220Y-68868531D01*
X66776557Y-69060114D01*
X66781955Y-69069464D01*
X66815189Y-69116926D01*
X66825500Y-69125168D01*
X66838734Y-69118212D01*
X67516740Y-68440207D01*
X67523016Y-68428713D01*
X68241568Y-68428713D01*
X68241697Y-68430518D01*
X68245880Y-68437027D01*
X68927778Y-69118924D01*
X68939364Y-69125250D01*
X68951188Y-69116103D01*
X68983845Y-69069464D01*
X68989243Y-69060114D01*
X69078580Y-68868531D01*
X69082269Y-68858398D01*
X69136981Y-68654208D01*
X69138855Y-68643577D01*
X69157279Y-68432995D01*
X69157279Y-68422205D01*
X69138855Y-68211623D01*
X69136981Y-68200992D01*
X69082269Y-67996802D01*
X69078580Y-67986669D01*
X68989243Y-67795086D01*
X68983845Y-67785736D01*
X68950611Y-67738274D01*
X68940300Y-67730032D01*
X68927066Y-67736988D01*
X68249060Y-68414993D01*
X68241568Y-68428713D01*
X67523016Y-68428713D01*
X67524232Y-68426487D01*
X67524103Y-68424682D01*
X67519920Y-68418173D01*
X66838022Y-67736276D01*
X66826436Y-67729950D01*
X66814612Y-67739097D01*
X66781955Y-67785736D01*
X66776557Y-67795086D01*
X66687220Y-67986669D01*
X66683531Y-67996802D01*
X66628819Y-68200992D01*
X66626945Y-68211623D01*
X66608521Y-68422205D01*
X66608521Y-68432995D01*
X66346712Y-68432995D01*
X66345961Y-66944064D01*
X67185249Y-66944064D01*
X67194397Y-66955888D01*
X67241036Y-66988546D01*
X67250386Y-66993944D01*
X67360344Y-67045218D01*
X67412784Y-67091390D01*
X67431936Y-67158584D01*
X67411720Y-67225465D01*
X67360345Y-67269982D01*
X67250386Y-67321257D01*
X67241036Y-67326655D01*
X67193574Y-67359889D01*
X67185332Y-67370200D01*
X67192288Y-67383434D01*
X67870293Y-68061440D01*
X67884013Y-68068932D01*
X67885818Y-68068803D01*
X67892327Y-68064620D01*
X68574224Y-67382722D01*
X68580551Y-67371136D01*
X68571403Y-67359312D01*
X68524764Y-67326654D01*
X68515418Y-67321258D01*
X68405456Y-67269982D01*
X68353017Y-67223810D01*
X68333865Y-67156616D01*
X68354081Y-67089735D01*
X68405456Y-67045218D01*
X68515418Y-66993942D01*
X68524764Y-66988546D01*
X68572226Y-66955312D01*
X68580469Y-66945000D01*
X68573513Y-66931767D01*
X67895507Y-66253760D01*
X67881787Y-66246268D01*
X67879982Y-66246397D01*
X67873473Y-66250580D01*
X67191576Y-66932478D01*
X67185249Y-66944064D01*
X66345961Y-66944064D01*
X66345430Y-65892995D01*
X66608521Y-65892995D01*
X66626945Y-66103577D01*
X66628819Y-66114208D01*
X66683531Y-66318398D01*
X66687220Y-66328531D01*
X66776557Y-66520114D01*
X66781955Y-66529464D01*
X66815189Y-66576926D01*
X66825500Y-66585168D01*
X66838734Y-66578212D01*
X67516740Y-65900207D01*
X67523016Y-65888713D01*
X68241568Y-65888713D01*
X68241697Y-65890518D01*
X68245880Y-65897027D01*
X68927778Y-66578924D01*
X68939364Y-66585250D01*
X68951188Y-66576103D01*
X68983845Y-66529464D01*
X68989243Y-66520114D01*
X69078580Y-66328531D01*
X69082269Y-66318398D01*
X69136981Y-66114208D01*
X69138855Y-66103577D01*
X69157279Y-65892995D01*
X69157279Y-65882205D01*
X69138855Y-65671623D01*
X69136981Y-65660992D01*
X69082269Y-65456802D01*
X69078580Y-65446669D01*
X68989243Y-65255086D01*
X68983845Y-65245736D01*
X68950611Y-65198274D01*
X68940300Y-65190032D01*
X68927066Y-65196988D01*
X68249060Y-65874993D01*
X68241568Y-65888713D01*
X67523016Y-65888713D01*
X67524232Y-65886487D01*
X67524103Y-65884682D01*
X67519920Y-65878173D01*
X66838022Y-65196276D01*
X66826436Y-65189950D01*
X66814612Y-65199097D01*
X66781955Y-65245736D01*
X66776557Y-65255086D01*
X66687220Y-65446669D01*
X66683531Y-65456802D01*
X66628819Y-65660992D01*
X66626945Y-65671623D01*
X66608521Y-65882205D01*
X66608521Y-65892995D01*
X66345430Y-65892995D01*
X66344862Y-64766844D01*
X66364513Y-64699796D01*
X66417294Y-64654015D01*
X66468644Y-64642783D01*
X67077913Y-64641716D01*
X67144987Y-64661283D01*
X67190834Y-64714007D01*
X67200899Y-64783148D01*
X67185092Y-64819748D01*
X67184228Y-64828099D01*
X67192288Y-64843434D01*
X67870293Y-65521440D01*
X67884013Y-65528932D01*
X67885818Y-65528803D01*
X67892327Y-65524620D01*
X68574224Y-64842722D01*
X68581716Y-64829002D01*
X68581509Y-64826113D01*
X68561011Y-64773713D01*
X68574776Y-64705213D01*
X68623391Y-64655029D01*
X68684322Y-64638903D01*
X75779776Y-64626476D01*
X90180923Y-64601255D01*
X90247995Y-64620822D01*
X90293842Y-64673546D01*
X90303907Y-64742687D01*
X90274993Y-64806293D01*
X90239848Y-64833113D01*
X90240287Y-64833850D01*
X90061556Y-64940183D01*
X90061553Y-64940185D01*
X90056672Y-64943089D01*
X89896040Y-65083960D01*
X89892525Y-65088419D01*
X89892522Y-65088422D01*
X89767286Y-65247283D01*
X89767283Y-65247287D01*
X89763769Y-65251745D01*
X89664289Y-65440825D01*
X89662603Y-65446256D01*
X89662601Y-65446260D01*
X89602618Y-65639436D01*
X89600932Y-65644867D01*
X89575820Y-65857039D01*
X89576192Y-65862715D01*
X89576192Y-65862718D01*
X89582715Y-65962232D01*
X89589794Y-66070234D01*
X89642385Y-66277313D01*
X89644761Y-66282467D01*
X89661326Y-66318398D01*
X89731833Y-66471340D01*
X89855141Y-66645818D01*
X90008181Y-66794902D01*
X90185827Y-66913601D01*
X90382129Y-66997939D01*
X90484012Y-67020993D01*
X90557898Y-67037712D01*
X90618940Y-67071706D01*
X90651913Y-67133306D01*
X90646348Y-67202954D01*
X90604012Y-67258537D01*
X90551531Y-67280863D01*
X90503338Y-67289144D01*
X90446331Y-67298939D01*
X90446328Y-67298940D01*
X90440734Y-67299901D01*
X90240287Y-67373850D01*
X90235409Y-67376752D01*
X90235407Y-67376753D01*
X90061556Y-67480183D01*
X90061553Y-67480185D01*
X90056672Y-67483089D01*
X89896040Y-67623960D01*
X89892525Y-67628419D01*
X89892522Y-67628422D01*
X89767286Y-67787283D01*
X89767283Y-67787287D01*
X89763769Y-67791745D01*
X89664289Y-67980825D01*
X89662603Y-67986256D01*
X89662601Y-67986260D01*
X89636971Y-68068803D01*
X89600932Y-68184867D01*
X89575820Y-68397039D01*
X89576192Y-68402715D01*
X89576192Y-68402718D01*
X89578177Y-68432995D01*
X89589794Y-68610234D01*
X89642385Y-68817313D01*
X89644761Y-68822467D01*
X89661326Y-68858398D01*
X89731833Y-69011340D01*
X89855141Y-69185818D01*
X90008181Y-69334902D01*
X90185827Y-69453601D01*
X90382129Y-69537939D01*
X90484012Y-69560993D01*
X90557898Y-69577712D01*
X90618940Y-69611706D01*
X90651913Y-69673306D01*
X90646348Y-69742954D01*
X90604012Y-69798537D01*
X90551531Y-69820863D01*
X90516035Y-69826962D01*
X90446331Y-69838939D01*
X90446328Y-69838940D01*
X90440734Y-69839901D01*
X90240287Y-69913850D01*
X90235409Y-69916752D01*
X90235407Y-69916753D01*
X90061556Y-70020183D01*
X90061553Y-70020185D01*
X90056672Y-70023089D01*
X89896040Y-70163960D01*
X89892525Y-70168419D01*
X89892522Y-70168422D01*
X89767286Y-70327283D01*
X89767283Y-70327287D01*
X89763769Y-70331745D01*
X89664289Y-70520825D01*
X89662603Y-70526256D01*
X89662601Y-70526260D01*
X89655474Y-70549213D01*
X89600932Y-70724867D01*
X89575820Y-70937039D01*
X89576192Y-70942715D01*
X89576192Y-70942718D01*
X89581589Y-71025060D01*
X89589794Y-71150234D01*
X89642385Y-71357313D01*
X89731833Y-71551340D01*
X89735110Y-71555977D01*
X89735113Y-71555982D01*
X89743137Y-71567336D01*
X89765752Y-71633444D01*
X89749036Y-71701285D01*
X89698296Y-71749319D01*
X89641872Y-71762900D01*
X69472731Y-71762900D01*
X69405692Y-71743215D01*
X69385050Y-71726581D01*
X69042358Y-71383889D01*
X69008873Y-71322566D01*
X69012621Y-71256349D01*
X69018122Y-71240143D01*
X69048780Y-71028701D01*
X69050380Y-70967600D01*
X69030830Y-70754844D01*
X68972836Y-70549213D01*
X68970324Y-70544119D01*
X68970322Y-70544114D01*
X68924411Y-70451016D01*
X68878340Y-70357593D01*
X68750507Y-70186403D01*
X68746337Y-70182548D01*
X68746334Y-70182545D01*
X68597793Y-70045236D01*
X68597791Y-70045235D01*
X68593617Y-70041376D01*
X68412925Y-69927368D01*
X68269346Y-69870086D01*
X68214375Y-69826962D01*
X68191445Y-69760963D01*
X68207836Y-69693043D01*
X68258346Y-69644767D01*
X68283202Y-69635140D01*
X68313700Y-69626968D01*
X68323831Y-69623280D01*
X68515418Y-69533942D01*
X68524764Y-69528546D01*
X68572226Y-69495312D01*
X68580469Y-69485000D01*
X68573513Y-69471767D01*
X67895507Y-68793760D01*
X67881787Y-68786268D01*
X67879982Y-68786397D01*
X67873473Y-68790580D01*
X67191576Y-69472478D01*
X67185249Y-69484064D01*
X67194397Y-69495888D01*
X67241036Y-69528546D01*
X67250382Y-69533942D01*
X67441969Y-69623280D01*
X67452105Y-69626969D01*
X67483949Y-69635502D01*
X67543610Y-69671867D01*
X67574139Y-69734713D01*
X67565845Y-69804089D01*
X67521360Y-69857967D01*
X67494775Y-69871613D01*
X67380287Y-69913850D01*
X67375409Y-69916752D01*
X67375407Y-69916753D01*
X67201556Y-70020183D01*
X67201553Y-70020185D01*
X67196672Y-70023089D01*
X67036040Y-70163960D01*
X67032525Y-70168419D01*
X67032522Y-70168422D01*
X66907286Y-70327283D01*
X66907283Y-70327287D01*
X66903769Y-70331745D01*
X66804289Y-70520825D01*
X66802603Y-70526256D01*
X66802601Y-70526260D01*
X66795474Y-70549213D01*
X66740932Y-70724867D01*
X66715820Y-70937039D01*
X66716192Y-70942715D01*
X66716192Y-70942718D01*
X66721589Y-71025060D01*
X66729794Y-71150234D01*
X66782385Y-71357313D01*
X66871833Y-71551340D01*
X66995141Y-71725818D01*
X67148181Y-71874902D01*
X67152909Y-71878061D01*
X67152910Y-71878062D01*
X67197825Y-71908073D01*
X67325827Y-71993601D01*
X67522129Y-72077939D01*
X67594920Y-72094410D01*
X67697898Y-72117712D01*
X67758940Y-72151706D01*
X67791913Y-72213306D01*
X67786348Y-72282954D01*
X67744012Y-72338537D01*
X67691531Y-72360863D01*
X67643338Y-72369144D01*
X67586331Y-72378939D01*
X67586328Y-72378940D01*
X67580734Y-72379901D01*
X67380287Y-72453850D01*
X67375409Y-72456752D01*
X67375407Y-72456753D01*
X67201556Y-72560183D01*
X67201553Y-72560185D01*
X67196672Y-72563089D01*
X67036040Y-72703960D01*
X67032525Y-72708419D01*
X67032522Y-72708422D01*
X66907286Y-72867283D01*
X66907283Y-72867287D01*
X66903769Y-72871745D01*
X66804289Y-73060825D01*
X66802603Y-73066256D01*
X66802601Y-73066260D01*
X66742618Y-73259436D01*
X66740932Y-73264867D01*
X66715820Y-73477039D01*
X66716192Y-73482715D01*
X66716192Y-73482718D01*
X66722715Y-73582232D01*
X66729794Y-73690234D01*
X66782385Y-73897313D01*
X66871833Y-74091340D01*
X66995141Y-74265818D01*
X67148181Y-74414902D01*
X67152909Y-74418061D01*
X67152910Y-74418062D01*
X67197825Y-74448073D01*
X67325827Y-74533601D01*
X67522129Y-74617939D01*
X67624012Y-74640993D01*
X67697898Y-74657712D01*
X67758940Y-74691706D01*
X67791913Y-74753306D01*
X67786348Y-74822954D01*
X67744012Y-74878537D01*
X67691531Y-74900863D01*
X67643338Y-74909144D01*
X67586331Y-74918939D01*
X67586328Y-74918940D01*
X67580734Y-74919901D01*
X67380287Y-74993850D01*
X67375409Y-74996752D01*
X67375407Y-74996753D01*
X67201556Y-75100183D01*
X67201553Y-75100185D01*
X67196672Y-75103089D01*
X67036040Y-75243960D01*
X67032525Y-75248419D01*
X67032522Y-75248422D01*
X66907286Y-75407283D01*
X66907283Y-75407287D01*
X66903769Y-75411745D01*
X66804289Y-75600825D01*
X66802603Y-75606256D01*
X66802601Y-75606260D01*
X66789991Y-75646871D01*
X66740932Y-75804867D01*
X66715820Y-76017039D01*
X66716192Y-76022715D01*
X66716192Y-76022718D01*
X66721589Y-76105060D01*
X66729794Y-76230234D01*
X66782385Y-76437313D01*
X66871833Y-76631340D01*
X66995141Y-76805818D01*
X67148181Y-76954902D01*
X67152909Y-76958061D01*
X67152910Y-76958062D01*
X67181195Y-76976961D01*
X67325827Y-77073601D01*
X67522129Y-77157939D01*
X67602459Y-77176116D01*
X67697898Y-77197712D01*
X67758940Y-77231706D01*
X67791913Y-77293306D01*
X67786348Y-77362954D01*
X67744012Y-77418537D01*
X67691531Y-77440863D01*
X67653899Y-77447329D01*
X67586331Y-77458939D01*
X67586328Y-77458940D01*
X67580734Y-77459901D01*
X67380287Y-77533850D01*
X67375409Y-77536752D01*
X67375407Y-77536753D01*
X67201556Y-77640183D01*
X67201553Y-77640185D01*
X67196672Y-77643089D01*
X67192399Y-77646836D01*
X67192398Y-77646837D01*
X67144349Y-77688975D01*
X67036040Y-77783960D01*
X67032525Y-77788419D01*
X67032522Y-77788422D01*
X66907286Y-77947283D01*
X66907283Y-77947287D01*
X66903769Y-77951745D01*
X66804289Y-78140825D01*
X66802603Y-78146256D01*
X66802601Y-78146260D01*
X66742618Y-78339436D01*
X66740932Y-78344867D01*
X66740265Y-78350507D01*
X66740264Y-78350509D01*
X66722837Y-78497756D01*
X66715820Y-78557039D01*
X66716192Y-78562715D01*
X66716192Y-78562718D01*
X66721589Y-78645060D01*
X66729794Y-78770234D01*
X66782385Y-78977313D01*
X66784761Y-78982467D01*
X66846478Y-79116340D01*
X66871833Y-79171340D01*
X66995141Y-79345818D01*
X67148181Y-79494902D01*
X67325827Y-79613601D01*
X67522129Y-79697939D01*
X67569818Y-79708730D01*
X67697898Y-79737712D01*
X67758940Y-79771706D01*
X67791913Y-79833306D01*
X67786348Y-79902954D01*
X67744012Y-79958537D01*
X67691531Y-79980863D01*
X67658019Y-79986621D01*
X67586331Y-79998939D01*
X67586328Y-79998940D01*
X67580734Y-79999901D01*
X67380287Y-80073850D01*
X67375409Y-80076752D01*
X67375407Y-80076753D01*
X67201556Y-80180183D01*
X67201553Y-80180185D01*
X67196672Y-80183089D01*
X67192399Y-80186836D01*
X67192398Y-80186837D01*
X67172148Y-80204596D01*
X67036040Y-80323960D01*
X67032525Y-80328419D01*
X67032522Y-80328422D01*
X66907286Y-80487283D01*
X66907283Y-80487287D01*
X66903769Y-80491745D01*
X66804289Y-80680825D01*
X66802603Y-80686256D01*
X66802601Y-80686260D01*
X66751994Y-80849241D01*
X66740932Y-80884867D01*
X66740265Y-80890507D01*
X66740264Y-80890509D01*
X66730585Y-80972293D01*
X66715820Y-81097039D01*
X66716192Y-81102715D01*
X66716192Y-81102718D01*
X66721589Y-81185060D01*
X66729794Y-81310234D01*
X66782385Y-81517313D01*
X66784761Y-81522467D01*
X66865217Y-81696988D01*
X66871833Y-81711340D01*
X66995141Y-81885818D01*
X67148181Y-82034902D01*
X67152909Y-82038061D01*
X67152910Y-82038062D01*
X67184815Y-82059380D01*
X67325827Y-82153601D01*
X67522129Y-82237939D01*
X67624012Y-82260993D01*
X67697898Y-82277712D01*
X67758940Y-82311706D01*
X67791913Y-82373306D01*
X67786348Y-82442954D01*
X67744012Y-82498537D01*
X67691531Y-82520863D01*
X67643338Y-82529144D01*
X67586331Y-82538939D01*
X67586328Y-82538940D01*
X67580734Y-82539901D01*
X67380287Y-82613850D01*
X67375409Y-82616752D01*
X67375407Y-82616753D01*
X67201556Y-82720183D01*
X67201553Y-82720185D01*
X67196672Y-82723089D01*
X67036040Y-82863960D01*
X67032525Y-82868419D01*
X67032522Y-82868422D01*
X66907286Y-83027283D01*
X66907283Y-83027287D01*
X66903769Y-83031745D01*
X66804289Y-83220825D01*
X66802603Y-83226256D01*
X66802601Y-83226260D01*
X66746769Y-83406068D01*
X66740932Y-83424867D01*
X66740265Y-83430507D01*
X66740264Y-83430509D01*
X66730288Y-83514802D01*
X66715820Y-83637039D01*
X66716192Y-83642715D01*
X66716192Y-83642718D01*
X66719800Y-83697756D01*
X66729794Y-83850234D01*
X66782385Y-84057313D01*
X66871833Y-84251340D01*
X66995141Y-84425818D01*
X67148181Y-84574902D01*
X67325827Y-84693601D01*
X67522129Y-84777939D01*
X67624012Y-84800993D01*
X67697898Y-84817712D01*
X67758940Y-84851706D01*
X67791913Y-84913306D01*
X67786348Y-84982954D01*
X67744012Y-85038537D01*
X67691531Y-85060863D01*
X67643338Y-85069144D01*
X67586331Y-85078939D01*
X67586328Y-85078940D01*
X67580734Y-85079901D01*
X67380287Y-85153850D01*
X67375409Y-85156752D01*
X67375407Y-85156753D01*
X67201556Y-85260183D01*
X67201553Y-85260185D01*
X67196672Y-85263089D01*
X67036040Y-85403960D01*
X67032525Y-85408419D01*
X67032522Y-85408422D01*
X66907286Y-85567283D01*
X66907283Y-85567287D01*
X66903769Y-85571745D01*
X66804289Y-85760825D01*
X66802603Y-85766256D01*
X66802601Y-85766260D01*
X66742618Y-85959436D01*
X66740932Y-85964867D01*
X66740265Y-85970507D01*
X66740264Y-85970509D01*
X66724205Y-86106198D01*
X66715820Y-86177039D01*
X66716192Y-86182715D01*
X66716192Y-86182718D01*
X66727800Y-86359818D01*
X66729794Y-86390234D01*
X66782385Y-86597313D01*
X66871833Y-86791340D01*
X66995141Y-86965818D01*
X67148181Y-87114902D01*
X67325827Y-87233601D01*
X67496814Y-87307063D01*
X67550638Y-87351611D01*
X67571833Y-87418188D01*
X67553670Y-87485656D01*
X67501914Y-87532593D01*
X67479959Y-87540767D01*
X67452102Y-87548231D01*
X67441969Y-87551920D01*
X67250386Y-87641257D01*
X67241036Y-87646655D01*
X67193574Y-87679889D01*
X67185332Y-87690200D01*
X67192288Y-87703434D01*
X67870293Y-88381440D01*
X67884013Y-88388932D01*
X67885818Y-88388803D01*
X67892327Y-88384620D01*
X68574224Y-87702722D01*
X68580551Y-87691136D01*
X68571403Y-87679312D01*
X68524764Y-87646654D01*
X68515418Y-87641258D01*
X68323831Y-87551920D01*
X68313700Y-87548232D01*
X68281922Y-87539717D01*
X68222262Y-87503351D01*
X68191734Y-87440504D01*
X68200029Y-87371128D01*
X68244515Y-87317251D01*
X68274149Y-87302527D01*
X68357757Y-87274146D01*
X68544168Y-87169751D01*
X68708433Y-87033133D01*
X68764418Y-86965818D01*
X68841420Y-86873234D01*
X68841421Y-86873233D01*
X68845051Y-86868868D01*
X68949446Y-86682457D01*
X69018122Y-86480143D01*
X69026683Y-86421103D01*
X69048257Y-86272307D01*
X69048780Y-86268701D01*
X69050380Y-86207600D01*
X69030830Y-85994844D01*
X68972836Y-85789213D01*
X68970324Y-85784119D01*
X68970322Y-85784114D01*
X68910639Y-85663090D01*
X68878340Y-85597593D01*
X68750507Y-85426403D01*
X68746337Y-85422548D01*
X68746334Y-85422545D01*
X68597793Y-85285236D01*
X68597791Y-85285235D01*
X68593617Y-85281376D01*
X68412925Y-85167368D01*
X68214482Y-85088197D01*
X68208901Y-85087087D01*
X68208898Y-85087086D01*
X68133982Y-85072185D01*
X68067554Y-85058972D01*
X68005644Y-85026588D01*
X67971070Y-84965872D01*
X67974809Y-84896103D01*
X68015675Y-84839430D01*
X68073952Y-84814638D01*
X68094750Y-84811622D01*
X68155443Y-84802822D01*
X68259040Y-84767656D01*
X68352367Y-84735976D01*
X68352370Y-84735975D01*
X68357757Y-84734146D01*
X68505686Y-84651302D01*
X68539215Y-84632525D01*
X68539217Y-84632524D01*
X68544168Y-84629751D01*
X68708433Y-84493133D01*
X68764418Y-84425818D01*
X68841420Y-84333234D01*
X68841421Y-84333233D01*
X68845051Y-84328868D01*
X68949446Y-84142457D01*
X69018122Y-83940143D01*
X69019285Y-83932126D01*
X69048257Y-83732307D01*
X69048780Y-83728701D01*
X69050380Y-83667600D01*
X69030830Y-83454844D01*
X68972836Y-83249213D01*
X68970324Y-83244119D01*
X68970322Y-83244114D01*
X68921695Y-83145508D01*
X68878340Y-83057593D01*
X68750507Y-82886403D01*
X68746337Y-82882548D01*
X68746334Y-82882545D01*
X68597793Y-82745236D01*
X68597791Y-82745235D01*
X68593617Y-82741376D01*
X68412925Y-82627368D01*
X68214482Y-82548197D01*
X68208901Y-82547087D01*
X68208898Y-82547086D01*
X68133982Y-82532185D01*
X68067554Y-82518972D01*
X68005644Y-82486588D01*
X67971070Y-82425872D01*
X67974809Y-82356103D01*
X68015675Y-82299430D01*
X68073952Y-82274638D01*
X68094750Y-82271622D01*
X68155443Y-82262822D01*
X68259040Y-82227656D01*
X68352367Y-82195976D01*
X68352370Y-82195975D01*
X68357757Y-82194146D01*
X68544168Y-82089751D01*
X68708433Y-81953133D01*
X68764418Y-81885818D01*
X68841420Y-81793234D01*
X68841421Y-81793233D01*
X68845051Y-81788868D01*
X68864265Y-81754560D01*
X68917132Y-81660158D01*
X68949446Y-81602457D01*
X68959596Y-81572558D01*
X68994662Y-81469253D01*
X69018122Y-81400143D01*
X69048780Y-81188701D01*
X69050380Y-81127600D01*
X69030830Y-80914844D01*
X68972836Y-80709213D01*
X68970324Y-80704119D01*
X68970322Y-80704114D01*
X68916931Y-80595849D01*
X68878340Y-80517593D01*
X68750507Y-80346403D01*
X68746337Y-80342548D01*
X68746334Y-80342545D01*
X68597793Y-80205236D01*
X68597791Y-80205235D01*
X68593617Y-80201376D01*
X68584309Y-80195503D01*
X68417734Y-80090402D01*
X68417732Y-80090401D01*
X68412925Y-80087368D01*
X68214482Y-80008197D01*
X68208901Y-80007087D01*
X68208898Y-80007086D01*
X68118298Y-79989065D01*
X68067554Y-79978972D01*
X68005644Y-79946588D01*
X67971070Y-79885872D01*
X67974809Y-79816103D01*
X68015675Y-79759430D01*
X68073952Y-79734638D01*
X68094750Y-79731622D01*
X68155443Y-79722822D01*
X68270181Y-79683874D01*
X68352367Y-79655976D01*
X68352370Y-79655975D01*
X68357757Y-79654146D01*
X68469759Y-79591422D01*
X68539215Y-79552525D01*
X68539217Y-79552524D01*
X68544168Y-79549751D01*
X68563695Y-79533511D01*
X68704066Y-79416765D01*
X68708433Y-79413133D01*
X68741789Y-79373027D01*
X68841420Y-79253234D01*
X68841421Y-79253233D01*
X68845051Y-79248868D01*
X68888537Y-79171219D01*
X68946667Y-79067419D01*
X68949446Y-79062457D01*
X68960076Y-79031144D01*
X69016293Y-78865530D01*
X69018122Y-78860143D01*
X69048780Y-78648701D01*
X69050380Y-78587600D01*
X69030830Y-78374844D01*
X68972836Y-78169213D01*
X68970324Y-78164119D01*
X68970322Y-78164114D01*
X68903889Y-78029402D01*
X68878340Y-77977593D01*
X68750507Y-77806403D01*
X68746337Y-77802548D01*
X68746334Y-77802545D01*
X68597793Y-77665236D01*
X68597791Y-77665235D01*
X68593617Y-77661376D01*
X68560028Y-77640183D01*
X68417734Y-77550402D01*
X68417732Y-77550401D01*
X68412925Y-77547368D01*
X68214482Y-77468197D01*
X68208901Y-77467087D01*
X68208898Y-77467086D01*
X68109570Y-77447329D01*
X68067554Y-77438972D01*
X68005644Y-77406588D01*
X67971070Y-77345872D01*
X67974809Y-77276103D01*
X68015675Y-77219430D01*
X68073952Y-77194638D01*
X68094750Y-77191622D01*
X68155443Y-77182822D01*
X68259040Y-77147656D01*
X68352367Y-77115976D01*
X68352370Y-77115975D01*
X68357757Y-77114146D01*
X68503363Y-77032603D01*
X68539215Y-77012525D01*
X68539217Y-77012524D01*
X68544168Y-77009751D01*
X68583284Y-76977219D01*
X68704066Y-76876765D01*
X68708433Y-76873133D01*
X68764418Y-76805818D01*
X68841420Y-76713234D01*
X68841421Y-76713233D01*
X68845051Y-76708868D01*
X68949446Y-76522457D01*
X69018122Y-76320143D01*
X69048780Y-76108701D01*
X69050380Y-76047600D01*
X69030830Y-75834844D01*
X68972836Y-75629213D01*
X68970324Y-75624119D01*
X68970322Y-75624114D01*
X68911192Y-75504211D01*
X68878340Y-75437593D01*
X68750507Y-75266403D01*
X68746337Y-75262548D01*
X68746334Y-75262545D01*
X68597793Y-75125236D01*
X68597791Y-75125235D01*
X68593617Y-75121376D01*
X68412925Y-75007368D01*
X68214482Y-74928197D01*
X68208901Y-74927087D01*
X68208898Y-74927086D01*
X68133982Y-74912185D01*
X68067554Y-74898972D01*
X68005644Y-74866588D01*
X67971070Y-74805872D01*
X67974809Y-74736103D01*
X68015675Y-74679430D01*
X68073952Y-74654638D01*
X68094750Y-74651622D01*
X68155443Y-74642822D01*
X68259040Y-74607656D01*
X68352367Y-74575976D01*
X68352370Y-74575975D01*
X68357757Y-74574146D01*
X68544168Y-74469751D01*
X68637239Y-74392345D01*
X68704066Y-74336765D01*
X68708433Y-74333133D01*
X68764418Y-74265818D01*
X68841420Y-74173234D01*
X68841421Y-74173233D01*
X68845051Y-74168868D01*
X68871348Y-74121911D01*
X68921280Y-74073038D01*
X68979538Y-74058500D01*
X87741969Y-74058500D01*
X87809008Y-74078185D01*
X87829650Y-74094819D01*
X89056830Y-75321999D01*
X89060425Y-75325748D01*
X89100484Y-75369312D01*
X89107671Y-75373768D01*
X89107672Y-75373769D01*
X89135638Y-75391108D01*
X89145265Y-75397724D01*
X89178204Y-75422727D01*
X89186068Y-75425840D01*
X89186067Y-75425840D01*
X89191243Y-75427890D01*
X89210931Y-75437792D01*
X89222850Y-75445182D01*
X89230966Y-75447540D01*
X89262572Y-75456723D01*
X89273619Y-75460505D01*
X89312072Y-75475729D01*
X89320480Y-75476613D01*
X89320485Y-75476614D01*
X89326019Y-75477196D01*
X89347646Y-75481439D01*
X89354868Y-75483537D01*
X89361112Y-75485351D01*
X89368311Y-75485880D01*
X89369037Y-75485933D01*
X89369039Y-75485933D01*
X89371312Y-75486100D01*
X89404242Y-75486100D01*
X89417204Y-75486779D01*
X89455261Y-75490779D01*
X89463597Y-75489369D01*
X89463601Y-75489369D01*
X89472661Y-75487837D01*
X89493340Y-75486100D01*
X89531569Y-75486100D01*
X89598608Y-75505785D01*
X89644363Y-75558589D01*
X89654307Y-75627747D01*
X89649991Y-75646871D01*
X89600932Y-75804867D01*
X89575820Y-76017039D01*
X89576192Y-76022715D01*
X89576192Y-76022718D01*
X89581589Y-76105060D01*
X89589794Y-76230234D01*
X89642385Y-76437313D01*
X89731833Y-76631340D01*
X89855141Y-76805818D01*
X90008181Y-76954902D01*
X90012909Y-76958061D01*
X90012910Y-76958062D01*
X90041195Y-76976961D01*
X90185827Y-77073601D01*
X90382129Y-77157939D01*
X90462459Y-77176116D01*
X90557898Y-77197712D01*
X90618940Y-77231706D01*
X90651913Y-77293306D01*
X90646348Y-77362954D01*
X90604012Y-77418537D01*
X90551531Y-77440863D01*
X90513899Y-77447329D01*
X90446331Y-77458939D01*
X90446328Y-77458940D01*
X90440734Y-77459901D01*
X90240287Y-77533850D01*
X90235409Y-77536752D01*
X90235407Y-77536753D01*
X90061556Y-77640183D01*
X90061553Y-77640185D01*
X90056672Y-77643089D01*
X90052399Y-77646836D01*
X90052398Y-77646837D01*
X90004349Y-77688975D01*
X89896040Y-77783960D01*
X89892525Y-77788419D01*
X89892522Y-77788422D01*
X89767286Y-77947283D01*
X89767283Y-77947287D01*
X89763769Y-77951745D01*
X89664289Y-78140825D01*
X89662603Y-78146256D01*
X89662601Y-78146260D01*
X89602618Y-78339436D01*
X89600932Y-78344867D01*
X89600265Y-78350507D01*
X89600264Y-78350509D01*
X89582837Y-78497756D01*
X89575820Y-78557039D01*
X89576192Y-78562715D01*
X89576192Y-78562718D01*
X89581589Y-78645060D01*
X89589794Y-78770234D01*
X89642385Y-78977313D01*
X89644761Y-78982467D01*
X89706478Y-79116340D01*
X89731833Y-79171340D01*
X89855141Y-79345818D01*
X90008181Y-79494902D01*
X90185827Y-79613601D01*
X90382129Y-79697939D01*
X90429818Y-79708730D01*
X90557898Y-79737712D01*
X90618940Y-79771706D01*
X90651913Y-79833306D01*
X90646348Y-79902954D01*
X90604012Y-79958537D01*
X90551531Y-79980863D01*
X90518019Y-79986621D01*
X90446331Y-79998939D01*
X90446328Y-79998940D01*
X90440734Y-79999901D01*
X90240287Y-80073850D01*
X90235409Y-80076752D01*
X90235407Y-80076753D01*
X90061556Y-80180183D01*
X90061553Y-80180185D01*
X90056672Y-80183089D01*
X90052399Y-80186836D01*
X90052398Y-80186837D01*
X90032148Y-80204596D01*
X89896040Y-80323960D01*
X89892525Y-80328419D01*
X89892522Y-80328422D01*
X89767286Y-80487283D01*
X89767283Y-80487287D01*
X89763769Y-80491745D01*
X89664289Y-80680825D01*
X89662603Y-80686256D01*
X89662601Y-80686260D01*
X89611994Y-80849241D01*
X89600932Y-80884867D01*
X89600265Y-80890507D01*
X89600264Y-80890509D01*
X89590585Y-80972293D01*
X89575820Y-81097039D01*
X89576192Y-81102715D01*
X89576192Y-81102718D01*
X89581589Y-81185060D01*
X89589794Y-81310234D01*
X89642385Y-81517313D01*
X89644761Y-81522467D01*
X89725217Y-81696988D01*
X89731833Y-81711340D01*
X89855141Y-81885818D01*
X90008181Y-82034902D01*
X90012909Y-82038061D01*
X90012910Y-82038062D01*
X90044815Y-82059380D01*
X90185827Y-82153601D01*
X90382129Y-82237939D01*
X90484012Y-82260993D01*
X90557898Y-82277712D01*
X90618940Y-82311706D01*
X90651913Y-82373306D01*
X90646348Y-82442954D01*
X90604012Y-82498537D01*
X90551531Y-82520863D01*
X90503338Y-82529144D01*
X90446331Y-82538939D01*
X90446328Y-82538940D01*
X90440734Y-82539901D01*
X90240287Y-82613850D01*
X90235409Y-82616752D01*
X90235407Y-82616753D01*
X90061556Y-82720183D01*
X90061553Y-82720185D01*
X90056672Y-82723089D01*
X89896040Y-82863960D01*
X89892525Y-82868419D01*
X89892522Y-82868422D01*
X89767286Y-83027283D01*
X89767283Y-83027287D01*
X89763769Y-83031745D01*
X89664289Y-83220825D01*
X89662603Y-83226256D01*
X89662601Y-83226260D01*
X89606769Y-83406068D01*
X89600932Y-83424867D01*
X89600265Y-83430507D01*
X89600264Y-83430509D01*
X89590288Y-83514802D01*
X89575820Y-83637039D01*
X89576192Y-83642715D01*
X89576192Y-83642718D01*
X89579800Y-83697756D01*
X89589794Y-83850234D01*
X89642385Y-84057313D01*
X89731833Y-84251340D01*
X89855141Y-84425818D01*
X90008181Y-84574902D01*
X90185827Y-84693601D01*
X90382129Y-84777939D01*
X90484012Y-84800993D01*
X90557898Y-84817712D01*
X90618940Y-84851706D01*
X90651913Y-84913306D01*
X90646348Y-84982954D01*
X90604012Y-85038537D01*
X90551531Y-85060863D01*
X90503338Y-85069144D01*
X90446331Y-85078939D01*
X90446328Y-85078940D01*
X90440734Y-85079901D01*
X90240287Y-85153850D01*
X90235409Y-85156752D01*
X90235407Y-85156753D01*
X90061556Y-85260183D01*
X90061553Y-85260185D01*
X90056672Y-85263089D01*
X89896040Y-85403960D01*
X89892525Y-85408419D01*
X89892522Y-85408422D01*
X89767286Y-85567283D01*
X89767283Y-85567287D01*
X89763769Y-85571745D01*
X89664289Y-85760825D01*
X89662603Y-85766256D01*
X89662601Y-85766260D01*
X89602618Y-85959436D01*
X89600932Y-85964867D01*
X89600265Y-85970507D01*
X89600264Y-85970509D01*
X89584205Y-86106198D01*
X89575820Y-86177039D01*
X89576192Y-86182715D01*
X89576192Y-86182718D01*
X89587800Y-86359818D01*
X89589794Y-86390234D01*
X89642385Y-86597313D01*
X89731833Y-86791340D01*
X89855141Y-86965818D01*
X90008181Y-87114902D01*
X90185827Y-87233601D01*
X90382129Y-87317939D01*
X90484012Y-87340993D01*
X90557898Y-87357712D01*
X90618940Y-87391706D01*
X90651913Y-87453306D01*
X90646348Y-87522954D01*
X90604012Y-87578537D01*
X90551531Y-87600863D01*
X90503338Y-87609144D01*
X90446331Y-87618939D01*
X90446328Y-87618940D01*
X90440734Y-87619901D01*
X90240287Y-87693850D01*
X90235409Y-87696752D01*
X90235407Y-87696753D01*
X90061556Y-87800183D01*
X90061553Y-87800185D01*
X90056672Y-87803089D01*
X89896040Y-87943960D01*
X89892525Y-87948419D01*
X89892522Y-87948422D01*
X89767286Y-88107283D01*
X89767283Y-88107287D01*
X89763769Y-88111745D01*
X89664289Y-88300825D01*
X89662603Y-88306256D01*
X89662601Y-88306260D01*
X89636971Y-88388803D01*
X89600932Y-88504867D01*
X89600265Y-88510507D01*
X89600264Y-88510509D01*
X89589552Y-88601021D01*
X89575820Y-88717039D01*
X89576192Y-88722715D01*
X89576192Y-88722718D01*
X89584845Y-88854731D01*
X89589794Y-88930234D01*
X89642385Y-89137313D01*
X89644761Y-89142467D01*
X89661326Y-89178398D01*
X89731833Y-89331340D01*
X89855141Y-89505818D01*
X90008181Y-89654902D01*
X90012909Y-89658061D01*
X90012910Y-89658062D01*
X90021459Y-89663774D01*
X90185827Y-89773601D01*
X90356814Y-89847063D01*
X90410638Y-89891611D01*
X90431833Y-89958188D01*
X90413670Y-90025656D01*
X90361914Y-90072593D01*
X90339959Y-90080767D01*
X90312102Y-90088231D01*
X90301969Y-90091920D01*
X90110386Y-90181257D01*
X90101036Y-90186655D01*
X90053574Y-90219889D01*
X90045332Y-90230200D01*
X90052288Y-90243434D01*
X90730293Y-90921440D01*
X90744013Y-90928932D01*
X90745818Y-90928803D01*
X90752327Y-90924620D01*
X91434224Y-90242722D01*
X91440551Y-90231136D01*
X91431403Y-90219312D01*
X91384764Y-90186654D01*
X91375418Y-90181258D01*
X91183831Y-90091920D01*
X91173700Y-90088232D01*
X91141922Y-90079717D01*
X91082262Y-90043351D01*
X91051734Y-89980504D01*
X91060029Y-89911128D01*
X91104515Y-89857251D01*
X91134149Y-89842527D01*
X91217757Y-89814146D01*
X91404168Y-89709751D01*
X91444954Y-89675830D01*
X91564066Y-89576765D01*
X91568433Y-89573133D01*
X91624418Y-89505818D01*
X91701420Y-89413234D01*
X91701421Y-89413233D01*
X91705051Y-89408868D01*
X91809446Y-89222457D01*
X91820963Y-89188531D01*
X91844082Y-89120421D01*
X91878122Y-89020143D01*
X91884783Y-88974208D01*
X91908257Y-88812307D01*
X91908780Y-88808701D01*
X91910380Y-88747600D01*
X91890830Y-88534844D01*
X91832836Y-88329213D01*
X91830324Y-88324119D01*
X91830322Y-88324114D01*
X91784411Y-88231016D01*
X91738340Y-88137593D01*
X91610507Y-87966403D01*
X91606337Y-87962548D01*
X91606334Y-87962545D01*
X91457793Y-87825236D01*
X91457791Y-87825235D01*
X91453617Y-87821376D01*
X91388807Y-87780484D01*
X91277734Y-87710402D01*
X91277732Y-87710401D01*
X91272925Y-87707368D01*
X91074482Y-87628197D01*
X91068901Y-87627087D01*
X91068898Y-87627086D01*
X90983355Y-87610071D01*
X90927554Y-87598972D01*
X90865644Y-87566588D01*
X90831070Y-87505872D01*
X90834809Y-87436103D01*
X90875675Y-87379430D01*
X90933952Y-87354638D01*
X90954827Y-87351611D01*
X91015443Y-87342822D01*
X91134164Y-87302522D01*
X91212367Y-87275976D01*
X91212370Y-87275975D01*
X91217757Y-87274146D01*
X91404168Y-87169751D01*
X91568433Y-87033133D01*
X91624418Y-86965818D01*
X91701420Y-86873234D01*
X91701421Y-86873233D01*
X91705051Y-86868868D01*
X91809446Y-86682457D01*
X91878122Y-86480143D01*
X91886683Y-86421103D01*
X91908257Y-86272307D01*
X91908780Y-86268701D01*
X91910380Y-86207600D01*
X91890830Y-85994844D01*
X91832836Y-85789213D01*
X91830324Y-85784119D01*
X91830322Y-85784114D01*
X91770639Y-85663090D01*
X91738340Y-85597593D01*
X91610507Y-85426403D01*
X91606337Y-85422548D01*
X91606334Y-85422545D01*
X91457793Y-85285236D01*
X91457791Y-85285235D01*
X91453617Y-85281376D01*
X91272925Y-85167368D01*
X91074482Y-85088197D01*
X91068901Y-85087087D01*
X91068898Y-85087086D01*
X90993982Y-85072185D01*
X90927554Y-85058972D01*
X90865644Y-85026588D01*
X90831070Y-84965872D01*
X90834809Y-84896103D01*
X90875675Y-84839430D01*
X90933952Y-84814638D01*
X90954750Y-84811622D01*
X91015443Y-84802822D01*
X91119040Y-84767656D01*
X91212367Y-84735976D01*
X91212370Y-84735975D01*
X91217757Y-84734146D01*
X91365686Y-84651302D01*
X91399215Y-84632525D01*
X91399217Y-84632524D01*
X91404168Y-84629751D01*
X91568433Y-84493133D01*
X91624418Y-84425818D01*
X91701420Y-84333234D01*
X91701421Y-84333233D01*
X91705051Y-84328868D01*
X91809446Y-84142457D01*
X91878122Y-83940143D01*
X91879285Y-83932126D01*
X91908257Y-83732307D01*
X91908780Y-83728701D01*
X91910380Y-83667600D01*
X91890830Y-83454844D01*
X91832836Y-83249213D01*
X91830324Y-83244119D01*
X91830322Y-83244114D01*
X91781695Y-83145508D01*
X91738340Y-83057593D01*
X91610507Y-82886403D01*
X91606337Y-82882548D01*
X91606334Y-82882545D01*
X91457793Y-82745236D01*
X91457791Y-82745235D01*
X91453617Y-82741376D01*
X91272925Y-82627368D01*
X91074482Y-82548197D01*
X91068901Y-82547087D01*
X91068898Y-82547086D01*
X90993982Y-82532185D01*
X90927554Y-82518972D01*
X90865644Y-82486588D01*
X90831070Y-82425872D01*
X90834809Y-82356103D01*
X90875675Y-82299430D01*
X90933952Y-82274638D01*
X90954750Y-82271622D01*
X91015443Y-82262822D01*
X91119040Y-82227656D01*
X91212367Y-82195976D01*
X91212370Y-82195975D01*
X91217757Y-82194146D01*
X91404168Y-82089751D01*
X91568433Y-81953133D01*
X91624418Y-81885818D01*
X91701420Y-81793234D01*
X91701421Y-81793233D01*
X91705051Y-81788868D01*
X91724265Y-81754560D01*
X91777132Y-81660158D01*
X91809446Y-81602457D01*
X91819596Y-81572558D01*
X91854662Y-81469253D01*
X91878122Y-81400143D01*
X91908780Y-81188701D01*
X91910380Y-81127600D01*
X91890830Y-80914844D01*
X91832836Y-80709213D01*
X91830324Y-80704119D01*
X91830322Y-80704114D01*
X91776931Y-80595849D01*
X91738340Y-80517593D01*
X91610507Y-80346403D01*
X91606337Y-80342548D01*
X91606334Y-80342545D01*
X91457793Y-80205236D01*
X91457791Y-80205235D01*
X91453617Y-80201376D01*
X91444309Y-80195503D01*
X91277734Y-80090402D01*
X91277732Y-80090401D01*
X91272925Y-80087368D01*
X91074482Y-80008197D01*
X91068901Y-80007087D01*
X91068898Y-80007086D01*
X90978298Y-79989065D01*
X90927554Y-79978972D01*
X90865644Y-79946588D01*
X90831070Y-79885872D01*
X90834809Y-79816103D01*
X90875675Y-79759430D01*
X90933952Y-79734638D01*
X90954750Y-79731622D01*
X91015443Y-79722822D01*
X91130181Y-79683874D01*
X91212367Y-79655976D01*
X91212370Y-79655975D01*
X91217757Y-79654146D01*
X91329759Y-79591422D01*
X91399215Y-79552525D01*
X91399217Y-79552524D01*
X91404168Y-79549751D01*
X91423695Y-79533511D01*
X91564066Y-79416765D01*
X91568433Y-79413133D01*
X91601789Y-79373027D01*
X91701420Y-79253234D01*
X91701421Y-79253233D01*
X91705051Y-79248868D01*
X91748537Y-79171219D01*
X91806667Y-79067419D01*
X91809446Y-79062457D01*
X91820076Y-79031144D01*
X91876293Y-78865530D01*
X91878122Y-78860143D01*
X91908780Y-78648701D01*
X91910380Y-78587600D01*
X91890830Y-78374844D01*
X91832836Y-78169213D01*
X91830324Y-78164119D01*
X91830322Y-78164114D01*
X91763889Y-78029402D01*
X91738340Y-77977593D01*
X91610507Y-77806403D01*
X91606337Y-77802548D01*
X91606334Y-77802545D01*
X91457793Y-77665236D01*
X91457791Y-77665235D01*
X91453617Y-77661376D01*
X91420028Y-77640183D01*
X91277734Y-77550402D01*
X91277732Y-77550401D01*
X91272925Y-77547368D01*
X91074482Y-77468197D01*
X91068901Y-77467087D01*
X91068898Y-77467086D01*
X90969570Y-77447329D01*
X90927554Y-77438972D01*
X90865644Y-77406588D01*
X90831070Y-77345872D01*
X90834809Y-77276103D01*
X90875675Y-77219430D01*
X90933952Y-77194638D01*
X90954750Y-77191622D01*
X91015443Y-77182822D01*
X91119040Y-77147656D01*
X91212367Y-77115976D01*
X91212370Y-77115975D01*
X91217757Y-77114146D01*
X91363363Y-77032603D01*
X91399215Y-77012525D01*
X91399217Y-77012524D01*
X91404168Y-77009751D01*
X91443284Y-76977219D01*
X91564066Y-76876765D01*
X91568433Y-76873133D01*
X91624418Y-76805818D01*
X91701420Y-76713234D01*
X91701421Y-76713233D01*
X91705051Y-76708868D01*
X91809446Y-76522457D01*
X91878122Y-76320143D01*
X91908780Y-76108701D01*
X91910380Y-76047600D01*
X91890830Y-75834844D01*
X91836938Y-75643758D01*
X91837686Y-75573893D01*
X91876087Y-75515523D01*
X91939950Y-75487180D01*
X91956282Y-75486100D01*
X94020969Y-75486100D01*
X94088008Y-75505785D01*
X94108650Y-75522419D01*
X96036854Y-77450623D01*
X96070339Y-77511946D01*
X96065355Y-77581638D01*
X96023483Y-77637571D01*
X95958902Y-77661922D01*
X95904597Y-77666195D01*
X95837548Y-77671472D01*
X95837544Y-77671473D01*
X95832698Y-77671854D01*
X95724112Y-77697924D01*
X95600126Y-77727690D01*
X95600120Y-77727692D01*
X95595388Y-77728828D01*
X95590887Y-77730692D01*
X95590882Y-77730694D01*
X95451514Y-77788422D01*
X95369911Y-77822223D01*
X95161821Y-77949741D01*
X94976241Y-78108241D01*
X94817741Y-78293821D01*
X94815193Y-78297979D01*
X94758940Y-78389776D01*
X94690223Y-78501911D01*
X94596828Y-78727388D01*
X94539854Y-78964698D01*
X94539473Y-78969542D01*
X94539472Y-78969547D01*
X94527920Y-79116340D01*
X94520706Y-79208000D01*
X94521088Y-79212854D01*
X94539221Y-79443254D01*
X94539854Y-79451302D01*
X94555619Y-79516966D01*
X94595142Y-79681589D01*
X94596828Y-79688612D01*
X94598692Y-79693113D01*
X94598694Y-79693118D01*
X94640143Y-79793185D01*
X94690223Y-79914089D01*
X94692768Y-79918242D01*
X94692769Y-79918244D01*
X94748432Y-80009077D01*
X94817741Y-80122179D01*
X94976241Y-80307759D01*
X95161821Y-80466259D01*
X95165979Y-80468807D01*
X95316290Y-80560918D01*
X95363165Y-80612730D01*
X95375500Y-80666645D01*
X95375500Y-88533982D01*
X95355815Y-88601021D01*
X95339181Y-88621663D01*
X92159627Y-91801217D01*
X92098304Y-91834702D01*
X92028612Y-91829718D01*
X91972679Y-91787846D01*
X91948262Y-91722382D01*
X91952171Y-91681443D01*
X91996980Y-91514211D01*
X91998855Y-91503577D01*
X92017279Y-91292995D01*
X92017279Y-91282205D01*
X91998855Y-91071623D01*
X91996981Y-91060992D01*
X91942269Y-90856802D01*
X91938580Y-90846669D01*
X91849243Y-90655086D01*
X91843845Y-90645736D01*
X91810611Y-90598274D01*
X91800300Y-90590032D01*
X91787066Y-90596988D01*
X91096453Y-91287600D01*
X90742900Y-91641153D01*
X90051576Y-92332478D01*
X90045250Y-92344064D01*
X90054398Y-92355889D01*
X90101036Y-92388546D01*
X90110382Y-92393942D01*
X90301969Y-92483280D01*
X90312105Y-92486969D01*
X90343949Y-92495502D01*
X90403610Y-92531867D01*
X90434139Y-92594713D01*
X90425845Y-92664089D01*
X90381360Y-92717967D01*
X90354775Y-92731613D01*
X90240287Y-92773850D01*
X90235409Y-92776752D01*
X90235407Y-92776753D01*
X90061556Y-92880183D01*
X90061553Y-92880185D01*
X90056672Y-92883089D01*
X89896040Y-93023960D01*
X89892525Y-93028419D01*
X89892522Y-93028422D01*
X89767286Y-93187283D01*
X89767283Y-93187287D01*
X89763769Y-93191745D01*
X89664289Y-93380825D01*
X89662603Y-93386256D01*
X89662601Y-93386260D01*
X89614744Y-93540384D01*
X89600932Y-93584867D01*
X89600265Y-93590507D01*
X89600264Y-93590509D01*
X89578342Y-93775733D01*
X89575820Y-93797039D01*
X89576192Y-93802715D01*
X89576192Y-93802718D01*
X89584890Y-93935419D01*
X89589794Y-94010234D01*
X89642385Y-94217313D01*
X89731833Y-94411340D01*
X89855141Y-94585818D01*
X90008181Y-94734902D01*
X90185827Y-94853601D01*
X90382129Y-94937939D01*
X90484021Y-94960995D01*
X90584966Y-94983837D01*
X90584968Y-94983837D01*
X90590513Y-94985092D01*
X90767872Y-94992060D01*
X90798324Y-94993257D01*
X90798325Y-94993257D01*
X90804001Y-94993480D01*
X90807847Y-94992922D01*
X90875258Y-95008940D01*
X90923711Y-95059280D01*
X90937257Y-95127824D01*
X90911594Y-95192810D01*
X90901449Y-95204295D01*
X90738540Y-95367203D01*
X90584562Y-95521181D01*
X90523239Y-95554666D01*
X90496881Y-95557500D01*
X70985019Y-95557500D01*
X70917980Y-95537815D01*
X70897338Y-95521181D01*
X69066468Y-93690311D01*
X69032226Y-93625229D01*
X69031350Y-93620502D01*
X69030830Y-93614844D01*
X69027788Y-93604056D01*
X68986562Y-93457882D01*
X68972836Y-93409213D01*
X68970324Y-93404119D01*
X68970322Y-93404114D01*
X68913276Y-93288436D01*
X68878340Y-93217593D01*
X68750507Y-93046403D01*
X68746337Y-93042548D01*
X68746334Y-93042545D01*
X68597793Y-92905236D01*
X68597791Y-92905235D01*
X68593617Y-92901376D01*
X68412925Y-92787368D01*
X68269346Y-92730086D01*
X68214375Y-92686962D01*
X68191445Y-92620963D01*
X68207836Y-92553043D01*
X68258346Y-92504767D01*
X68283202Y-92495140D01*
X68313700Y-92486968D01*
X68323831Y-92483280D01*
X68515418Y-92393942D01*
X68524764Y-92388546D01*
X68572226Y-92355312D01*
X68580469Y-92345000D01*
X68573513Y-92331767D01*
X67895507Y-91653760D01*
X67881787Y-91646268D01*
X67879982Y-91646397D01*
X67873473Y-91650580D01*
X67191576Y-92332478D01*
X67185249Y-92344064D01*
X67194397Y-92355888D01*
X67241036Y-92388546D01*
X67250382Y-92393942D01*
X67441969Y-92483280D01*
X67452105Y-92486969D01*
X67483949Y-92495502D01*
X67543610Y-92531867D01*
X67574139Y-92594713D01*
X67565845Y-92664089D01*
X67521360Y-92717967D01*
X67494775Y-92731613D01*
X67380287Y-92773850D01*
X67375409Y-92776752D01*
X67375407Y-92776753D01*
X67201556Y-92880183D01*
X67201553Y-92880185D01*
X67196672Y-92883089D01*
X67036040Y-93023960D01*
X67032525Y-93028419D01*
X67032522Y-93028422D01*
X66907286Y-93187283D01*
X66907283Y-93187287D01*
X66903769Y-93191745D01*
X66804289Y-93380825D01*
X66802603Y-93386256D01*
X66802601Y-93386260D01*
X66754744Y-93540384D01*
X66740932Y-93584867D01*
X66740265Y-93590507D01*
X66740264Y-93590509D01*
X66718342Y-93775733D01*
X66715820Y-93797039D01*
X66716192Y-93802715D01*
X66716192Y-93802718D01*
X66724890Y-93935419D01*
X66729794Y-94010234D01*
X66782385Y-94217313D01*
X66871833Y-94411340D01*
X66995141Y-94585818D01*
X67148181Y-94734902D01*
X67325827Y-94853601D01*
X67522129Y-94937939D01*
X67624021Y-94960995D01*
X67724966Y-94983837D01*
X67724968Y-94983837D01*
X67730513Y-94985092D01*
X67863424Y-94990314D01*
X67938321Y-94993257D01*
X67938323Y-94993257D01*
X67944001Y-94993480D01*
X67949621Y-94992665D01*
X67949624Y-94992665D01*
X68149822Y-94963637D01*
X68155443Y-94962822D01*
X68160823Y-94960996D01*
X68160826Y-94960995D01*
X68233402Y-94936359D01*
X68303211Y-94933450D01*
X68360941Y-94966097D01*
X69245329Y-95850486D01*
X70127969Y-96733126D01*
X70133729Y-96739292D01*
X70171331Y-96782396D01*
X70223021Y-96818724D01*
X70228223Y-96822588D01*
X70272071Y-96856970D01*
X70272078Y-96856974D01*
X70277957Y-96861584D01*
X70284772Y-96864661D01*
X70286739Y-96865852D01*
X70301877Y-96874487D01*
X70303931Y-96875588D01*
X70310047Y-96879887D01*
X70317013Y-96882603D01*
X70368912Y-96902838D01*
X70374889Y-96905350D01*
X70432484Y-96931355D01*
X70439839Y-96932718D01*
X70442049Y-96933411D01*
X70458787Y-96938179D01*
X70461040Y-96938758D01*
X70468013Y-96941476D01*
X70475429Y-96942452D01*
X70475432Y-96942453D01*
X70530645Y-96949721D01*
X70537059Y-96950737D01*
X70591832Y-96960889D01*
X70591841Y-96960890D01*
X70599192Y-96962252D01*
X70660696Y-96958706D01*
X70667833Y-96958500D01*
X90809822Y-96958500D01*
X90818256Y-96958787D01*
X90875330Y-96962678D01*
X90905597Y-96957395D01*
X90937559Y-96951817D01*
X90943982Y-96950868D01*
X90999299Y-96944174D01*
X91006720Y-96943276D01*
X91013712Y-96940634D01*
X91015948Y-96940085D01*
X91032790Y-96935477D01*
X91034992Y-96934812D01*
X91042354Y-96933527D01*
X91100206Y-96908132D01*
X91106208Y-96905683D01*
X91158334Y-96885986D01*
X91158335Y-96885986D01*
X91165323Y-96883345D01*
X91171480Y-96879114D01*
X91173505Y-96878055D01*
X91188767Y-96869560D01*
X91190753Y-96868386D01*
X91197602Y-96865379D01*
X91203532Y-96860829D01*
X91203535Y-96860827D01*
X91247738Y-96826908D01*
X91252990Y-96823093D01*
X91298887Y-96791549D01*
X91298890Y-96791546D01*
X91305051Y-96787312D01*
X91346049Y-96741297D01*
X91350951Y-96736105D01*
X92139470Y-95947586D01*
X95096014Y-95947586D01*
X95101246Y-95955065D01*
X95102596Y-95956046D01*
X95316797Y-96087308D01*
X95325461Y-96091723D01*
X95557565Y-96187864D01*
X95566801Y-96190865D01*
X95811096Y-96249515D01*
X95820682Y-96251033D01*
X96071146Y-96270745D01*
X96080854Y-96270745D01*
X96331318Y-96251033D01*
X96340904Y-96249515D01*
X96585199Y-96190865D01*
X96594435Y-96187864D01*
X96826539Y-96091723D01*
X96835203Y-96087308D01*
X97049285Y-95956119D01*
X97056058Y-95945743D01*
X97050147Y-95935700D01*
X96088607Y-94974160D01*
X96074887Y-94966668D01*
X96073081Y-94966797D01*
X96066574Y-94970979D01*
X95103288Y-95934265D01*
X95096014Y-95947586D01*
X92139470Y-95947586D01*
X94423151Y-93663905D01*
X94484474Y-93630420D01*
X94554166Y-93635404D01*
X94610099Y-93677276D01*
X94634516Y-93742740D01*
X94616560Y-93816375D01*
X94596690Y-93848801D01*
X94592277Y-93857461D01*
X94496136Y-94089565D01*
X94493135Y-94098801D01*
X94434485Y-94343096D01*
X94432967Y-94352682D01*
X94413255Y-94603146D01*
X94413255Y-94612854D01*
X94432967Y-94863318D01*
X94434485Y-94872904D01*
X94493135Y-95117199D01*
X94496136Y-95126435D01*
X94592277Y-95358539D01*
X94596692Y-95367203D01*
X94727881Y-95581285D01*
X94738257Y-95588058D01*
X94748300Y-95582147D01*
X97048712Y-93281735D01*
X97055986Y-93268414D01*
X97050754Y-93260935D01*
X97049404Y-93259954D01*
X96835203Y-93128692D01*
X96826539Y-93124277D01*
X96594435Y-93028136D01*
X96585199Y-93025135D01*
X96340904Y-92966485D01*
X96331318Y-92964967D01*
X96080854Y-92945255D01*
X96071146Y-92945255D01*
X95820682Y-92964967D01*
X95811096Y-92966485D01*
X95566801Y-93025135D01*
X95557565Y-93028136D01*
X95325461Y-93124277D01*
X95316803Y-93128688D01*
X95284378Y-93148559D01*
X95216932Y-93166804D01*
X95150329Y-93145688D01*
X95105716Y-93091917D01*
X95097255Y-93022561D01*
X95131906Y-92955151D01*
X99009038Y-89078019D01*
X99070361Y-89044534D01*
X99096719Y-89041700D01*
X100359466Y-89041700D01*
X100415373Y-89055019D01*
X100418194Y-89056444D01*
X100423989Y-89060236D01*
X100592316Y-89122836D01*
X100770330Y-89146588D01*
X100777231Y-89145960D01*
X100777233Y-89145960D01*
X100942281Y-89130940D01*
X100942282Y-89130940D01*
X100949181Y-89130312D01*
X100955767Y-89128172D01*
X100955777Y-89128170D01*
X100966788Y-89124592D01*
X101036629Y-89122597D01*
X101092786Y-89154842D01*
X102911500Y-90973557D01*
X104644262Y-92706319D01*
X104674242Y-92754860D01*
X104704126Y-92844696D01*
X104707719Y-92850629D01*
X104707720Y-92850631D01*
X104789510Y-92985682D01*
X104797159Y-92998312D01*
X104921914Y-93127499D01*
X104927708Y-93131290D01*
X104927711Y-93131293D01*
X104950602Y-93146272D01*
X105072189Y-93225836D01*
X105078684Y-93228251D01*
X105078685Y-93228252D01*
X105098161Y-93235495D01*
X105240516Y-93288436D01*
X105418530Y-93312188D01*
X105425431Y-93311560D01*
X105425433Y-93311560D01*
X105536471Y-93301455D01*
X105597381Y-93295912D01*
X105768182Y-93240415D01*
X105794395Y-93224789D01*
X105857888Y-93207300D01*
X110018773Y-93207300D01*
X110085812Y-93226985D01*
X110131567Y-93279789D01*
X110141511Y-93348947D01*
X110112486Y-93412503D01*
X110058734Y-93448685D01*
X110056455Y-93449461D01*
X109893007Y-93505103D01*
X109887105Y-93508734D01*
X109754182Y-93590509D01*
X109740045Y-93599206D01*
X109665525Y-93672181D01*
X109664592Y-93673095D01*
X109602922Y-93705936D01*
X109577834Y-93708500D01*
X101495982Y-93708500D01*
X101428943Y-93688815D01*
X101407996Y-93671875D01*
X101371778Y-93635404D01*
X101342770Y-93606193D01*
X101191136Y-93509963D01*
X101171217Y-93502870D01*
X101028479Y-93452043D01*
X101028475Y-93452042D01*
X101021951Y-93449719D01*
X100843624Y-93428455D01*
X100836735Y-93429179D01*
X100836732Y-93429179D01*
X100671913Y-93446502D01*
X100671911Y-93446502D01*
X100665017Y-93447227D01*
X100658456Y-93449461D01*
X100658454Y-93449461D01*
X100582024Y-93475480D01*
X100495007Y-93505103D01*
X100489105Y-93508734D01*
X100356182Y-93590509D01*
X100342045Y-93599206D01*
X100213732Y-93724859D01*
X100183243Y-93772169D01*
X100128276Y-93857461D01*
X100116446Y-93875817D01*
X100055022Y-94044578D01*
X100032514Y-94222753D01*
X100033191Y-94229655D01*
X100039784Y-94296900D01*
X100026735Y-94365540D01*
X99978648Y-94416230D01*
X99916376Y-94433000D01*
X99291532Y-94433000D01*
X99224493Y-94413315D01*
X99203851Y-94396681D01*
X99012744Y-94205574D01*
X98979259Y-94144251D01*
X98976437Y-94116161D01*
X98976511Y-94110898D01*
X98976511Y-94110891D01*
X98976565Y-94107000D01*
X98956546Y-93928528D01*
X98897485Y-93758927D01*
X98802316Y-93606625D01*
X98701500Y-93505103D01*
X98680653Y-93484110D01*
X98680652Y-93484109D01*
X98675770Y-93479193D01*
X98524136Y-93382963D01*
X98503989Y-93375789D01*
X98361479Y-93325043D01*
X98361475Y-93325042D01*
X98354951Y-93322719D01*
X98176624Y-93301455D01*
X98169735Y-93302179D01*
X98169732Y-93302179D01*
X98004913Y-93319502D01*
X98004911Y-93319502D01*
X97998017Y-93320227D01*
X97991456Y-93322461D01*
X97991454Y-93322461D01*
X97926510Y-93344570D01*
X97828007Y-93378103D01*
X97822105Y-93381734D01*
X97689517Y-93463303D01*
X97675045Y-93472206D01*
X97546732Y-93597859D01*
X97544632Y-93595715D01*
X97497958Y-93627676D01*
X97428118Y-93629719D01*
X97423715Y-93627767D01*
X97414156Y-93627699D01*
X97403700Y-93633853D01*
X96442160Y-94595393D01*
X96434668Y-94609113D01*
X96434797Y-94610919D01*
X96438979Y-94617426D01*
X97402265Y-95580712D01*
X97415586Y-95587986D01*
X97423065Y-95582754D01*
X97424046Y-95581404D01*
X97555308Y-95367203D01*
X97559723Y-95358539D01*
X97655864Y-95126435D01*
X97658865Y-95117199D01*
X97702582Y-94935101D01*
X97737372Y-94874509D01*
X97799399Y-94842345D01*
X97866378Y-94847825D01*
X97976116Y-94888636D01*
X98154130Y-94912388D01*
X98161031Y-94911760D01*
X98161032Y-94911760D01*
X98163246Y-94911558D01*
X98168776Y-94911055D01*
X98237322Y-94924582D01*
X98267695Y-94946864D01*
X98640730Y-95319899D01*
X98644325Y-95323648D01*
X98684384Y-95367212D01*
X98691569Y-95371667D01*
X98719532Y-95389005D01*
X98729148Y-95395612D01*
X98762104Y-95420628D01*
X98775144Y-95425791D01*
X98794830Y-95435691D01*
X98806750Y-95443082D01*
X98814865Y-95445439D01*
X98814866Y-95445440D01*
X98826775Y-95448899D01*
X98846466Y-95454620D01*
X98857517Y-95458404D01*
X98888110Y-95470517D01*
X98888112Y-95470517D01*
X98895973Y-95473630D01*
X98904378Y-95474513D01*
X98904381Y-95474514D01*
X98909913Y-95475095D01*
X98931554Y-95479341D01*
X98938772Y-95481438D01*
X98945012Y-95483251D01*
X98951487Y-95483726D01*
X98951490Y-95483727D01*
X98952937Y-95483833D01*
X98952939Y-95483833D01*
X98955212Y-95484000D01*
X98988133Y-95484000D01*
X99001095Y-95484679D01*
X99039162Y-95488680D01*
X99052838Y-95486367D01*
X99056563Y-95485737D01*
X99077242Y-95484000D01*
X101693582Y-95484000D01*
X101760621Y-95503685D01*
X101806376Y-95556489D01*
X101816604Y-95623540D01*
X101811383Y-95664870D01*
X101810514Y-95671753D01*
X101811191Y-95678655D01*
X101825303Y-95822578D01*
X101828039Y-95850486D01*
X101884726Y-96020896D01*
X101888319Y-96026829D01*
X101888320Y-96026831D01*
X101974168Y-96168583D01*
X101977759Y-96174512D01*
X102102514Y-96303699D01*
X102108308Y-96307490D01*
X102108311Y-96307493D01*
X102178311Y-96353299D01*
X102252789Y-96402036D01*
X102421116Y-96464636D01*
X102599130Y-96488388D01*
X102606031Y-96487760D01*
X102606033Y-96487760D01*
X102713744Y-96477958D01*
X102777981Y-96472112D01*
X102948782Y-96416615D01*
X103103044Y-96324657D01*
X103137019Y-96292303D01*
X103199142Y-96260326D01*
X103222532Y-96258100D01*
X110949546Y-96258100D01*
X111016585Y-96277785D01*
X111038744Y-96295962D01*
X111094114Y-96353299D01*
X111099908Y-96357090D01*
X111099911Y-96357093D01*
X111168592Y-96402036D01*
X111244389Y-96451636D01*
X111250884Y-96454051D01*
X111250885Y-96454052D01*
X111301136Y-96472740D01*
X111412716Y-96514236D01*
X111590730Y-96537988D01*
X111597631Y-96537360D01*
X111597633Y-96537360D01*
X111744065Y-96524034D01*
X111769581Y-96521712D01*
X111940382Y-96466215D01*
X112094644Y-96374257D01*
X112113994Y-96355831D01*
X112180704Y-96292303D01*
X112242827Y-96260326D01*
X112266217Y-96258100D01*
X120295947Y-96258100D01*
X120301139Y-96258209D01*
X120351816Y-96260333D01*
X120360264Y-96260687D01*
X120368496Y-96258756D01*
X120368498Y-96258756D01*
X120400529Y-96251243D01*
X120412012Y-96249114D01*
X120428250Y-96246890D01*
X120444620Y-96244648D01*
X120444622Y-96244647D01*
X120452991Y-96243501D01*
X120460743Y-96240146D01*
X120460748Y-96240145D01*
X120465857Y-96237934D01*
X120486785Y-96231013D01*
X120492205Y-96229742D01*
X120492212Y-96229739D01*
X120500438Y-96227810D01*
X120507842Y-96223740D01*
X120507849Y-96223737D01*
X120536691Y-96207881D01*
X120547181Y-96202742D01*
X120577370Y-96189678D01*
X120577374Y-96189676D01*
X120585128Y-96186320D01*
X120591693Y-96181004D01*
X120591703Y-96180998D01*
X120596030Y-96177494D01*
X120614314Y-96165207D01*
X120620910Y-96161580D01*
X120620912Y-96161578D01*
X120626608Y-96158447D01*
X120631528Y-96154200D01*
X120636863Y-96150492D01*
X120638168Y-96152370D01*
X120692242Y-96127808D01*
X120703600Y-96127126D01*
X120704250Y-96127213D01*
X120708310Y-96126844D01*
X120708319Y-96126843D01*
X120832212Y-96115568D01*
X120883101Y-96110937D01*
X121053902Y-96055440D01*
X121208164Y-95963482D01*
X121217003Y-95955065D01*
X121333200Y-95844412D01*
X121333202Y-95844410D01*
X121338219Y-95839632D01*
X121437603Y-95690047D01*
X121441931Y-95678655D01*
X121478918Y-95581285D01*
X121501377Y-95522161D01*
X121522527Y-95371667D01*
X121525829Y-95348175D01*
X121525829Y-95348174D01*
X121526371Y-95344318D01*
X121526685Y-95321825D01*
X121526250Y-95317945D01*
X121526226Y-95317459D01*
X121542610Y-95249538D01*
X121562397Y-95223717D01*
X123384599Y-93401515D01*
X123388348Y-93397920D01*
X123425688Y-93363584D01*
X123431912Y-93357861D01*
X123453708Y-93322708D01*
X123460321Y-93313086D01*
X123480216Y-93286875D01*
X123480216Y-93286874D01*
X123485328Y-93280140D01*
X123490489Y-93267106D01*
X123500392Y-93247415D01*
X123503326Y-93242684D01*
X123503330Y-93242676D01*
X123507782Y-93235495D01*
X123519321Y-93195778D01*
X123523104Y-93184728D01*
X123538330Y-93146272D01*
X123539795Y-93132332D01*
X123544041Y-93110691D01*
X123546138Y-93103473D01*
X123547951Y-93097233D01*
X123548700Y-93087033D01*
X123548700Y-93054112D01*
X123549379Y-93041150D01*
X123552496Y-93011492D01*
X123553380Y-93003083D01*
X123550437Y-92985682D01*
X123548700Y-92965003D01*
X123548700Y-90452726D01*
X123818001Y-90452726D01*
X123818364Y-90459431D01*
X123823908Y-90510477D01*
X123827478Y-90525488D01*
X123872727Y-90646190D01*
X123881126Y-90661532D01*
X123957798Y-90763835D01*
X123970165Y-90776202D01*
X124072468Y-90852874D01*
X124087810Y-90861273D01*
X124208515Y-90906524D01*
X124223518Y-90910091D01*
X124274573Y-90915637D01*
X124281271Y-90916000D01*
X125208170Y-90916000D01*
X125223169Y-90911596D01*
X125224356Y-90910226D01*
X125226000Y-90902668D01*
X125226000Y-89675830D01*
X125221596Y-89660831D01*
X125220226Y-89659644D01*
X125212668Y-89658000D01*
X123835831Y-89658000D01*
X123820832Y-89662404D01*
X123819645Y-89663774D01*
X123818001Y-89671332D01*
X123818001Y-90452726D01*
X123548700Y-90452726D01*
X123548700Y-89140170D01*
X123818000Y-89140170D01*
X123822404Y-89155169D01*
X123823774Y-89156356D01*
X123831332Y-89158000D01*
X125208170Y-89158000D01*
X125223169Y-89153596D01*
X125224356Y-89152226D01*
X125226000Y-89144668D01*
X125226000Y-87917831D01*
X125221596Y-87902832D01*
X125220226Y-87901645D01*
X125212668Y-87900001D01*
X124281274Y-87900001D01*
X124274569Y-87900364D01*
X124223523Y-87905908D01*
X124208512Y-87909478D01*
X124087810Y-87954727D01*
X124072468Y-87963126D01*
X123970165Y-88039798D01*
X123957798Y-88052165D01*
X123881126Y-88154468D01*
X123872727Y-88169810D01*
X123827476Y-88290515D01*
X123823909Y-88305518D01*
X123818363Y-88356573D01*
X123818000Y-88363271D01*
X123818000Y-89140170D01*
X123548700Y-89140170D01*
X123548700Y-84154231D01*
X123568385Y-84087192D01*
X123585019Y-84066550D01*
X123772070Y-83879499D01*
X123833393Y-83846014D01*
X123903085Y-83850998D01*
X123959018Y-83892870D01*
X123983435Y-83958334D01*
X123980325Y-83996126D01*
X123939854Y-84164698D01*
X123939473Y-84169542D01*
X123939472Y-84169547D01*
X123926934Y-84328868D01*
X123920706Y-84408000D01*
X123939854Y-84651302D01*
X123960183Y-84735976D01*
X123995425Y-84882767D01*
X123996828Y-84888612D01*
X123998692Y-84893113D01*
X123998694Y-84893118D01*
X124028830Y-84965872D01*
X124090223Y-85114089D01*
X124092768Y-85118242D01*
X124092769Y-85118244D01*
X124183827Y-85266837D01*
X124217741Y-85322179D01*
X124376241Y-85507759D01*
X124561821Y-85666259D01*
X124769911Y-85793777D01*
X124774414Y-85795642D01*
X124990882Y-85885306D01*
X124990887Y-85885308D01*
X124995388Y-85887172D01*
X125000120Y-85888308D01*
X125000126Y-85888310D01*
X125124112Y-85918076D01*
X125232698Y-85944146D01*
X125237542Y-85944527D01*
X125237547Y-85944528D01*
X125471146Y-85962912D01*
X125476000Y-85963294D01*
X125480854Y-85962912D01*
X125714453Y-85944528D01*
X125714458Y-85944527D01*
X125719302Y-85944146D01*
X125895462Y-85901853D01*
X125965244Y-85905344D01*
X126012090Y-85934746D01*
X126796581Y-86719238D01*
X126830066Y-86780561D01*
X126832900Y-86806919D01*
X126832900Y-87779052D01*
X126813215Y-87846091D01*
X126760411Y-87891846D01*
X126695507Y-87902327D01*
X126677424Y-87900362D01*
X126670729Y-87900000D01*
X125743830Y-87900000D01*
X125728831Y-87904404D01*
X125727644Y-87905774D01*
X125726000Y-87913332D01*
X125726000Y-90898169D01*
X125730404Y-90913168D01*
X125731774Y-90914355D01*
X125739332Y-90915999D01*
X126670726Y-90915999D01*
X126677428Y-90915636D01*
X126695510Y-90913672D01*
X126764283Y-90926002D01*
X126815472Y-90973557D01*
X126832900Y-91036947D01*
X126832900Y-91581082D01*
X126813215Y-91648121D01*
X126796581Y-91668763D01*
X125982063Y-92483280D01*
X125229474Y-93235869D01*
X125223308Y-93241629D01*
X125180204Y-93279231D01*
X125144110Y-93330589D01*
X125143884Y-93330910D01*
X125140012Y-93336123D01*
X125105630Y-93379971D01*
X125105626Y-93379978D01*
X125101016Y-93385857D01*
X125097939Y-93392672D01*
X125096748Y-93394639D01*
X125088113Y-93409777D01*
X125087012Y-93411831D01*
X125082713Y-93417947D01*
X125079997Y-93424913D01*
X125059762Y-93476812D01*
X125057250Y-93482789D01*
X125031245Y-93540384D01*
X125029882Y-93547739D01*
X125029189Y-93549949D01*
X125024421Y-93566687D01*
X125023842Y-93568940D01*
X125021124Y-93575913D01*
X125020148Y-93583329D01*
X125020147Y-93583332D01*
X125012879Y-93638545D01*
X125011863Y-93644959D01*
X125001711Y-93699732D01*
X125001710Y-93699741D01*
X125000348Y-93707092D01*
X125001708Y-93730683D01*
X125003894Y-93768596D01*
X125004100Y-93775733D01*
X125004100Y-98413736D01*
X124984415Y-98480775D01*
X124941150Y-98520264D01*
X124941632Y-98521030D01*
X124937371Y-98523713D01*
X124937359Y-98523724D01*
X124932814Y-98526090D01*
X124928746Y-98529144D01*
X124928745Y-98529145D01*
X124746146Y-98666245D01*
X124746143Y-98666247D01*
X124742075Y-98669302D01*
X124577287Y-98841742D01*
X124574420Y-98845944D01*
X124574419Y-98845946D01*
X124445746Y-99034573D01*
X124442875Y-99038782D01*
X124342451Y-99255128D01*
X124341091Y-99260032D01*
X124302543Y-99399032D01*
X124278709Y-99484972D01*
X124253363Y-99722140D01*
X124253656Y-99727222D01*
X124253656Y-99727223D01*
X124255478Y-99758813D01*
X124267094Y-99960262D01*
X124319531Y-100192945D01*
X124409267Y-100413939D01*
X124411929Y-100418283D01*
X124531231Y-100612966D01*
X124531235Y-100612971D01*
X124533893Y-100617309D01*
X124537225Y-100621155D01*
X124537226Y-100621157D01*
X124575641Y-100665504D01*
X124690060Y-100797594D01*
X124693970Y-100800840D01*
X124693974Y-100800844D01*
X124841548Y-100923362D01*
X124873576Y-100949952D01*
X125079512Y-101070291D01*
X125084265Y-101072106D01*
X125084267Y-101072107D01*
X125165567Y-101103153D01*
X125302337Y-101155380D01*
X125422871Y-101179903D01*
X125531081Y-101201919D01*
X125531084Y-101201919D01*
X125536066Y-101202933D01*
X125691774Y-101208642D01*
X125769346Y-101211487D01*
X125769349Y-101211487D01*
X125774425Y-101211673D01*
X126011009Y-101181365D01*
X126015880Y-101179904D01*
X126015883Y-101179903D01*
X126163054Y-101135750D01*
X126239468Y-101112825D01*
X126285078Y-101090481D01*
X126419585Y-101024587D01*
X129880596Y-101024587D01*
X129886232Y-101032117D01*
X130074736Y-101147632D01*
X130083399Y-101152047D01*
X130300963Y-101242164D01*
X130310199Y-101245165D01*
X130539188Y-101300141D01*
X130548773Y-101301659D01*
X130783546Y-101320136D01*
X130793254Y-101320136D01*
X131028027Y-101301659D01*
X131037612Y-101300141D01*
X131266601Y-101245165D01*
X131275837Y-101242164D01*
X131493401Y-101152047D01*
X131502064Y-101147632D01*
X131686957Y-101034330D01*
X131696269Y-101024036D01*
X131692547Y-101015400D01*
X130801007Y-100123860D01*
X130787287Y-100116368D01*
X130785481Y-100116497D01*
X130778974Y-100120679D01*
X129887247Y-101012406D01*
X129880596Y-101024587D01*
X126419585Y-101024587D01*
X126449093Y-101010131D01*
X126449099Y-101010127D01*
X126453664Y-101007891D01*
X126531289Y-100952522D01*
X126643702Y-100872338D01*
X126647845Y-100869383D01*
X126816797Y-100701020D01*
X126955982Y-100507323D01*
X127061663Y-100293495D01*
X127131000Y-100065277D01*
X127162133Y-99828799D01*
X127163752Y-99762554D01*
X129225964Y-99762554D01*
X129244441Y-99997327D01*
X129245959Y-100006912D01*
X129300935Y-100235901D01*
X129303936Y-100245137D01*
X129394053Y-100462701D01*
X129398468Y-100471364D01*
X129511770Y-100656257D01*
X129522064Y-100665569D01*
X129530700Y-100661847D01*
X130422240Y-99770307D01*
X130428516Y-99758813D01*
X131147068Y-99758813D01*
X131147197Y-99760619D01*
X131151379Y-99767126D01*
X132043106Y-100658853D01*
X132055287Y-100665504D01*
X132062817Y-100659868D01*
X132178332Y-100471364D01*
X132182747Y-100462701D01*
X132272864Y-100245137D01*
X132275865Y-100235901D01*
X132330841Y-100006912D01*
X132332359Y-99997327D01*
X132350836Y-99762554D01*
X132350836Y-99752846D01*
X132332359Y-99518073D01*
X132330841Y-99508488D01*
X132275865Y-99279499D01*
X132272864Y-99270263D01*
X132182747Y-99052699D01*
X132178332Y-99044036D01*
X132065030Y-98859143D01*
X132054736Y-98849831D01*
X132046100Y-98853553D01*
X131154560Y-99745093D01*
X131147068Y-99758813D01*
X130428516Y-99758813D01*
X130429732Y-99756587D01*
X130429603Y-99754781D01*
X130425421Y-99748274D01*
X129533694Y-98856547D01*
X129521513Y-98849896D01*
X129513983Y-98855532D01*
X129398468Y-99044036D01*
X129394053Y-99052699D01*
X129303936Y-99270263D01*
X129300935Y-99279499D01*
X129245959Y-99508488D01*
X129244441Y-99518073D01*
X129225964Y-99752846D01*
X129225964Y-99762554D01*
X127163752Y-99762554D01*
X127163871Y-99757700D01*
X127160948Y-99722140D01*
X127144744Y-99525059D01*
X127144327Y-99519984D01*
X127086221Y-99288652D01*
X126991112Y-99069916D01*
X126861555Y-98869651D01*
X126701029Y-98693236D01*
X126697044Y-98690089D01*
X126697041Y-98690086D01*
X126517836Y-98548559D01*
X126513845Y-98545407D01*
X126469173Y-98520747D01*
X126440059Y-98491364D01*
X129880531Y-98491364D01*
X129884253Y-98500000D01*
X130775793Y-99391540D01*
X130789513Y-99399032D01*
X130791319Y-99398903D01*
X130797826Y-99394721D01*
X131689553Y-98502994D01*
X131696204Y-98490813D01*
X131690568Y-98483283D01*
X131502064Y-98367768D01*
X131493401Y-98363353D01*
X131275837Y-98273236D01*
X131266601Y-98270235D01*
X131037612Y-98215259D01*
X131028027Y-98213741D01*
X130793254Y-98195264D01*
X130783546Y-98195264D01*
X130548773Y-98213741D01*
X130539188Y-98215259D01*
X130310199Y-98270235D01*
X130300963Y-98273236D01*
X130083399Y-98363353D01*
X130074736Y-98367768D01*
X129889843Y-98481070D01*
X129880531Y-98491364D01*
X126440059Y-98491364D01*
X126419996Y-98471115D01*
X126405100Y-98412189D01*
X126405100Y-94092918D01*
X126424785Y-94025879D01*
X126441419Y-94005237D01*
X127209794Y-93236863D01*
X128008526Y-92438131D01*
X128014693Y-92432370D01*
X128052162Y-92399684D01*
X128052163Y-92399683D01*
X128057796Y-92394769D01*
X128094124Y-92343079D01*
X128097988Y-92337877D01*
X128132370Y-92294029D01*
X128132374Y-92294022D01*
X128136984Y-92288143D01*
X128140061Y-92281328D01*
X128141252Y-92279361D01*
X128149887Y-92264223D01*
X128150988Y-92262169D01*
X128155287Y-92256053D01*
X128178238Y-92197188D01*
X128180752Y-92191207D01*
X128206755Y-92133616D01*
X128208118Y-92126261D01*
X128208811Y-92124051D01*
X128213579Y-92107313D01*
X128214158Y-92105060D01*
X128216876Y-92098087D01*
X128225121Y-92035455D01*
X128226137Y-92029041D01*
X128236289Y-91974268D01*
X128236290Y-91974259D01*
X128237652Y-91966908D01*
X128234106Y-91905404D01*
X128233900Y-91898267D01*
X128233900Y-86493978D01*
X128234187Y-86485544D01*
X128237569Y-86435929D01*
X128238078Y-86428470D01*
X128227217Y-86366241D01*
X128226268Y-86359818D01*
X128219574Y-86304501D01*
X128218676Y-86297080D01*
X128216034Y-86290088D01*
X128215485Y-86287852D01*
X128210877Y-86271010D01*
X128210212Y-86268808D01*
X128208927Y-86261446D01*
X128183532Y-86203594D01*
X128181083Y-86197592D01*
X128161386Y-86145466D01*
X128161386Y-86145465D01*
X128158745Y-86138477D01*
X128154514Y-86132320D01*
X128153455Y-86130295D01*
X128144960Y-86115033D01*
X128143786Y-86113047D01*
X128140779Y-86106198D01*
X128136229Y-86100268D01*
X128136227Y-86100265D01*
X128102308Y-86056062D01*
X128098493Y-86050810D01*
X128066949Y-86004913D01*
X128066946Y-86004910D01*
X128062712Y-85998749D01*
X128016697Y-85957751D01*
X128011505Y-85952849D01*
X127002746Y-84944090D01*
X126969261Y-84882767D01*
X126969853Y-84827461D01*
X126975573Y-84803637D01*
X127012146Y-84651302D01*
X127031294Y-84408000D01*
X127025066Y-84328868D01*
X127012528Y-84169547D01*
X127012527Y-84169542D01*
X127012146Y-84164698D01*
X126985044Y-84051812D01*
X126956310Y-83932126D01*
X126956308Y-83932120D01*
X126955172Y-83927388D01*
X126940875Y-83892870D01*
X126872874Y-83728701D01*
X126861777Y-83701911D01*
X126825504Y-83642718D01*
X126736807Y-83497979D01*
X126734259Y-83493821D01*
X126595051Y-83330829D01*
X126566482Y-83267070D01*
X126576919Y-83197984D01*
X126623050Y-83145508D01*
X126689343Y-83126300D01*
X128712700Y-83126300D01*
X128779739Y-83145985D01*
X128825494Y-83198789D01*
X128836700Y-83250300D01*
X128836700Y-95354014D01*
X128817015Y-95421053D01*
X128799459Y-95442608D01*
X128737932Y-95502859D01*
X128640646Y-95653817D01*
X128579222Y-95822578D01*
X128578353Y-95829459D01*
X128562362Y-95956046D01*
X128556714Y-96000753D01*
X128574239Y-96179486D01*
X128630926Y-96349896D01*
X128634519Y-96355829D01*
X128634520Y-96355831D01*
X128720368Y-96497583D01*
X128723959Y-96503512D01*
X128848714Y-96632699D01*
X128854508Y-96636490D01*
X128854511Y-96636493D01*
X128950413Y-96699249D01*
X128998989Y-96731036D01*
X129005484Y-96733451D01*
X129005485Y-96733452D01*
X129021191Y-96739293D01*
X129167316Y-96793636D01*
X129345330Y-96817388D01*
X129352231Y-96816760D01*
X129352233Y-96816760D01*
X129459944Y-96806958D01*
X129524181Y-96801112D01*
X129694982Y-96745615D01*
X129849244Y-96653657D01*
X129876486Y-96627715D01*
X129974280Y-96534587D01*
X129974282Y-96534585D01*
X129979299Y-96529807D01*
X130054504Y-96416615D01*
X130074845Y-96385999D01*
X130074846Y-96385997D01*
X130078683Y-96380222D01*
X130082766Y-96369475D01*
X130124090Y-96260687D01*
X130142457Y-96212336D01*
X130167451Y-96034493D01*
X130167765Y-96012000D01*
X130147746Y-95833528D01*
X130088685Y-95663927D01*
X129993516Y-95511625D01*
X129938527Y-95456251D01*
X129923713Y-95441333D01*
X129890443Y-95379893D01*
X129887700Y-95353958D01*
X129887700Y-83250300D01*
X129907385Y-83183261D01*
X129960189Y-83137506D01*
X130011700Y-83126300D01*
X130034998Y-83126300D01*
X130040190Y-83126409D01*
X130090867Y-83128533D01*
X130099315Y-83128887D01*
X130107547Y-83126956D01*
X130107549Y-83126956D01*
X130139580Y-83119443D01*
X130151063Y-83117314D01*
X130167301Y-83115090D01*
X130183671Y-83112848D01*
X130183673Y-83112847D01*
X130192042Y-83111701D01*
X130199794Y-83108346D01*
X130199799Y-83108345D01*
X130204908Y-83106134D01*
X130225836Y-83099213D01*
X130231256Y-83097942D01*
X130231263Y-83097939D01*
X130239489Y-83096010D01*
X130246893Y-83091940D01*
X130246900Y-83091937D01*
X130275742Y-83076081D01*
X130286232Y-83070942D01*
X130316421Y-83057878D01*
X130316425Y-83057876D01*
X130324179Y-83054520D01*
X130330744Y-83049204D01*
X130330754Y-83049198D01*
X130335081Y-83045694D01*
X130353365Y-83033407D01*
X130359961Y-83029780D01*
X130359963Y-83029778D01*
X130365659Y-83026647D01*
X130373401Y-83019964D01*
X130396686Y-82996679D01*
X130406332Y-82987994D01*
X130429500Y-82969233D01*
X130436071Y-82963912D01*
X130440966Y-82957024D01*
X130440968Y-82957022D01*
X130446296Y-82949524D01*
X130459691Y-82933674D01*
X132923146Y-80470219D01*
X132984469Y-80436734D01*
X133010827Y-80433900D01*
X134783402Y-80433900D01*
X134788594Y-80434009D01*
X134839271Y-80436133D01*
X134847719Y-80436487D01*
X134855951Y-80434556D01*
X134855953Y-80434556D01*
X134887984Y-80427043D01*
X134899467Y-80424914D01*
X134915705Y-80422690D01*
X134932075Y-80420448D01*
X134932077Y-80420447D01*
X134940446Y-80419301D01*
X134948198Y-80415946D01*
X134948203Y-80415945D01*
X134953312Y-80413734D01*
X134974240Y-80406813D01*
X134979660Y-80405542D01*
X134979667Y-80405539D01*
X134987893Y-80403610D01*
X134995297Y-80399540D01*
X134995304Y-80399537D01*
X135024146Y-80383681D01*
X135034636Y-80378542D01*
X135064825Y-80365478D01*
X135064829Y-80365476D01*
X135072583Y-80362120D01*
X135079148Y-80356804D01*
X135079158Y-80356798D01*
X135083485Y-80353294D01*
X135101769Y-80341007D01*
X135108365Y-80337380D01*
X135108367Y-80337378D01*
X135114063Y-80334247D01*
X135121805Y-80327564D01*
X135145090Y-80304279D01*
X135154736Y-80295594D01*
X135177904Y-80276833D01*
X135184475Y-80271512D01*
X135189370Y-80264624D01*
X135189372Y-80264622D01*
X135194700Y-80257124D01*
X135208095Y-80241274D01*
X135652210Y-79797159D01*
X135655959Y-79793564D01*
X135674223Y-79776769D01*
X135699523Y-79753505D01*
X135721319Y-79718352D01*
X135727932Y-79708730D01*
X135747827Y-79682519D01*
X135747827Y-79682518D01*
X135752939Y-79675784D01*
X135758100Y-79662750D01*
X135768003Y-79643059D01*
X135770937Y-79638328D01*
X135770941Y-79638320D01*
X135775393Y-79631139D01*
X135786932Y-79591422D01*
X135790715Y-79580372D01*
X135805941Y-79541916D01*
X135807406Y-79527976D01*
X135811652Y-79506335D01*
X135813749Y-79499117D01*
X135815562Y-79492877D01*
X135816311Y-79482677D01*
X135816311Y-79449756D01*
X135816990Y-79436794D01*
X135820107Y-79407136D01*
X135820991Y-79398727D01*
X135818048Y-79381326D01*
X135816311Y-79360647D01*
X135816311Y-78454093D01*
X135816420Y-78448901D01*
X135818544Y-78398224D01*
X135818898Y-78389776D01*
X135816724Y-78380504D01*
X135809454Y-78349511D01*
X135807324Y-78338021D01*
X135802859Y-78305420D01*
X135802858Y-78305418D01*
X135801712Y-78297049D01*
X135798357Y-78289297D01*
X135798356Y-78289292D01*
X135796145Y-78284183D01*
X135789224Y-78263255D01*
X135787953Y-78257838D01*
X135787952Y-78257836D01*
X135786021Y-78249602D01*
X135766090Y-78213347D01*
X135760955Y-78202866D01*
X135747889Y-78172671D01*
X135747888Y-78172669D01*
X135744531Y-78164912D01*
X135735711Y-78154020D01*
X135723419Y-78135727D01*
X135719791Y-78129129D01*
X135719788Y-78129125D01*
X135716659Y-78123433D01*
X135709976Y-78115690D01*
X135686686Y-78092400D01*
X135678001Y-78082754D01*
X135659244Y-78059591D01*
X135653923Y-78053020D01*
X135647032Y-78048123D01*
X135647028Y-78048119D01*
X135639538Y-78042796D01*
X135623688Y-78029402D01*
X135031885Y-77437600D01*
X135028290Y-77433851D01*
X135014208Y-77418537D01*
X134988232Y-77390288D01*
X134953084Y-77368495D01*
X134943468Y-77361888D01*
X134910512Y-77336872D01*
X134897472Y-77331709D01*
X134877786Y-77321809D01*
X134865866Y-77314418D01*
X134826142Y-77302877D01*
X134815106Y-77299099D01*
X134776644Y-77283871D01*
X134768245Y-77282988D01*
X134768236Y-77282986D01*
X134762697Y-77282404D01*
X134741070Y-77278161D01*
X134733848Y-77276063D01*
X134733847Y-77276063D01*
X134727604Y-77274249D01*
X134720405Y-77273720D01*
X134719679Y-77273667D01*
X134719677Y-77273667D01*
X134717404Y-77273500D01*
X134684473Y-77273500D01*
X134671511Y-77272821D01*
X134670566Y-77272722D01*
X134633454Y-77268821D01*
X134625118Y-77270231D01*
X134625114Y-77270231D01*
X134616054Y-77271763D01*
X134595375Y-77273500D01*
X130651793Y-77273500D01*
X130584754Y-77253815D01*
X130563807Y-77236875D01*
X130532244Y-77205092D01*
X130498581Y-77171193D01*
X130346947Y-77074963D01*
X130252068Y-77041178D01*
X130184290Y-77017043D01*
X130184286Y-77017042D01*
X130177762Y-77014719D01*
X129999435Y-76993455D01*
X129992546Y-76994179D01*
X129992543Y-76994179D01*
X129827724Y-77011502D01*
X129827722Y-77011502D01*
X129820828Y-77012227D01*
X129814267Y-77014461D01*
X129814265Y-77014461D01*
X129735785Y-77041178D01*
X129650818Y-77070103D01*
X129644916Y-77073734D01*
X129564717Y-77123073D01*
X129497856Y-77164206D01*
X129460698Y-77200594D01*
X129399027Y-77233436D01*
X129373939Y-77236000D01*
X121609393Y-77236000D01*
X121542354Y-77216315D01*
X121521407Y-77199375D01*
X121482874Y-77160573D01*
X121456181Y-77133693D01*
X121304547Y-77037463D01*
X121247201Y-77017043D01*
X121141890Y-76979543D01*
X121141886Y-76979542D01*
X121135362Y-76977219D01*
X120957035Y-76955955D01*
X120950146Y-76956679D01*
X120950143Y-76956679D01*
X120785324Y-76974002D01*
X120785322Y-76974002D01*
X120778428Y-76974727D01*
X120771867Y-76976961D01*
X120771865Y-76976961D01*
X120721288Y-76994179D01*
X120608418Y-77032603D01*
X120455456Y-77126706D01*
X120380004Y-77200594D01*
X120380003Y-77200595D01*
X120318333Y-77233436D01*
X120293245Y-77236000D01*
X111386693Y-77236000D01*
X111319654Y-77216315D01*
X111298707Y-77199375D01*
X111260174Y-77160573D01*
X111233481Y-77133693D01*
X111081847Y-77037463D01*
X111024501Y-77017043D01*
X110919190Y-76979543D01*
X110919186Y-76979542D01*
X110912662Y-76977219D01*
X110734335Y-76955955D01*
X110727446Y-76956679D01*
X110727443Y-76956679D01*
X110562624Y-76974002D01*
X110562622Y-76974002D01*
X110555728Y-76974727D01*
X110549167Y-76976961D01*
X110549165Y-76976961D01*
X110498588Y-76994179D01*
X110385718Y-77032603D01*
X110232756Y-77126706D01*
X110157304Y-77200594D01*
X110157303Y-77200595D01*
X110095633Y-77233436D01*
X110070545Y-77236000D01*
X102967454Y-77236000D01*
X102900415Y-77216315D01*
X102879467Y-77199375D01*
X102856364Y-77176110D01*
X102856363Y-77176109D01*
X102851481Y-77171193D01*
X102699847Y-77074963D01*
X102604968Y-77041178D01*
X102537190Y-77017043D01*
X102537186Y-77017042D01*
X102530662Y-77014719D01*
X102352335Y-76993455D01*
X102345446Y-76994179D01*
X102345443Y-76994179D01*
X102180624Y-77011502D01*
X102180622Y-77011502D01*
X102173728Y-77012227D01*
X102167167Y-77014461D01*
X102167165Y-77014461D01*
X102088685Y-77041178D01*
X102003718Y-77070103D01*
X101997816Y-77073734D01*
X101917617Y-77123073D01*
X101850756Y-77164206D01*
X101722443Y-77289859D01*
X101695472Y-77331710D01*
X101639516Y-77418537D01*
X101625157Y-77440817D01*
X101614424Y-77470307D01*
X101586376Y-77547368D01*
X101563733Y-77609578D01*
X101541225Y-77787753D01*
X101545497Y-77831324D01*
X101548495Y-77861900D01*
X101535446Y-77930540D01*
X101487359Y-77981230D01*
X101425087Y-77998000D01*
X98758327Y-77998000D01*
X98691288Y-77978315D01*
X98670646Y-77961681D01*
X94753305Y-74044340D01*
X96204163Y-74044340D01*
X96204456Y-74049422D01*
X96204456Y-74049423D01*
X96214489Y-74223419D01*
X96217894Y-74282462D01*
X96270331Y-74515145D01*
X96360067Y-74736139D01*
X96362729Y-74740483D01*
X96482031Y-74935166D01*
X96482035Y-74935171D01*
X96484693Y-74939509D01*
X96488025Y-74943355D01*
X96488026Y-74943357D01*
X96626390Y-75103089D01*
X96640860Y-75119794D01*
X96644770Y-75123040D01*
X96644774Y-75123044D01*
X96790419Y-75243960D01*
X96824376Y-75272152D01*
X96969625Y-75357028D01*
X96979990Y-75363085D01*
X97030312Y-75392491D01*
X97035065Y-75394306D01*
X97035067Y-75394307D01*
X97044021Y-75397726D01*
X97253137Y-75477580D01*
X97373671Y-75502103D01*
X97481881Y-75524119D01*
X97481884Y-75524119D01*
X97486866Y-75525133D01*
X97642574Y-75530842D01*
X97720146Y-75533687D01*
X97720149Y-75533687D01*
X97725225Y-75533873D01*
X97961809Y-75503565D01*
X97966680Y-75502104D01*
X97966683Y-75502103D01*
X98113854Y-75457950D01*
X98190268Y-75435025D01*
X98246896Y-75407283D01*
X98399893Y-75332331D01*
X98399899Y-75332327D01*
X98404464Y-75330091D01*
X98482089Y-75274722D01*
X98594502Y-75194538D01*
X98598645Y-75191583D01*
X98767597Y-75023220D01*
X98906782Y-74829523D01*
X99012463Y-74615695D01*
X99081800Y-74387477D01*
X99110006Y-74173234D01*
X99112502Y-74154274D01*
X99112502Y-74154271D01*
X99112933Y-74150999D01*
X99114671Y-74079900D01*
X99111748Y-74044340D01*
X101284163Y-74044340D01*
X101284456Y-74049422D01*
X101284456Y-74049423D01*
X101294489Y-74223419D01*
X101297894Y-74282462D01*
X101350331Y-74515145D01*
X101440067Y-74736139D01*
X101442729Y-74740483D01*
X101562031Y-74935166D01*
X101562035Y-74935171D01*
X101564693Y-74939509D01*
X101568025Y-74943355D01*
X101568026Y-74943357D01*
X101706390Y-75103089D01*
X101720860Y-75119794D01*
X101724770Y-75123040D01*
X101724774Y-75123044D01*
X101870419Y-75243960D01*
X101904376Y-75272152D01*
X102049625Y-75357028D01*
X102059990Y-75363085D01*
X102110312Y-75392491D01*
X102115065Y-75394306D01*
X102115067Y-75394307D01*
X102124021Y-75397726D01*
X102333137Y-75477580D01*
X102453671Y-75502103D01*
X102561881Y-75524119D01*
X102561884Y-75524119D01*
X102566866Y-75525133D01*
X102722574Y-75530842D01*
X102800146Y-75533687D01*
X102800149Y-75533687D01*
X102805225Y-75533873D01*
X103041809Y-75503565D01*
X103046680Y-75502104D01*
X103046683Y-75502103D01*
X103193854Y-75457950D01*
X103270268Y-75435025D01*
X103326896Y-75407283D01*
X103479893Y-75332331D01*
X103479899Y-75332327D01*
X103484464Y-75330091D01*
X103562089Y-75274722D01*
X103674502Y-75194538D01*
X103678645Y-75191583D01*
X103847597Y-75023220D01*
X103986782Y-74829523D01*
X104092463Y-74615695D01*
X104161800Y-74387477D01*
X104190006Y-74173234D01*
X104192502Y-74154274D01*
X104192502Y-74154271D01*
X104192933Y-74150999D01*
X104194671Y-74079900D01*
X104191748Y-74044340D01*
X106364163Y-74044340D01*
X106364456Y-74049422D01*
X106364456Y-74049423D01*
X106374489Y-74223419D01*
X106377894Y-74282462D01*
X106430331Y-74515145D01*
X106520067Y-74736139D01*
X106522729Y-74740483D01*
X106642031Y-74935166D01*
X106642035Y-74935171D01*
X106644693Y-74939509D01*
X106648025Y-74943355D01*
X106648026Y-74943357D01*
X106786390Y-75103089D01*
X106800860Y-75119794D01*
X106804770Y-75123040D01*
X106804774Y-75123044D01*
X106950419Y-75243960D01*
X106984376Y-75272152D01*
X107129625Y-75357028D01*
X107139990Y-75363085D01*
X107190312Y-75392491D01*
X107195065Y-75394306D01*
X107195067Y-75394307D01*
X107204021Y-75397726D01*
X107413137Y-75477580D01*
X107533671Y-75502103D01*
X107641881Y-75524119D01*
X107641884Y-75524119D01*
X107646866Y-75525133D01*
X107802574Y-75530842D01*
X107880146Y-75533687D01*
X107880149Y-75533687D01*
X107885225Y-75533873D01*
X108121809Y-75503565D01*
X108126680Y-75502104D01*
X108126683Y-75502103D01*
X108273854Y-75457950D01*
X108350268Y-75435025D01*
X108406896Y-75407283D01*
X108559893Y-75332331D01*
X108559899Y-75332327D01*
X108564464Y-75330091D01*
X108642089Y-75274722D01*
X108754502Y-75194538D01*
X108758645Y-75191583D01*
X108927597Y-75023220D01*
X109066782Y-74829523D01*
X109172463Y-74615695D01*
X109241800Y-74387477D01*
X109270006Y-74173234D01*
X109272502Y-74154274D01*
X109272502Y-74154271D01*
X109272933Y-74150999D01*
X109274671Y-74079900D01*
X109271748Y-74044340D01*
X111444163Y-74044340D01*
X111444456Y-74049422D01*
X111444456Y-74049423D01*
X111454489Y-74223419D01*
X111457894Y-74282462D01*
X111510331Y-74515145D01*
X111600067Y-74736139D01*
X111602729Y-74740483D01*
X111722031Y-74935166D01*
X111722035Y-74935171D01*
X111724693Y-74939509D01*
X111728025Y-74943355D01*
X111728026Y-74943357D01*
X111866390Y-75103089D01*
X111880860Y-75119794D01*
X111884770Y-75123040D01*
X111884774Y-75123044D01*
X112030419Y-75243960D01*
X112064376Y-75272152D01*
X112209625Y-75357028D01*
X112219990Y-75363085D01*
X112270312Y-75392491D01*
X112275065Y-75394306D01*
X112275067Y-75394307D01*
X112284021Y-75397726D01*
X112493137Y-75477580D01*
X112613671Y-75502103D01*
X112721881Y-75524119D01*
X112721884Y-75524119D01*
X112726866Y-75525133D01*
X112882574Y-75530842D01*
X112960146Y-75533687D01*
X112960149Y-75533687D01*
X112965225Y-75533873D01*
X113201809Y-75503565D01*
X113206680Y-75502104D01*
X113206683Y-75502103D01*
X113353854Y-75457950D01*
X113430268Y-75435025D01*
X113486896Y-75407283D01*
X113639893Y-75332331D01*
X113639899Y-75332327D01*
X113644464Y-75330091D01*
X113722089Y-75274722D01*
X113834502Y-75194538D01*
X113838645Y-75191583D01*
X114007597Y-75023220D01*
X114146782Y-74829523D01*
X114252463Y-74615695D01*
X114321800Y-74387477D01*
X114350006Y-74173234D01*
X114352502Y-74154274D01*
X114352502Y-74154271D01*
X114352933Y-74150999D01*
X114354671Y-74079900D01*
X114351748Y-74044340D01*
X116524163Y-74044340D01*
X116524456Y-74049422D01*
X116524456Y-74049423D01*
X116534489Y-74223419D01*
X116537894Y-74282462D01*
X116590331Y-74515145D01*
X116680067Y-74736139D01*
X116682729Y-74740483D01*
X116802031Y-74935166D01*
X116802035Y-74935171D01*
X116804693Y-74939509D01*
X116808025Y-74943355D01*
X116808026Y-74943357D01*
X116946390Y-75103089D01*
X116960860Y-75119794D01*
X116964770Y-75123040D01*
X116964774Y-75123044D01*
X117110419Y-75243960D01*
X117144376Y-75272152D01*
X117289625Y-75357028D01*
X117299990Y-75363085D01*
X117350312Y-75392491D01*
X117355065Y-75394306D01*
X117355067Y-75394307D01*
X117364021Y-75397726D01*
X117573137Y-75477580D01*
X117693671Y-75502103D01*
X117801881Y-75524119D01*
X117801884Y-75524119D01*
X117806866Y-75525133D01*
X117962574Y-75530842D01*
X118040146Y-75533687D01*
X118040149Y-75533687D01*
X118045225Y-75533873D01*
X118281809Y-75503565D01*
X118286680Y-75502104D01*
X118286683Y-75502103D01*
X118433854Y-75457950D01*
X118510268Y-75435025D01*
X118566896Y-75407283D01*
X118719893Y-75332331D01*
X118719899Y-75332327D01*
X118724464Y-75330091D01*
X118802089Y-75274722D01*
X118914502Y-75194538D01*
X118918645Y-75191583D01*
X119087597Y-75023220D01*
X119226782Y-74829523D01*
X119332463Y-74615695D01*
X119401800Y-74387477D01*
X119430006Y-74173234D01*
X119432502Y-74154274D01*
X119432502Y-74154271D01*
X119432933Y-74150999D01*
X119434671Y-74079900D01*
X119431748Y-74044340D01*
X121604163Y-74044340D01*
X121604456Y-74049422D01*
X121604456Y-74049423D01*
X121614489Y-74223419D01*
X121617894Y-74282462D01*
X121670331Y-74515145D01*
X121760067Y-74736139D01*
X121762729Y-74740483D01*
X121882031Y-74935166D01*
X121882035Y-74935171D01*
X121884693Y-74939509D01*
X121888025Y-74943355D01*
X121888026Y-74943357D01*
X122026390Y-75103089D01*
X122040860Y-75119794D01*
X122044770Y-75123040D01*
X122044774Y-75123044D01*
X122190419Y-75243960D01*
X122224376Y-75272152D01*
X122369625Y-75357028D01*
X122379990Y-75363085D01*
X122430312Y-75392491D01*
X122435065Y-75394306D01*
X122435067Y-75394307D01*
X122444021Y-75397726D01*
X122653137Y-75477580D01*
X122773671Y-75502103D01*
X122881881Y-75524119D01*
X122881884Y-75524119D01*
X122886866Y-75525133D01*
X123042574Y-75530842D01*
X123120146Y-75533687D01*
X123120149Y-75533687D01*
X123125225Y-75533873D01*
X123361809Y-75503565D01*
X123366680Y-75502104D01*
X123366683Y-75502103D01*
X123513854Y-75457950D01*
X123590268Y-75435025D01*
X123646896Y-75407283D01*
X123799893Y-75332331D01*
X123799899Y-75332327D01*
X123804464Y-75330091D01*
X123882089Y-75274722D01*
X123994502Y-75194538D01*
X123998645Y-75191583D01*
X124167597Y-75023220D01*
X124306782Y-74829523D01*
X124412463Y-74615695D01*
X124481800Y-74387477D01*
X124510006Y-74173234D01*
X124512502Y-74154274D01*
X124512502Y-74154271D01*
X124512933Y-74150999D01*
X124514671Y-74079900D01*
X124511748Y-74044340D01*
X126684163Y-74044340D01*
X126684456Y-74049422D01*
X126684456Y-74049423D01*
X126694489Y-74223419D01*
X126697894Y-74282462D01*
X126750331Y-74515145D01*
X126840067Y-74736139D01*
X126842729Y-74740483D01*
X126962031Y-74935166D01*
X126962035Y-74935171D01*
X126964693Y-74939509D01*
X126968025Y-74943355D01*
X126968026Y-74943357D01*
X127106390Y-75103089D01*
X127120860Y-75119794D01*
X127124770Y-75123040D01*
X127124774Y-75123044D01*
X127270419Y-75243960D01*
X127304376Y-75272152D01*
X127449625Y-75357028D01*
X127459990Y-75363085D01*
X127510312Y-75392491D01*
X127515065Y-75394306D01*
X127515067Y-75394307D01*
X127524021Y-75397726D01*
X127733137Y-75477580D01*
X127853671Y-75502103D01*
X127961881Y-75524119D01*
X127961884Y-75524119D01*
X127966866Y-75525133D01*
X128122574Y-75530842D01*
X128200146Y-75533687D01*
X128200149Y-75533687D01*
X128205225Y-75533873D01*
X128441809Y-75503565D01*
X128446680Y-75502104D01*
X128446683Y-75502103D01*
X128593854Y-75457950D01*
X128670268Y-75435025D01*
X128726896Y-75407283D01*
X128879893Y-75332331D01*
X128879899Y-75332327D01*
X128884464Y-75330091D01*
X128962089Y-75274722D01*
X129074502Y-75194538D01*
X129078645Y-75191583D01*
X129247597Y-75023220D01*
X129386782Y-74829523D01*
X129492463Y-74615695D01*
X129561800Y-74387477D01*
X129590006Y-74173234D01*
X129592502Y-74154274D01*
X129592502Y-74154271D01*
X129592933Y-74150999D01*
X129594671Y-74079900D01*
X129591748Y-74044340D01*
X129575544Y-73847259D01*
X129575127Y-73842184D01*
X129517021Y-73610852D01*
X129421912Y-73392116D01*
X129358984Y-73294844D01*
X129295117Y-73196120D01*
X129295115Y-73196118D01*
X129292355Y-73191851D01*
X129131829Y-73015436D01*
X129127844Y-73012289D01*
X129127841Y-73012286D01*
X129116411Y-73003259D01*
X131768700Y-73003259D01*
X131768701Y-74080674D01*
X131768701Y-75161418D01*
X131783554Y-75255204D01*
X131841150Y-75368242D01*
X131930858Y-75457950D01*
X132043896Y-75515546D01*
X132073133Y-75520177D01*
X132132861Y-75529637D01*
X132132866Y-75529637D01*
X132137681Y-75530400D01*
X132142559Y-75530400D01*
X133219976Y-75530399D01*
X134300718Y-75530399D01*
X134373351Y-75518896D01*
X134384869Y-75517072D01*
X134384870Y-75517072D01*
X134394504Y-75515546D01*
X134507542Y-75457950D01*
X134597250Y-75368242D01*
X134654846Y-75255204D01*
X134659477Y-75225967D01*
X134668937Y-75166239D01*
X134668937Y-75166234D01*
X134669700Y-75161419D01*
X134669700Y-74079900D01*
X134669699Y-73003253D01*
X134669699Y-72998382D01*
X134654846Y-72904596D01*
X134597250Y-72791558D01*
X134507542Y-72701850D01*
X134394504Y-72644254D01*
X134365267Y-72639623D01*
X134305539Y-72630163D01*
X134305534Y-72630163D01*
X134300719Y-72629400D01*
X134295841Y-72629400D01*
X133218424Y-72629401D01*
X132137682Y-72629401D01*
X132065049Y-72640904D01*
X132053531Y-72642728D01*
X132053530Y-72642728D01*
X132043896Y-72644254D01*
X131930858Y-72701850D01*
X131841150Y-72791558D01*
X131783554Y-72904596D01*
X131782027Y-72914238D01*
X131769593Y-72992744D01*
X131768700Y-72998381D01*
X131768700Y-73003259D01*
X129116411Y-73003259D01*
X128950024Y-72871855D01*
X128944645Y-72867607D01*
X128806882Y-72791558D01*
X128740286Y-72754795D01*
X128740283Y-72754794D01*
X128735831Y-72752336D01*
X128510994Y-72672717D01*
X128342640Y-72642728D01*
X128281180Y-72631780D01*
X128281179Y-72631780D01*
X128276172Y-72630888D01*
X128186679Y-72629795D01*
X128042760Y-72628036D01*
X128042758Y-72628036D01*
X128037671Y-72627974D01*
X128032641Y-72628744D01*
X128032637Y-72628744D01*
X127902326Y-72648685D01*
X127801898Y-72664053D01*
X127797070Y-72665631D01*
X127797066Y-72665632D01*
X127699811Y-72697420D01*
X127575182Y-72738155D01*
X127363614Y-72848290D01*
X127359546Y-72851344D01*
X127359545Y-72851345D01*
X127176946Y-72988445D01*
X127176943Y-72988447D01*
X127172875Y-72991502D01*
X127169361Y-72995179D01*
X127169360Y-72995180D01*
X127118485Y-73048418D01*
X127008087Y-73163942D01*
X127005220Y-73168144D01*
X127005219Y-73168146D01*
X126922525Y-73289371D01*
X126873675Y-73360982D01*
X126773251Y-73577328D01*
X126709509Y-73807172D01*
X126684163Y-74044340D01*
X124511748Y-74044340D01*
X124495544Y-73847259D01*
X124495127Y-73842184D01*
X124437021Y-73610852D01*
X124341912Y-73392116D01*
X124278984Y-73294844D01*
X124215117Y-73196120D01*
X124215115Y-73196118D01*
X124212355Y-73191851D01*
X124051829Y-73015436D01*
X124047844Y-73012289D01*
X124047841Y-73012286D01*
X123870024Y-72871855D01*
X123864645Y-72867607D01*
X123726882Y-72791558D01*
X123660286Y-72754795D01*
X123660283Y-72754794D01*
X123655831Y-72752336D01*
X123430994Y-72672717D01*
X123262640Y-72642728D01*
X123201180Y-72631780D01*
X123201179Y-72631780D01*
X123196172Y-72630888D01*
X123106679Y-72629795D01*
X122962760Y-72628036D01*
X122962758Y-72628036D01*
X122957671Y-72627974D01*
X122952641Y-72628744D01*
X122952637Y-72628744D01*
X122822326Y-72648685D01*
X122721898Y-72664053D01*
X122717070Y-72665631D01*
X122717066Y-72665632D01*
X122619811Y-72697420D01*
X122495182Y-72738155D01*
X122283614Y-72848290D01*
X122279546Y-72851344D01*
X122279545Y-72851345D01*
X122096946Y-72988445D01*
X122096943Y-72988447D01*
X122092875Y-72991502D01*
X122089361Y-72995179D01*
X122089360Y-72995180D01*
X122038485Y-73048418D01*
X121928087Y-73163942D01*
X121925220Y-73168144D01*
X121925219Y-73168146D01*
X121842525Y-73289371D01*
X121793675Y-73360982D01*
X121693251Y-73577328D01*
X121629509Y-73807172D01*
X121604163Y-74044340D01*
X119431748Y-74044340D01*
X119415544Y-73847259D01*
X119415127Y-73842184D01*
X119357021Y-73610852D01*
X119261912Y-73392116D01*
X119198984Y-73294844D01*
X119135117Y-73196120D01*
X119135115Y-73196118D01*
X119132355Y-73191851D01*
X118971829Y-73015436D01*
X118967844Y-73012289D01*
X118967841Y-73012286D01*
X118790024Y-72871855D01*
X118784645Y-72867607D01*
X118646882Y-72791558D01*
X118580286Y-72754795D01*
X118580283Y-72754794D01*
X118575831Y-72752336D01*
X118350994Y-72672717D01*
X118182640Y-72642728D01*
X118121180Y-72631780D01*
X118121179Y-72631780D01*
X118116172Y-72630888D01*
X118026679Y-72629795D01*
X117882760Y-72628036D01*
X117882758Y-72628036D01*
X117877671Y-72627974D01*
X117872641Y-72628744D01*
X117872637Y-72628744D01*
X117742326Y-72648685D01*
X117641898Y-72664053D01*
X117637070Y-72665631D01*
X117637066Y-72665632D01*
X117539811Y-72697420D01*
X117415182Y-72738155D01*
X117203614Y-72848290D01*
X117199546Y-72851344D01*
X117199545Y-72851345D01*
X117016946Y-72988445D01*
X117016943Y-72988447D01*
X117012875Y-72991502D01*
X117009361Y-72995179D01*
X117009360Y-72995180D01*
X116958485Y-73048418D01*
X116848087Y-73163942D01*
X116845220Y-73168144D01*
X116845219Y-73168146D01*
X116762525Y-73289371D01*
X116713675Y-73360982D01*
X116613251Y-73577328D01*
X116549509Y-73807172D01*
X116524163Y-74044340D01*
X114351748Y-74044340D01*
X114335544Y-73847259D01*
X114335127Y-73842184D01*
X114277021Y-73610852D01*
X114181912Y-73392116D01*
X114118984Y-73294844D01*
X114055117Y-73196120D01*
X114055115Y-73196118D01*
X114052355Y-73191851D01*
X113891829Y-73015436D01*
X113887844Y-73012289D01*
X113887841Y-73012286D01*
X113710024Y-72871855D01*
X113704645Y-72867607D01*
X113566882Y-72791558D01*
X113500286Y-72754795D01*
X113500283Y-72754794D01*
X113495831Y-72752336D01*
X113270994Y-72672717D01*
X113102640Y-72642728D01*
X113041180Y-72631780D01*
X113041179Y-72631780D01*
X113036172Y-72630888D01*
X112946679Y-72629795D01*
X112802760Y-72628036D01*
X112802758Y-72628036D01*
X112797671Y-72627974D01*
X112792641Y-72628744D01*
X112792637Y-72628744D01*
X112662326Y-72648685D01*
X112561898Y-72664053D01*
X112557070Y-72665631D01*
X112557066Y-72665632D01*
X112459811Y-72697420D01*
X112335182Y-72738155D01*
X112123614Y-72848290D01*
X112119546Y-72851344D01*
X112119545Y-72851345D01*
X111936946Y-72988445D01*
X111936943Y-72988447D01*
X111932875Y-72991502D01*
X111929361Y-72995179D01*
X111929360Y-72995180D01*
X111878485Y-73048418D01*
X111768087Y-73163942D01*
X111765220Y-73168144D01*
X111765219Y-73168146D01*
X111682525Y-73289371D01*
X111633675Y-73360982D01*
X111533251Y-73577328D01*
X111469509Y-73807172D01*
X111444163Y-74044340D01*
X109271748Y-74044340D01*
X109255544Y-73847259D01*
X109255127Y-73842184D01*
X109197021Y-73610852D01*
X109101912Y-73392116D01*
X109038984Y-73294844D01*
X108975117Y-73196120D01*
X108975115Y-73196118D01*
X108972355Y-73191851D01*
X108811829Y-73015436D01*
X108807844Y-73012289D01*
X108807841Y-73012286D01*
X108630024Y-72871855D01*
X108624645Y-72867607D01*
X108486882Y-72791558D01*
X108420286Y-72754795D01*
X108420283Y-72754794D01*
X108415831Y-72752336D01*
X108190994Y-72672717D01*
X108022640Y-72642728D01*
X107961180Y-72631780D01*
X107961179Y-72631780D01*
X107956172Y-72630888D01*
X107866679Y-72629795D01*
X107722760Y-72628036D01*
X107722758Y-72628036D01*
X107717671Y-72627974D01*
X107712641Y-72628744D01*
X107712637Y-72628744D01*
X107582326Y-72648685D01*
X107481898Y-72664053D01*
X107477070Y-72665631D01*
X107477066Y-72665632D01*
X107379811Y-72697420D01*
X107255182Y-72738155D01*
X107043614Y-72848290D01*
X107039546Y-72851344D01*
X107039545Y-72851345D01*
X106856946Y-72988445D01*
X106856943Y-72988447D01*
X106852875Y-72991502D01*
X106849361Y-72995179D01*
X106849360Y-72995180D01*
X106798485Y-73048418D01*
X106688087Y-73163942D01*
X106685220Y-73168144D01*
X106685219Y-73168146D01*
X106602525Y-73289371D01*
X106553675Y-73360982D01*
X106453251Y-73577328D01*
X106389509Y-73807172D01*
X106364163Y-74044340D01*
X104191748Y-74044340D01*
X104175544Y-73847259D01*
X104175127Y-73842184D01*
X104117021Y-73610852D01*
X104021912Y-73392116D01*
X103958984Y-73294844D01*
X103895117Y-73196120D01*
X103895115Y-73196118D01*
X103892355Y-73191851D01*
X103731829Y-73015436D01*
X103727844Y-73012289D01*
X103727841Y-73012286D01*
X103550024Y-72871855D01*
X103544645Y-72867607D01*
X103406882Y-72791558D01*
X103340286Y-72754795D01*
X103340283Y-72754794D01*
X103335831Y-72752336D01*
X103110994Y-72672717D01*
X102942640Y-72642728D01*
X102881180Y-72631780D01*
X102881179Y-72631780D01*
X102876172Y-72630888D01*
X102786679Y-72629795D01*
X102642760Y-72628036D01*
X102642758Y-72628036D01*
X102637671Y-72627974D01*
X102632641Y-72628744D01*
X102632637Y-72628744D01*
X102502326Y-72648685D01*
X102401898Y-72664053D01*
X102397070Y-72665631D01*
X102397066Y-72665632D01*
X102299811Y-72697420D01*
X102175182Y-72738155D01*
X101963614Y-72848290D01*
X101959546Y-72851344D01*
X101959545Y-72851345D01*
X101776946Y-72988445D01*
X101776943Y-72988447D01*
X101772875Y-72991502D01*
X101769361Y-72995179D01*
X101769360Y-72995180D01*
X101718485Y-73048418D01*
X101608087Y-73163942D01*
X101605220Y-73168144D01*
X101605219Y-73168146D01*
X101522525Y-73289371D01*
X101473675Y-73360982D01*
X101373251Y-73577328D01*
X101309509Y-73807172D01*
X101284163Y-74044340D01*
X99111748Y-74044340D01*
X99095544Y-73847259D01*
X99095127Y-73842184D01*
X99037021Y-73610852D01*
X98941912Y-73392116D01*
X98878984Y-73294844D01*
X98815117Y-73196120D01*
X98815115Y-73196118D01*
X98812355Y-73191851D01*
X98651829Y-73015436D01*
X98647844Y-73012289D01*
X98647841Y-73012286D01*
X98470024Y-72871855D01*
X98464645Y-72867607D01*
X98326882Y-72791558D01*
X98260286Y-72754795D01*
X98260283Y-72754794D01*
X98255831Y-72752336D01*
X98030994Y-72672717D01*
X97862640Y-72642728D01*
X97801180Y-72631780D01*
X97801179Y-72631780D01*
X97796172Y-72630888D01*
X97706679Y-72629795D01*
X97562760Y-72628036D01*
X97562758Y-72628036D01*
X97557671Y-72627974D01*
X97552641Y-72628744D01*
X97552637Y-72628744D01*
X97422326Y-72648685D01*
X97321898Y-72664053D01*
X97317070Y-72665631D01*
X97317066Y-72665632D01*
X97219811Y-72697420D01*
X97095182Y-72738155D01*
X96883614Y-72848290D01*
X96879546Y-72851344D01*
X96879545Y-72851345D01*
X96696946Y-72988445D01*
X96696943Y-72988447D01*
X96692875Y-72991502D01*
X96689361Y-72995179D01*
X96689360Y-72995180D01*
X96638485Y-73048418D01*
X96528087Y-73163942D01*
X96525220Y-73168144D01*
X96525219Y-73168146D01*
X96442525Y-73289371D01*
X96393675Y-73360982D01*
X96293251Y-73577328D01*
X96229509Y-73807172D01*
X96204163Y-74044340D01*
X94753305Y-74044340D01*
X92925921Y-72216956D01*
X92895805Y-72161803D01*
X92894122Y-72162273D01*
X92891848Y-72154129D01*
X92890701Y-72145754D01*
X92887344Y-72137997D01*
X92885124Y-72130045D01*
X92882407Y-72122243D01*
X92880736Y-72113956D01*
X92857320Y-72067998D01*
X92854004Y-72060952D01*
X92836878Y-72021377D01*
X92833520Y-72013617D01*
X92828199Y-72007045D01*
X92823924Y-71999987D01*
X92819211Y-71993206D01*
X92815371Y-71985670D01*
X92780458Y-71947703D01*
X92775370Y-71941808D01*
X92748231Y-71908294D01*
X92742912Y-71901725D01*
X92736023Y-71896829D01*
X92729997Y-71891170D01*
X92723634Y-71885906D01*
X92717916Y-71879688D01*
X92710735Y-71875236D01*
X92710732Y-71875233D01*
X92674084Y-71852510D01*
X92667597Y-71848200D01*
X92632444Y-71823219D01*
X92632441Y-71823218D01*
X92625551Y-71818321D01*
X92617596Y-71815457D01*
X92610277Y-71811631D01*
X92602736Y-71808273D01*
X92595550Y-71803818D01*
X92546019Y-71789428D01*
X92538616Y-71787022D01*
X92498040Y-71772414D01*
X92490085Y-71769550D01*
X92481654Y-71768931D01*
X92473384Y-71767173D01*
X92473431Y-71766950D01*
X92469974Y-71766328D01*
X92469923Y-71766613D01*
X92463532Y-71765463D01*
X92457288Y-71763649D01*
X92450089Y-71763120D01*
X92449363Y-71763067D01*
X92449361Y-71763067D01*
X92447088Y-71762900D01*
X92404069Y-71762900D01*
X92394988Y-71762567D01*
X92346493Y-71759006D01*
X92338213Y-71760676D01*
X92335152Y-71760868D01*
X92314802Y-71762900D01*
X91841554Y-71762900D01*
X91774515Y-71743215D01*
X91728760Y-71690411D01*
X91718816Y-71621253D01*
X91733365Y-71578311D01*
X91806663Y-71447428D01*
X91806666Y-71447420D01*
X91809446Y-71442457D01*
X91878122Y-71240143D01*
X91908780Y-71028701D01*
X91910380Y-70967600D01*
X91890830Y-70754844D01*
X91832836Y-70549213D01*
X91830324Y-70544119D01*
X91830322Y-70544114D01*
X91784411Y-70451016D01*
X91738340Y-70357593D01*
X91610507Y-70186403D01*
X91606337Y-70182548D01*
X91606334Y-70182545D01*
X91457793Y-70045236D01*
X91457791Y-70045235D01*
X91453617Y-70041376D01*
X91272925Y-69927368D01*
X91074482Y-69848197D01*
X91068901Y-69847087D01*
X91068898Y-69847086D01*
X90967725Y-69826962D01*
X90927554Y-69818972D01*
X90865644Y-69786588D01*
X90831070Y-69725872D01*
X90834809Y-69656103D01*
X90875675Y-69599430D01*
X90933952Y-69574638D01*
X90954750Y-69571622D01*
X91015443Y-69562822D01*
X91119040Y-69527656D01*
X91212367Y-69495976D01*
X91212370Y-69495975D01*
X91217757Y-69494146D01*
X91404168Y-69389751D01*
X91568433Y-69253133D01*
X91624418Y-69185818D01*
X91701420Y-69093234D01*
X91701421Y-69093233D01*
X91705051Y-69088868D01*
X91809446Y-68902457D01*
X91820963Y-68868531D01*
X91876293Y-68705530D01*
X91878122Y-68700143D01*
X91884783Y-68654208D01*
X91908257Y-68492307D01*
X91908780Y-68488701D01*
X91910380Y-68427600D01*
X91890830Y-68214844D01*
X91832836Y-68009213D01*
X91830324Y-68004119D01*
X91830322Y-68004114D01*
X91771192Y-67884211D01*
X91738340Y-67817593D01*
X91610507Y-67646403D01*
X91606337Y-67642548D01*
X91606334Y-67642545D01*
X91457793Y-67505236D01*
X91457791Y-67505235D01*
X91453617Y-67501376D01*
X91272925Y-67387368D01*
X91074482Y-67308197D01*
X91068901Y-67307087D01*
X91068898Y-67307086D01*
X90993982Y-67292185D01*
X90927554Y-67278972D01*
X90865644Y-67246588D01*
X90831070Y-67185872D01*
X90834809Y-67116103D01*
X90875675Y-67059430D01*
X90933952Y-67034638D01*
X90954750Y-67031622D01*
X91015443Y-67022822D01*
X91119040Y-66987656D01*
X91212367Y-66955976D01*
X91212370Y-66955975D01*
X91217757Y-66954146D01*
X91404168Y-66849751D01*
X91497239Y-66772345D01*
X91564066Y-66716765D01*
X91568433Y-66713133D01*
X91624418Y-66645818D01*
X91701420Y-66553234D01*
X91701421Y-66553233D01*
X91705051Y-66548868D01*
X91774790Y-66424340D01*
X96204163Y-66424340D01*
X96204456Y-66429422D01*
X96204456Y-66429423D01*
X96212914Y-66576103D01*
X96217894Y-66662462D01*
X96270331Y-66895145D01*
X96272244Y-66899856D01*
X96350018Y-67091390D01*
X96360067Y-67116139D01*
X96362729Y-67120483D01*
X96482031Y-67315166D01*
X96482035Y-67315171D01*
X96484693Y-67319509D01*
X96488025Y-67323355D01*
X96488026Y-67323357D01*
X96626390Y-67483089D01*
X96640860Y-67499794D01*
X96644770Y-67503040D01*
X96644774Y-67503044D01*
X96790419Y-67623960D01*
X96824376Y-67652152D01*
X97030312Y-67772491D01*
X97035065Y-67774306D01*
X97035067Y-67774307D01*
X97064997Y-67785736D01*
X97253137Y-67857580D01*
X97373671Y-67882103D01*
X97481881Y-67904119D01*
X97481884Y-67904119D01*
X97486866Y-67905133D01*
X97642574Y-67910842D01*
X97720146Y-67913687D01*
X97720149Y-67913687D01*
X97725225Y-67913873D01*
X97961809Y-67883565D01*
X97966680Y-67882104D01*
X97966683Y-67882103D01*
X98113854Y-67837950D01*
X98190268Y-67815025D01*
X98250054Y-67785736D01*
X98399893Y-67712331D01*
X98399899Y-67712327D01*
X98404464Y-67710091D01*
X98482089Y-67654722D01*
X98594502Y-67574538D01*
X98598645Y-67571583D01*
X98767597Y-67403220D01*
X98906782Y-67209523D01*
X99012463Y-66995695D01*
X99081800Y-66767477D01*
X99105791Y-66585250D01*
X99112502Y-66534274D01*
X99112502Y-66534271D01*
X99112933Y-66530999D01*
X99114671Y-66459900D01*
X99111748Y-66424340D01*
X101284163Y-66424340D01*
X101284456Y-66429422D01*
X101284456Y-66429423D01*
X101292914Y-66576103D01*
X101297894Y-66662462D01*
X101350331Y-66895145D01*
X101352244Y-66899856D01*
X101430018Y-67091390D01*
X101440067Y-67116139D01*
X101442729Y-67120483D01*
X101562031Y-67315166D01*
X101562035Y-67315171D01*
X101564693Y-67319509D01*
X101568025Y-67323355D01*
X101568026Y-67323357D01*
X101706390Y-67483089D01*
X101720860Y-67499794D01*
X101724770Y-67503040D01*
X101724774Y-67503044D01*
X101870419Y-67623960D01*
X101904376Y-67652152D01*
X102110312Y-67772491D01*
X102115065Y-67774306D01*
X102115067Y-67774307D01*
X102144997Y-67785736D01*
X102333137Y-67857580D01*
X102453671Y-67882103D01*
X102561881Y-67904119D01*
X102561884Y-67904119D01*
X102566866Y-67905133D01*
X102722574Y-67910842D01*
X102800146Y-67913687D01*
X102800149Y-67913687D01*
X102805225Y-67913873D01*
X103041809Y-67883565D01*
X103046680Y-67882104D01*
X103046683Y-67882103D01*
X103193854Y-67837950D01*
X103270268Y-67815025D01*
X103330054Y-67785736D01*
X103479893Y-67712331D01*
X103479899Y-67712327D01*
X103484464Y-67710091D01*
X103562089Y-67654722D01*
X103674502Y-67574538D01*
X103678645Y-67571583D01*
X103847597Y-67403220D01*
X103986782Y-67209523D01*
X104092463Y-66995695D01*
X104161800Y-66767477D01*
X104185791Y-66585250D01*
X104192502Y-66534274D01*
X104192502Y-66534271D01*
X104192933Y-66530999D01*
X104194671Y-66459900D01*
X104191748Y-66424340D01*
X106364163Y-66424340D01*
X106364456Y-66429422D01*
X106364456Y-66429423D01*
X106372914Y-66576103D01*
X106377894Y-66662462D01*
X106430331Y-66895145D01*
X106432244Y-66899856D01*
X106510018Y-67091390D01*
X106520067Y-67116139D01*
X106522729Y-67120483D01*
X106642031Y-67315166D01*
X106642035Y-67315171D01*
X106644693Y-67319509D01*
X106648025Y-67323355D01*
X106648026Y-67323357D01*
X106786390Y-67483089D01*
X106800860Y-67499794D01*
X106804770Y-67503040D01*
X106804774Y-67503044D01*
X106950419Y-67623960D01*
X106984376Y-67652152D01*
X107190312Y-67772491D01*
X107195065Y-67774306D01*
X107195067Y-67774307D01*
X107224997Y-67785736D01*
X107413137Y-67857580D01*
X107533671Y-67882103D01*
X107641881Y-67904119D01*
X107641884Y-67904119D01*
X107646866Y-67905133D01*
X107802574Y-67910842D01*
X107880146Y-67913687D01*
X107880149Y-67913687D01*
X107885225Y-67913873D01*
X108121809Y-67883565D01*
X108126680Y-67882104D01*
X108126683Y-67882103D01*
X108273854Y-67837950D01*
X108350268Y-67815025D01*
X108410054Y-67785736D01*
X108559893Y-67712331D01*
X108559899Y-67712327D01*
X108564464Y-67710091D01*
X108642089Y-67654722D01*
X108754502Y-67574538D01*
X108758645Y-67571583D01*
X108927597Y-67403220D01*
X109066782Y-67209523D01*
X109172463Y-66995695D01*
X109241800Y-66767477D01*
X109265791Y-66585250D01*
X109272502Y-66534274D01*
X109272502Y-66534271D01*
X109272933Y-66530999D01*
X109274671Y-66459900D01*
X109271748Y-66424340D01*
X111444163Y-66424340D01*
X111444456Y-66429422D01*
X111444456Y-66429423D01*
X111452914Y-66576103D01*
X111457894Y-66662462D01*
X111510331Y-66895145D01*
X111512244Y-66899856D01*
X111590018Y-67091390D01*
X111600067Y-67116139D01*
X111602729Y-67120483D01*
X111722031Y-67315166D01*
X111722035Y-67315171D01*
X111724693Y-67319509D01*
X111728025Y-67323355D01*
X111728026Y-67323357D01*
X111866390Y-67483089D01*
X111880860Y-67499794D01*
X111884770Y-67503040D01*
X111884774Y-67503044D01*
X112030419Y-67623960D01*
X112064376Y-67652152D01*
X112270312Y-67772491D01*
X112275065Y-67774306D01*
X112275067Y-67774307D01*
X112304997Y-67785736D01*
X112493137Y-67857580D01*
X112613671Y-67882103D01*
X112721881Y-67904119D01*
X112721884Y-67904119D01*
X112726866Y-67905133D01*
X112882574Y-67910842D01*
X112960146Y-67913687D01*
X112960149Y-67913687D01*
X112965225Y-67913873D01*
X113201809Y-67883565D01*
X113206680Y-67882104D01*
X113206683Y-67882103D01*
X113353854Y-67837950D01*
X113430268Y-67815025D01*
X113490054Y-67785736D01*
X113639893Y-67712331D01*
X113639899Y-67712327D01*
X113644464Y-67710091D01*
X113722089Y-67654722D01*
X113834502Y-67574538D01*
X113838645Y-67571583D01*
X114007597Y-67403220D01*
X114146782Y-67209523D01*
X114252463Y-66995695D01*
X114321800Y-66767477D01*
X114345791Y-66585250D01*
X114352502Y-66534274D01*
X114352502Y-66534271D01*
X114352933Y-66530999D01*
X114354671Y-66459900D01*
X114351748Y-66424340D01*
X116524163Y-66424340D01*
X116524456Y-66429422D01*
X116524456Y-66429423D01*
X116532914Y-66576103D01*
X116537894Y-66662462D01*
X116590331Y-66895145D01*
X116592244Y-66899856D01*
X116670018Y-67091390D01*
X116680067Y-67116139D01*
X116682729Y-67120483D01*
X116802031Y-67315166D01*
X116802035Y-67315171D01*
X116804693Y-67319509D01*
X116808025Y-67323355D01*
X116808026Y-67323357D01*
X116946390Y-67483089D01*
X116960860Y-67499794D01*
X116964770Y-67503040D01*
X116964774Y-67503044D01*
X117110419Y-67623960D01*
X117144376Y-67652152D01*
X117350312Y-67772491D01*
X117355065Y-67774306D01*
X117355067Y-67774307D01*
X117384997Y-67785736D01*
X117573137Y-67857580D01*
X117693671Y-67882103D01*
X117801881Y-67904119D01*
X117801884Y-67904119D01*
X117806866Y-67905133D01*
X117962574Y-67910842D01*
X118040146Y-67913687D01*
X118040149Y-67913687D01*
X118045225Y-67913873D01*
X118281809Y-67883565D01*
X118286680Y-67882104D01*
X118286683Y-67882103D01*
X118433854Y-67837950D01*
X118510268Y-67815025D01*
X118570054Y-67785736D01*
X118719893Y-67712331D01*
X118719899Y-67712327D01*
X118724464Y-67710091D01*
X118802089Y-67654722D01*
X118914502Y-67574538D01*
X118918645Y-67571583D01*
X119087597Y-67403220D01*
X119226782Y-67209523D01*
X119332463Y-66995695D01*
X119401800Y-66767477D01*
X119425791Y-66585250D01*
X119432502Y-66534274D01*
X119432502Y-66534271D01*
X119432933Y-66530999D01*
X119434671Y-66459900D01*
X119431748Y-66424340D01*
X121604163Y-66424340D01*
X121604456Y-66429422D01*
X121604456Y-66429423D01*
X121612914Y-66576103D01*
X121617894Y-66662462D01*
X121670331Y-66895145D01*
X121672244Y-66899856D01*
X121750018Y-67091390D01*
X121760067Y-67116139D01*
X121762729Y-67120483D01*
X121882031Y-67315166D01*
X121882035Y-67315171D01*
X121884693Y-67319509D01*
X121888025Y-67323355D01*
X121888026Y-67323357D01*
X122026390Y-67483089D01*
X122040860Y-67499794D01*
X122044770Y-67503040D01*
X122044774Y-67503044D01*
X122190419Y-67623960D01*
X122224376Y-67652152D01*
X122430312Y-67772491D01*
X122435065Y-67774306D01*
X122435067Y-67774307D01*
X122464997Y-67785736D01*
X122653137Y-67857580D01*
X122773671Y-67882103D01*
X122881881Y-67904119D01*
X122881884Y-67904119D01*
X122886866Y-67905133D01*
X123042574Y-67910842D01*
X123120146Y-67913687D01*
X123120149Y-67913687D01*
X123125225Y-67913873D01*
X123361809Y-67883565D01*
X123366680Y-67882104D01*
X123366683Y-67882103D01*
X123513854Y-67837950D01*
X123590268Y-67815025D01*
X123650054Y-67785736D01*
X123799893Y-67712331D01*
X123799899Y-67712327D01*
X123804464Y-67710091D01*
X123882089Y-67654722D01*
X123994502Y-67574538D01*
X123998645Y-67571583D01*
X124167597Y-67403220D01*
X124306782Y-67209523D01*
X124412463Y-66995695D01*
X124481800Y-66767477D01*
X124505791Y-66585250D01*
X124512502Y-66534274D01*
X124512502Y-66534271D01*
X124512933Y-66530999D01*
X124514671Y-66459900D01*
X124511748Y-66424340D01*
X126684163Y-66424340D01*
X126684456Y-66429422D01*
X126684456Y-66429423D01*
X126692914Y-66576103D01*
X126697894Y-66662462D01*
X126750331Y-66895145D01*
X126752244Y-66899856D01*
X126830018Y-67091390D01*
X126840067Y-67116139D01*
X126842729Y-67120483D01*
X126962031Y-67315166D01*
X126962035Y-67315171D01*
X126964693Y-67319509D01*
X126968025Y-67323355D01*
X126968026Y-67323357D01*
X127106390Y-67483089D01*
X127120860Y-67499794D01*
X127124770Y-67503040D01*
X127124774Y-67503044D01*
X127270419Y-67623960D01*
X127304376Y-67652152D01*
X127510312Y-67772491D01*
X127515065Y-67774306D01*
X127515067Y-67774307D01*
X127544997Y-67785736D01*
X127733137Y-67857580D01*
X127853671Y-67882103D01*
X127961881Y-67904119D01*
X127961884Y-67904119D01*
X127966866Y-67905133D01*
X128122574Y-67910842D01*
X128200146Y-67913687D01*
X128200149Y-67913687D01*
X128205225Y-67913873D01*
X128441809Y-67883565D01*
X128446680Y-67882104D01*
X128446683Y-67882103D01*
X128593854Y-67837950D01*
X128670268Y-67815025D01*
X128730054Y-67785736D01*
X128879893Y-67712331D01*
X128879899Y-67712327D01*
X128884464Y-67710091D01*
X128962089Y-67654722D01*
X129074502Y-67574538D01*
X129078645Y-67571583D01*
X129247597Y-67403220D01*
X129386782Y-67209523D01*
X129492463Y-66995695D01*
X129561800Y-66767477D01*
X129585791Y-66585250D01*
X129592502Y-66534274D01*
X129592502Y-66534271D01*
X129592933Y-66530999D01*
X129594671Y-66459900D01*
X129591748Y-66424340D01*
X129577723Y-66253760D01*
X129575127Y-66222184D01*
X129517021Y-65990852D01*
X129421912Y-65772116D01*
X129356900Y-65671623D01*
X129295117Y-65576120D01*
X129295115Y-65576118D01*
X129292355Y-65571851D01*
X129131829Y-65395436D01*
X129127844Y-65392289D01*
X129127841Y-65392286D01*
X129116411Y-65383259D01*
X131768700Y-65383259D01*
X131768701Y-66460677D01*
X131768701Y-67541418D01*
X131783554Y-67635204D01*
X131841150Y-67748242D01*
X131930858Y-67837950D01*
X132043896Y-67895546D01*
X132073133Y-67900177D01*
X132132861Y-67909637D01*
X132132866Y-67909637D01*
X132137681Y-67910400D01*
X132142559Y-67910400D01*
X133219976Y-67910399D01*
X134300718Y-67910399D01*
X134373351Y-67898896D01*
X134384869Y-67897072D01*
X134384870Y-67897072D01*
X134394504Y-67895546D01*
X134507542Y-67837950D01*
X134597250Y-67748242D01*
X134654846Y-67635204D01*
X134659477Y-67605967D01*
X134668937Y-67546239D01*
X134668937Y-67546234D01*
X134669700Y-67541419D01*
X134669700Y-66459900D01*
X134669699Y-65383253D01*
X134669699Y-65378382D01*
X134654846Y-65284596D01*
X134597250Y-65171558D01*
X134507542Y-65081850D01*
X134394504Y-65024254D01*
X134365267Y-65019623D01*
X134305539Y-65010163D01*
X134305534Y-65010163D01*
X134300719Y-65009400D01*
X134295841Y-65009400D01*
X133218424Y-65009401D01*
X132137682Y-65009401D01*
X132065049Y-65020904D01*
X132053531Y-65022728D01*
X132053530Y-65022728D01*
X132043896Y-65024254D01*
X131930858Y-65081850D01*
X131841150Y-65171558D01*
X131783554Y-65284596D01*
X131782027Y-65294238D01*
X131769790Y-65371502D01*
X131768700Y-65378381D01*
X131768700Y-65383259D01*
X129116411Y-65383259D01*
X128954115Y-65255086D01*
X128944645Y-65247607D01*
X128794379Y-65164656D01*
X128740286Y-65134795D01*
X128740283Y-65134794D01*
X128735831Y-65132336D01*
X128510994Y-65052717D01*
X128342640Y-65022728D01*
X128281180Y-65011780D01*
X128281179Y-65011780D01*
X128276172Y-65010888D01*
X128186679Y-65009795D01*
X128042760Y-65008036D01*
X128042758Y-65008036D01*
X128037671Y-65007974D01*
X128032641Y-65008744D01*
X128032637Y-65008744D01*
X127902326Y-65028685D01*
X127801898Y-65044053D01*
X127797070Y-65045631D01*
X127797066Y-65045632D01*
X127778119Y-65051825D01*
X127575182Y-65118155D01*
X127363614Y-65228290D01*
X127359546Y-65231344D01*
X127359545Y-65231345D01*
X127176946Y-65368445D01*
X127176943Y-65368447D01*
X127172875Y-65371502D01*
X127169361Y-65375179D01*
X127169360Y-65375180D01*
X127091360Y-65456802D01*
X127008087Y-65543942D01*
X127005220Y-65548144D01*
X127005219Y-65548146D01*
X126918791Y-65674844D01*
X126873675Y-65740982D01*
X126773251Y-65957328D01*
X126709509Y-66187172D01*
X126684163Y-66424340D01*
X124511748Y-66424340D01*
X124497723Y-66253760D01*
X124495127Y-66222184D01*
X124437021Y-65990852D01*
X124341912Y-65772116D01*
X124276900Y-65671623D01*
X124215117Y-65576120D01*
X124215115Y-65576118D01*
X124212355Y-65571851D01*
X124051829Y-65395436D01*
X124047844Y-65392289D01*
X124047841Y-65392286D01*
X123874115Y-65255086D01*
X123864645Y-65247607D01*
X123714379Y-65164656D01*
X123660286Y-65134795D01*
X123660283Y-65134794D01*
X123655831Y-65132336D01*
X123430994Y-65052717D01*
X123262640Y-65022728D01*
X123201180Y-65011780D01*
X123201179Y-65011780D01*
X123196172Y-65010888D01*
X123106679Y-65009795D01*
X122962760Y-65008036D01*
X122962758Y-65008036D01*
X122957671Y-65007974D01*
X122952641Y-65008744D01*
X122952637Y-65008744D01*
X122822326Y-65028685D01*
X122721898Y-65044053D01*
X122717070Y-65045631D01*
X122717066Y-65045632D01*
X122698119Y-65051825D01*
X122495182Y-65118155D01*
X122283614Y-65228290D01*
X122279546Y-65231344D01*
X122279545Y-65231345D01*
X122096946Y-65368445D01*
X122096943Y-65368447D01*
X122092875Y-65371502D01*
X122089361Y-65375179D01*
X122089360Y-65375180D01*
X122011360Y-65456802D01*
X121928087Y-65543942D01*
X121925220Y-65548144D01*
X121925219Y-65548146D01*
X121838791Y-65674844D01*
X121793675Y-65740982D01*
X121693251Y-65957328D01*
X121629509Y-66187172D01*
X121604163Y-66424340D01*
X119431748Y-66424340D01*
X119417723Y-66253760D01*
X119415127Y-66222184D01*
X119357021Y-65990852D01*
X119261912Y-65772116D01*
X119196900Y-65671623D01*
X119135117Y-65576120D01*
X119135115Y-65576118D01*
X119132355Y-65571851D01*
X118971829Y-65395436D01*
X118967844Y-65392289D01*
X118967841Y-65392286D01*
X118794115Y-65255086D01*
X118784645Y-65247607D01*
X118634379Y-65164656D01*
X118580286Y-65134795D01*
X118580283Y-65134794D01*
X118575831Y-65132336D01*
X118350994Y-65052717D01*
X118182640Y-65022728D01*
X118121180Y-65011780D01*
X118121179Y-65011780D01*
X118116172Y-65010888D01*
X118026679Y-65009795D01*
X117882760Y-65008036D01*
X117882758Y-65008036D01*
X117877671Y-65007974D01*
X117872641Y-65008744D01*
X117872637Y-65008744D01*
X117742326Y-65028685D01*
X117641898Y-65044053D01*
X117637070Y-65045631D01*
X117637066Y-65045632D01*
X117618119Y-65051825D01*
X117415182Y-65118155D01*
X117203614Y-65228290D01*
X117199546Y-65231344D01*
X117199545Y-65231345D01*
X117016946Y-65368445D01*
X117016943Y-65368447D01*
X117012875Y-65371502D01*
X117009361Y-65375179D01*
X117009360Y-65375180D01*
X116931360Y-65456802D01*
X116848087Y-65543942D01*
X116845220Y-65548144D01*
X116845219Y-65548146D01*
X116758791Y-65674844D01*
X116713675Y-65740982D01*
X116613251Y-65957328D01*
X116549509Y-66187172D01*
X116524163Y-66424340D01*
X114351748Y-66424340D01*
X114337723Y-66253760D01*
X114335127Y-66222184D01*
X114277021Y-65990852D01*
X114181912Y-65772116D01*
X114116900Y-65671623D01*
X114055117Y-65576120D01*
X114055115Y-65576118D01*
X114052355Y-65571851D01*
X113891829Y-65395436D01*
X113887844Y-65392289D01*
X113887841Y-65392286D01*
X113714115Y-65255086D01*
X113704645Y-65247607D01*
X113554379Y-65164656D01*
X113500286Y-65134795D01*
X113500283Y-65134794D01*
X113495831Y-65132336D01*
X113270994Y-65052717D01*
X113102640Y-65022728D01*
X113041180Y-65011780D01*
X113041179Y-65011780D01*
X113036172Y-65010888D01*
X112946679Y-65009795D01*
X112802760Y-65008036D01*
X112802758Y-65008036D01*
X112797671Y-65007974D01*
X112792641Y-65008744D01*
X112792637Y-65008744D01*
X112662326Y-65028685D01*
X112561898Y-65044053D01*
X112557070Y-65045631D01*
X112557066Y-65045632D01*
X112538119Y-65051825D01*
X112335182Y-65118155D01*
X112123614Y-65228290D01*
X112119546Y-65231344D01*
X112119545Y-65231345D01*
X111936946Y-65368445D01*
X111936943Y-65368447D01*
X111932875Y-65371502D01*
X111929361Y-65375179D01*
X111929360Y-65375180D01*
X111851360Y-65456802D01*
X111768087Y-65543942D01*
X111765220Y-65548144D01*
X111765219Y-65548146D01*
X111678791Y-65674844D01*
X111633675Y-65740982D01*
X111533251Y-65957328D01*
X111469509Y-66187172D01*
X111444163Y-66424340D01*
X109271748Y-66424340D01*
X109257723Y-66253760D01*
X109255127Y-66222184D01*
X109197021Y-65990852D01*
X109101912Y-65772116D01*
X109036900Y-65671623D01*
X108975117Y-65576120D01*
X108975115Y-65576118D01*
X108972355Y-65571851D01*
X108811829Y-65395436D01*
X108807844Y-65392289D01*
X108807841Y-65392286D01*
X108634115Y-65255086D01*
X108624645Y-65247607D01*
X108474379Y-65164656D01*
X108420286Y-65134795D01*
X108420283Y-65134794D01*
X108415831Y-65132336D01*
X108190994Y-65052717D01*
X108022640Y-65022728D01*
X107961180Y-65011780D01*
X107961179Y-65011780D01*
X107956172Y-65010888D01*
X107866679Y-65009795D01*
X107722760Y-65008036D01*
X107722758Y-65008036D01*
X107717671Y-65007974D01*
X107712641Y-65008744D01*
X107712637Y-65008744D01*
X107582326Y-65028685D01*
X107481898Y-65044053D01*
X107477070Y-65045631D01*
X107477066Y-65045632D01*
X107458119Y-65051825D01*
X107255182Y-65118155D01*
X107043614Y-65228290D01*
X107039546Y-65231344D01*
X107039545Y-65231345D01*
X106856946Y-65368445D01*
X106856943Y-65368447D01*
X106852875Y-65371502D01*
X106849361Y-65375179D01*
X106849360Y-65375180D01*
X106771360Y-65456802D01*
X106688087Y-65543942D01*
X106685220Y-65548144D01*
X106685219Y-65548146D01*
X106598791Y-65674844D01*
X106553675Y-65740982D01*
X106453251Y-65957328D01*
X106389509Y-66187172D01*
X106364163Y-66424340D01*
X104191748Y-66424340D01*
X104177723Y-66253760D01*
X104175127Y-66222184D01*
X104117021Y-65990852D01*
X104021912Y-65772116D01*
X103956900Y-65671623D01*
X103895117Y-65576120D01*
X103895115Y-65576118D01*
X103892355Y-65571851D01*
X103731829Y-65395436D01*
X103727844Y-65392289D01*
X103727841Y-65392286D01*
X103554115Y-65255086D01*
X103544645Y-65247607D01*
X103394379Y-65164656D01*
X103340286Y-65134795D01*
X103340283Y-65134794D01*
X103335831Y-65132336D01*
X103110994Y-65052717D01*
X102942640Y-65022728D01*
X102881180Y-65011780D01*
X102881179Y-65011780D01*
X102876172Y-65010888D01*
X102786679Y-65009795D01*
X102642760Y-65008036D01*
X102642758Y-65008036D01*
X102637671Y-65007974D01*
X102632641Y-65008744D01*
X102632637Y-65008744D01*
X102502326Y-65028685D01*
X102401898Y-65044053D01*
X102397070Y-65045631D01*
X102397066Y-65045632D01*
X102378119Y-65051825D01*
X102175182Y-65118155D01*
X101963614Y-65228290D01*
X101959546Y-65231344D01*
X101959545Y-65231345D01*
X101776946Y-65368445D01*
X101776943Y-65368447D01*
X101772875Y-65371502D01*
X101769361Y-65375179D01*
X101769360Y-65375180D01*
X101691360Y-65456802D01*
X101608087Y-65543942D01*
X101605220Y-65548144D01*
X101605219Y-65548146D01*
X101518791Y-65674844D01*
X101473675Y-65740982D01*
X101373251Y-65957328D01*
X101309509Y-66187172D01*
X101284163Y-66424340D01*
X99111748Y-66424340D01*
X99097723Y-66253760D01*
X99095127Y-66222184D01*
X99037021Y-65990852D01*
X98941912Y-65772116D01*
X98876900Y-65671623D01*
X98815117Y-65576120D01*
X98815115Y-65576118D01*
X98812355Y-65571851D01*
X98651829Y-65395436D01*
X98647844Y-65392289D01*
X98647841Y-65392286D01*
X98474115Y-65255086D01*
X98464645Y-65247607D01*
X98314379Y-65164656D01*
X98260286Y-65134795D01*
X98260283Y-65134794D01*
X98255831Y-65132336D01*
X98030994Y-65052717D01*
X97862640Y-65022728D01*
X97801180Y-65011780D01*
X97801179Y-65011780D01*
X97796172Y-65010888D01*
X97706679Y-65009795D01*
X97562760Y-65008036D01*
X97562758Y-65008036D01*
X97557671Y-65007974D01*
X97552641Y-65008744D01*
X97552637Y-65008744D01*
X97422326Y-65028685D01*
X97321898Y-65044053D01*
X97317070Y-65045631D01*
X97317066Y-65045632D01*
X97298119Y-65051825D01*
X97095182Y-65118155D01*
X96883614Y-65228290D01*
X96879546Y-65231344D01*
X96879545Y-65231345D01*
X96696946Y-65368445D01*
X96696943Y-65368447D01*
X96692875Y-65371502D01*
X96689361Y-65375179D01*
X96689360Y-65375180D01*
X96611360Y-65456802D01*
X96528087Y-65543942D01*
X96525220Y-65548144D01*
X96525219Y-65548146D01*
X96438791Y-65674844D01*
X96393675Y-65740982D01*
X96293251Y-65957328D01*
X96229509Y-66187172D01*
X96204163Y-66424340D01*
X91774790Y-66424340D01*
X91809446Y-66362457D01*
X91820963Y-66328531D01*
X91857062Y-66222184D01*
X91878122Y-66160143D01*
X91884783Y-66114208D01*
X91908257Y-65952307D01*
X91908780Y-65948701D01*
X91910380Y-65887600D01*
X91890830Y-65674844D01*
X91832836Y-65469213D01*
X91830324Y-65464119D01*
X91830322Y-65464114D01*
X91746548Y-65294238D01*
X91738340Y-65277593D01*
X91610507Y-65106403D01*
X91606337Y-65102548D01*
X91606334Y-65102545D01*
X91457793Y-64965236D01*
X91457791Y-64965235D01*
X91453617Y-64961376D01*
X91272925Y-64847368D01*
X91250632Y-64838474D01*
X91195659Y-64795349D01*
X91172729Y-64729350D01*
X91189120Y-64661430D01*
X91239630Y-64613154D01*
X91296364Y-64599302D01*
X91477143Y-64598985D01*
X95351600Y-64592200D01*
X95351600Y-59178847D01*
X95371285Y-59111808D01*
X95424089Y-59066053D01*
X95475446Y-59054847D01*
X136222990Y-59004354D01*
X136290054Y-59023956D01*
G37*
%TD.AperFunction*%
%TD*%
M02*
