%TF.GenerationSoftware,KiCad,Pcbnew,(6.0.10)*%
%TF.CreationDate,2022-12-26T22:41:12+13:00*%
%TF.ProjectId,esphome_shunt_monitor_ina226,65737068-6f6d-4655-9f73-68756e745f6d,rev?*%
%TF.SameCoordinates,Original*%
%TF.FileFunction,Soldermask,Bot*%
%TF.FilePolarity,Negative*%
%FSLAX46Y46*%
G04 Gerber Fmt 4.6, Leading zero omitted, Abs format (unit mm)*
G04 Created by KiCad (PCBNEW (6.0.10)) date 2022-12-26 22:41:12*
%MOMM*%
%LPD*%
G01*
G04 APERTURE LIST*
G04 Aperture macros list*
%AMRoundRect*
0 Rectangle with rounded corners*
0 $1 Rounding radius*
0 $2 $3 $4 $5 $6 $7 $8 $9 X,Y pos of 4 corners*
0 Add a 4 corners polygon primitive as box body*
4,1,4,$2,$3,$4,$5,$6,$7,$8,$9,$2,$3,0*
0 Add four circle primitives for the rounded corners*
1,1,$1+$1,$2,$3*
1,1,$1+$1,$4,$5*
1,1,$1+$1,$6,$7*
1,1,$1+$1,$8,$9*
0 Add four rect primitives between the rounded corners*
20,1,$1+$1,$2,$3,$4,$5,0*
20,1,$1+$1,$4,$5,$6,$7,0*
20,1,$1+$1,$6,$7,$8,$9,0*
20,1,$1+$1,$8,$9,$2,$3,0*%
G04 Aperture macros list end*
%ADD10RoundRect,0.075000X0.650000X0.075000X-0.650000X0.075000X-0.650000X-0.075000X0.650000X-0.075000X0*%
%ADD11C,1.524000*%
%ADD12R,2.100000X2.100000*%
%ADD13C,2.100000*%
%ADD14RoundRect,0.200000X0.200000X0.275000X-0.200000X0.275000X-0.200000X-0.275000X0.200000X-0.275000X0*%
%ADD15RoundRect,0.075000X-0.650000X-0.075000X0.650000X-0.075000X0.650000X0.075000X-0.650000X0.075000X0*%
%ADD16RoundRect,0.225000X0.225000X0.250000X-0.225000X0.250000X-0.225000X-0.250000X0.225000X-0.250000X0*%
%ADD17RoundRect,0.200000X-0.200000X-0.275000X0.200000X-0.275000X0.200000X0.275000X-0.200000X0.275000X0*%
%ADD18RoundRect,0.225000X-0.225000X-0.250000X0.225000X-0.250000X0.225000X0.250000X-0.225000X0.250000X0*%
%ADD19C,2.300000*%
%ADD20R,2.300000X2.000000*%
G04 APERTURE END LIST*
D10*
%TO.C,U2*%
X109404211Y-77232000D03*
X109404211Y-77732000D03*
X109404211Y-78232000D03*
X109404211Y-78732000D03*
X109404211Y-79232000D03*
X113804211Y-79232000D03*
X113804211Y-78732000D03*
X113804211Y-78232000D03*
X113804211Y-77732000D03*
X113804211Y-77232000D03*
%TD*%
D11*
%TO.C,TTGO1*%
X90742900Y-93827600D03*
X90742900Y-91287600D03*
X90742900Y-88747600D03*
X90742900Y-86207600D03*
X90742900Y-83667600D03*
X90742900Y-81127600D03*
X90742900Y-78587600D03*
X90742900Y-76047600D03*
X90742900Y-73507600D03*
X90742900Y-70967600D03*
X90742900Y-68427600D03*
X90742900Y-65887600D03*
X67882900Y-65887600D03*
X67882900Y-68427600D03*
X67882900Y-70967600D03*
X67882900Y-73507600D03*
X67882900Y-76047600D03*
X67882900Y-78587600D03*
X67882900Y-81127600D03*
X67882900Y-83667600D03*
X67882900Y-86207600D03*
X67882900Y-88747600D03*
X67882900Y-91287600D03*
X67882900Y-93827600D03*
%TD*%
D12*
%TO.C,J11*%
X133219200Y-74079900D03*
D13*
X128139200Y-74079900D03*
X123059200Y-74079900D03*
X117979200Y-74079900D03*
X112899200Y-74079900D03*
X107819200Y-74079900D03*
X102739200Y-74079900D03*
X97659200Y-74079900D03*
D12*
X133219200Y-66459900D03*
D13*
X128139200Y-66459900D03*
X123059200Y-66459900D03*
X117979200Y-66459900D03*
X112899200Y-66459900D03*
X107819200Y-66459900D03*
X102739200Y-66459900D03*
X97659200Y-66459900D03*
%TD*%
D12*
%TO.C,J1*%
X95228400Y-99757700D03*
D13*
X100308400Y-99757700D03*
X105388400Y-99757700D03*
X110468400Y-99757700D03*
X115548400Y-99757700D03*
X120628400Y-99757700D03*
X125708400Y-99757700D03*
X130788400Y-99757700D03*
D12*
X95228400Y-107377700D03*
D13*
X100308400Y-107377700D03*
X105388400Y-107377700D03*
X110468400Y-107377700D03*
X115548400Y-107377700D03*
X120628400Y-107377700D03*
X125708400Y-107377700D03*
X130788400Y-107377700D03*
%TD*%
D14*
%TO.C,R6*%
X100774000Y-92583000D03*
X99124000Y-92583000D03*
%TD*%
%TO.C,R5*%
X100774000Y-90551000D03*
X99124000Y-90551000D03*
%TD*%
D15*
%TO.C,U7*%
X117688000Y-96250000D03*
X117688000Y-95750000D03*
X117688000Y-95250000D03*
X117688000Y-94750000D03*
X117688000Y-94250000D03*
X122088000Y-94250000D03*
X122088000Y-94750000D03*
X122088000Y-95250000D03*
X122088000Y-95750000D03*
X122088000Y-96250000D03*
%TD*%
%TO.C,U6*%
X108798000Y-96250000D03*
X108798000Y-95750000D03*
X108798000Y-95250000D03*
X108798000Y-94750000D03*
X108798000Y-94250000D03*
X113198000Y-94250000D03*
X113198000Y-94750000D03*
X113198000Y-95250000D03*
X113198000Y-95750000D03*
X113198000Y-96250000D03*
%TD*%
D16*
%TO.C,C7*%
X122060000Y-92583000D03*
X120510000Y-92583000D03*
%TD*%
%TO.C,C6*%
X113170000Y-92583000D03*
X111620000Y-92583000D03*
%TD*%
D17*
%TO.C,R4*%
X131952000Y-92964000D03*
X130302000Y-92964000D03*
%TD*%
%TO.C,R3*%
X126683000Y-92964000D03*
X128333000Y-92964000D03*
%TD*%
%TO.C,R2*%
X130302000Y-96012000D03*
X131952000Y-96012000D03*
%TD*%
%TO.C,R1*%
X126683000Y-96012000D03*
X128333000Y-96012000D03*
%TD*%
D18*
%TO.C,C4*%
X128482211Y-80899000D03*
X130032211Y-80899000D03*
%TD*%
D15*
%TO.C,U5*%
X99654000Y-96250000D03*
X99654000Y-95750000D03*
X99654000Y-95250000D03*
X99654000Y-94750000D03*
X99654000Y-94250000D03*
X104054000Y-94250000D03*
X104054000Y-94750000D03*
X104054000Y-95250000D03*
X104054000Y-95750000D03*
X104054000Y-96250000D03*
%TD*%
D10*
%TO.C,U4*%
X132981211Y-77232000D03*
X132981211Y-77732000D03*
X132981211Y-78232000D03*
X132981211Y-78732000D03*
X132981211Y-79232000D03*
X128581211Y-79232000D03*
X128581211Y-78732000D03*
X128581211Y-78232000D03*
X128581211Y-77732000D03*
X128581211Y-77232000D03*
%TD*%
%TO.C,U3*%
X123964211Y-77232000D03*
X123964211Y-77732000D03*
X123964211Y-78232000D03*
X123964211Y-78732000D03*
X123964211Y-79232000D03*
X119564211Y-79232000D03*
X119564211Y-78732000D03*
X119564211Y-78232000D03*
X119564211Y-77732000D03*
X119564211Y-77232000D03*
%TD*%
D19*
%TO.C,PS1*%
X96076000Y-79208000D03*
X96076000Y-94608000D03*
X125476000Y-84408000D03*
D20*
X125476000Y-89408000D03*
%TD*%
D16*
%TO.C,C5*%
X104026000Y-92583000D03*
X102476000Y-92583000D03*
%TD*%
D18*
%TO.C,C3*%
X119592211Y-80899000D03*
X121142211Y-80899000D03*
%TD*%
%TO.C,C2*%
X109432211Y-80899000D03*
X110982211Y-80899000D03*
%TD*%
%TO.C,C1*%
X101050211Y-80899000D03*
X102600211Y-80899000D03*
%TD*%
D10*
%TO.C,U1*%
X101022211Y-77232000D03*
X101022211Y-77732000D03*
X101022211Y-78232000D03*
X101022211Y-78732000D03*
X101022211Y-79232000D03*
X105422211Y-79232000D03*
X105422211Y-78732000D03*
X105422211Y-78232000D03*
X105422211Y-77732000D03*
X105422211Y-77232000D03*
%TD*%
M02*
