M48
; DRILL file {KiCad (6.0.10)} date Mon Dec 26 22:41:30 2022
; FORMAT={-:-/ absolute / inch / decimal}
; #@! TF.CreationDate,2022-12-26T22:41:30+13:00
; #@! TF.GenerationSoftware,Kicad,Pcbnew,(6.0.10)
; #@! TF.FileFunction,MixedPlating,1,2
FMAT,2
INCH
; #@! TA.AperFunction,Plated,PTH,ViaDrill
T1C0.0157
; #@! TA.AperFunction,Plated,PTH,ComponentDrill
T2C0.0300
; #@! TA.AperFunction,Plated,PTH,ComponentDrill
T3C0.0394
; #@! TA.AperFunction,Plated,PTH,ComponentDrill
T4C0.0551
%
G90
G05
T1
X3.865Y-3.705
X3.9319Y-3.186
X3.968Y-3.478
X3.97Y-3.71
X4.0294Y-3.063
X4.04Y-3.767
X4.0989Y-3.12
X4.151Y-3.642
X4.2012Y-3.0915
X4.226Y-3.7385
X4.2589Y-3.187
X4.34Y-3.71
X4.3594Y-3.0615
X4.394Y-3.769
X4.4339Y-3.12
X4.508Y-3.644
X4.5439Y-3.09
X4.574Y-3.74
X4.6579Y-3.186
X4.68Y-3.71
X4.7528Y-3.7528
X4.7619Y-3.0615
X4.775Y-3.59
X4.8289Y-3.12
X4.9419Y-3.0915
X5.0079Y-3.187
X5.093Y-3.78
X5.1179Y-3.063
X5.1839Y-3.12
X5.2979Y-3.1
T2
X2.6726Y-2.594
X2.6726Y-2.694
X2.6726Y-2.794
X2.6726Y-2.894
X2.6726Y-2.994
X2.6726Y-3.094
X2.6726Y-3.194
X2.6726Y-3.294
X2.6726Y-3.394
X2.6726Y-3.494
X2.6726Y-3.594
X2.6726Y-3.694
X3.5726Y-2.594
X3.5726Y-2.694
X3.5726Y-2.794
X3.5726Y-2.894
X3.5726Y-2.994
X3.5726Y-3.094
X3.5726Y-3.194
X3.5726Y-3.294
X3.5726Y-3.394
X3.5726Y-3.494
X3.5726Y-3.594
X3.5726Y-3.694
T3
X3.7825Y-3.1184
X3.7825Y-3.7247
X4.94Y-3.3231
X4.94Y-3.52
T4
X3.7491Y-3.9275
X3.7491Y-4.2275
X3.8449Y-2.6165
X3.8449Y-2.9165
X3.9491Y-3.9275
X3.9491Y-4.2275
X4.0449Y-2.6165
X4.0449Y-2.9165
X4.1491Y-3.9275
X4.1491Y-4.2275
X4.2449Y-2.6165
X4.2449Y-2.9165
X4.3491Y-3.9275
X4.3491Y-4.2275
X4.4449Y-2.6165
X4.4449Y-2.9165
X4.5491Y-3.9275
X4.5491Y-4.2275
X4.6449Y-2.6165
X4.6449Y-2.9165
X4.7491Y-3.9275
X4.7491Y-4.2275
X4.8449Y-2.6165
X4.8449Y-2.9165
X4.9491Y-3.9275
X4.9491Y-4.2275
X5.0449Y-2.6165
X5.0449Y-2.9165
X5.1491Y-3.9275
X5.1491Y-4.2275
X5.2449Y-2.6165
X5.2449Y-2.9165
T0
M30
