%TF.GenerationSoftware,KiCad,Pcbnew,(6.0.10)*%
%TF.CreationDate,2022-12-26T22:40:19+13:00*%
%TF.ProjectId,esphome_shunt_monitor_ina226,65737068-6f6d-4655-9f73-68756e745f6d,rev?*%
%TF.SameCoordinates,Original*%
%TF.FileFunction,Legend,Top*%
%TF.FilePolarity,Positive*%
%FSLAX46Y46*%
G04 Gerber Fmt 4.6, Leading zero omitted, Abs format (unit mm)*
G04 Created by KiCad (PCBNEW (6.0.10)) date 2022-12-26 22:40:19*
%MOMM*%
%LPD*%
G01*
G04 APERTURE LIST*
%ADD10C,0.150000*%
%ADD11C,0.300000*%
%ADD12C,0.100000*%
%ADD13C,0.127000*%
%ADD14C,0.200000*%
%ADD15C,0.120000*%
G04 APERTURE END LIST*
D10*
X67430828Y-113730114D02*
X67668923Y-114396780D01*
X67907019Y-113730114D01*
X68811780Y-114396780D02*
X68240352Y-114396780D01*
X68526066Y-114396780D02*
X68526066Y-113396780D01*
X68430828Y-113539638D01*
X68335590Y-113634876D01*
X68240352Y-113682495D01*
X69240352Y-114301542D02*
X69287971Y-114349161D01*
X69240352Y-114396780D01*
X69192733Y-114349161D01*
X69240352Y-114301542D01*
X69240352Y-114396780D01*
X69907019Y-113396780D02*
X70002257Y-113396780D01*
X70097495Y-113444400D01*
X70145114Y-113492019D01*
X70192733Y-113587257D01*
X70240352Y-113777733D01*
X70240352Y-114015828D01*
X70192733Y-114206304D01*
X70145114Y-114301542D01*
X70097495Y-114349161D01*
X70002257Y-114396780D01*
X69907019Y-114396780D01*
X69811780Y-114349161D01*
X69764161Y-114301542D01*
X69716542Y-114206304D01*
X69668923Y-114015828D01*
X69668923Y-113777733D01*
X69716542Y-113587257D01*
X69764161Y-113492019D01*
X69811780Y-113444400D01*
X69907019Y-113396780D01*
X66347200Y-59011200D02*
X136347200Y-59011200D01*
X136347200Y-59011200D02*
X136347200Y-115011200D01*
X136347200Y-115011200D02*
X66347200Y-115011200D01*
X66347200Y-115011200D02*
X66347200Y-59011200D01*
D11*
X131022442Y-94551342D02*
X131093871Y-94337057D01*
X131093871Y-93979914D01*
X131022442Y-93837057D01*
X130951014Y-93765628D01*
X130808157Y-93694200D01*
X130665300Y-93694200D01*
X130522442Y-93765628D01*
X130451014Y-93837057D01*
X130379585Y-93979914D01*
X130308157Y-94265628D01*
X130236728Y-94408485D01*
X130165300Y-94479914D01*
X130022442Y-94551342D01*
X129879585Y-94551342D01*
X129736728Y-94479914D01*
X129665300Y-94408485D01*
X129593871Y-94265628D01*
X129593871Y-93908485D01*
X129665300Y-93694200D01*
X131093871Y-93051342D02*
X129593871Y-93051342D01*
X131093871Y-92408485D02*
X130308157Y-92408485D01*
X130165300Y-92479914D01*
X130093871Y-92622771D01*
X130093871Y-92837057D01*
X130165300Y-92979914D01*
X130236728Y-93051342D01*
X130093871Y-91051342D02*
X131093871Y-91051342D01*
X130093871Y-91694200D02*
X130879585Y-91694200D01*
X131022442Y-91622771D01*
X131093871Y-91479914D01*
X131093871Y-91265628D01*
X131022442Y-91122771D01*
X130951014Y-91051342D01*
X130093871Y-90337057D02*
X131093871Y-90337057D01*
X130236728Y-90337057D02*
X130165300Y-90265628D01*
X130093871Y-90122771D01*
X130093871Y-89908485D01*
X130165300Y-89765628D01*
X130308157Y-89694200D01*
X131093871Y-89694200D01*
X130093871Y-89194200D02*
X130093871Y-88622771D01*
X129593871Y-88979914D02*
X130879585Y-88979914D01*
X131022442Y-88908485D01*
X131093871Y-88765628D01*
X131093871Y-88622771D01*
X131093871Y-86979914D02*
X129593871Y-86979914D01*
X130665300Y-86479914D01*
X129593871Y-85979914D01*
X131093871Y-85979914D01*
X131093871Y-85051342D02*
X131022442Y-85194200D01*
X130951014Y-85265628D01*
X130808157Y-85337057D01*
X130379585Y-85337057D01*
X130236728Y-85265628D01*
X130165300Y-85194200D01*
X130093871Y-85051342D01*
X130093871Y-84837057D01*
X130165300Y-84694200D01*
X130236728Y-84622771D01*
X130379585Y-84551342D01*
X130808157Y-84551342D01*
X130951014Y-84622771D01*
X131022442Y-84694200D01*
X131093871Y-84837057D01*
X131093871Y-85051342D01*
X130093871Y-83908485D02*
X131093871Y-83908485D01*
X130236728Y-83908485D02*
X130165300Y-83837057D01*
X130093871Y-83694200D01*
X130093871Y-83479914D01*
X130165300Y-83337057D01*
X130308157Y-83265628D01*
X131093871Y-83265628D01*
X131093871Y-82551342D02*
X130093871Y-82551342D01*
X129593871Y-82551342D02*
X129665300Y-82622771D01*
X129736728Y-82551342D01*
X129665300Y-82479914D01*
X129593871Y-82551342D01*
X129736728Y-82551342D01*
X130093871Y-82051342D02*
X130093871Y-81479914D01*
X129593871Y-81837057D02*
X130879585Y-81837057D01*
X131022442Y-81765628D01*
X131093871Y-81622771D01*
X131093871Y-81479914D01*
X131093871Y-80765628D02*
X131022442Y-80908485D01*
X130951014Y-80979914D01*
X130808157Y-81051342D01*
X130379585Y-81051342D01*
X130236728Y-80979914D01*
X130165300Y-80908485D01*
X130093871Y-80765628D01*
X130093871Y-80551342D01*
X130165300Y-80408485D01*
X130236728Y-80337057D01*
X130379585Y-80265628D01*
X130808157Y-80265628D01*
X130951014Y-80337057D01*
X131022442Y-80408485D01*
X131093871Y-80551342D01*
X131093871Y-80765628D01*
X131093871Y-79622771D02*
X130093871Y-79622771D01*
X130379585Y-79622771D02*
X130236728Y-79551342D01*
X130165300Y-79479914D01*
X130093871Y-79337057D01*
X130093871Y-79194200D01*
X132508871Y-96515628D02*
X133508871Y-96515628D01*
X131937442Y-96872771D02*
X133008871Y-97229914D01*
X133008871Y-96301342D01*
X132008871Y-95444200D02*
X132008871Y-95301342D01*
X132080300Y-95158485D01*
X132151728Y-95087057D01*
X132294585Y-95015628D01*
X132580300Y-94944200D01*
X132937442Y-94944200D01*
X133223157Y-95015628D01*
X133366014Y-95087057D01*
X133437442Y-95158485D01*
X133508871Y-95301342D01*
X133508871Y-95444200D01*
X133437442Y-95587057D01*
X133366014Y-95658485D01*
X133223157Y-95729914D01*
X132937442Y-95801342D01*
X132580300Y-95801342D01*
X132294585Y-95729914D01*
X132151728Y-95658485D01*
X132080300Y-95587057D01*
X132008871Y-95444200D01*
X132937442Y-94301342D02*
X132937442Y-93158485D01*
X132008871Y-91801342D02*
X132008871Y-92087057D01*
X132080300Y-92229914D01*
X132151728Y-92301342D01*
X132366014Y-92444200D01*
X132651728Y-92515628D01*
X133223157Y-92515628D01*
X133366014Y-92444200D01*
X133437442Y-92372771D01*
X133508871Y-92229914D01*
X133508871Y-91944200D01*
X133437442Y-91801342D01*
X133366014Y-91729914D01*
X133223157Y-91658485D01*
X132866014Y-91658485D01*
X132723157Y-91729914D01*
X132651728Y-91801342D01*
X132580300Y-91944200D01*
X132580300Y-92229914D01*
X132651728Y-92372771D01*
X132723157Y-92444200D01*
X132866014Y-92515628D01*
X132008871Y-90729914D02*
X132008871Y-90587057D01*
X132080300Y-90444200D01*
X132151728Y-90372771D01*
X132294585Y-90301342D01*
X132580300Y-90229914D01*
X132937442Y-90229914D01*
X133223157Y-90301342D01*
X133366014Y-90372771D01*
X133437442Y-90444200D01*
X133508871Y-90587057D01*
X133508871Y-90729914D01*
X133437442Y-90872771D01*
X133366014Y-90944200D01*
X133223157Y-91015628D01*
X132937442Y-91087057D01*
X132580300Y-91087057D01*
X132294585Y-91015628D01*
X132151728Y-90944200D01*
X132080300Y-90872771D01*
X132008871Y-90729914D01*
X132508871Y-89729914D02*
X133508871Y-89372771D01*
X132508871Y-89015628D01*
X132937442Y-87301342D02*
X132937442Y-86158485D01*
X133508871Y-86729914D02*
X132366014Y-86729914D01*
X131937442Y-84372771D02*
X133866014Y-85658485D01*
X132937442Y-83872771D02*
X132937442Y-82729914D01*
X132651728Y-81801342D02*
X132580300Y-81944200D01*
X132508871Y-82015628D01*
X132366014Y-82087057D01*
X132294585Y-82087057D01*
X132151728Y-82015628D01*
X132080300Y-81944200D01*
X132008871Y-81801342D01*
X132008871Y-81515628D01*
X132080300Y-81372771D01*
X132151728Y-81301342D01*
X132294585Y-81229914D01*
X132366014Y-81229914D01*
X132508871Y-81301342D01*
X132580300Y-81372771D01*
X132651728Y-81515628D01*
X132651728Y-81801342D01*
X132723157Y-81944200D01*
X132794585Y-82015628D01*
X132937442Y-82087057D01*
X133223157Y-82087057D01*
X133366014Y-82015628D01*
X133437442Y-81944200D01*
X133508871Y-81801342D01*
X133508871Y-81515628D01*
X133437442Y-81372771D01*
X133366014Y-81301342D01*
X133223157Y-81229914D01*
X132937442Y-81229914D01*
X132794585Y-81301342D01*
X132723157Y-81372771D01*
X132651728Y-81515628D01*
X132008871Y-80301342D02*
X132008871Y-80158485D01*
X132080300Y-80015628D01*
X132151728Y-79944200D01*
X132294585Y-79872771D01*
X132580300Y-79801342D01*
X132937442Y-79801342D01*
X133223157Y-79872771D01*
X133366014Y-79944200D01*
X133437442Y-80015628D01*
X133508871Y-80158485D01*
X133508871Y-80301342D01*
X133437442Y-80444200D01*
X133366014Y-80515628D01*
X133223157Y-80587057D01*
X132937442Y-80658485D01*
X132580300Y-80658485D01*
X132294585Y-80587057D01*
X132151728Y-80515628D01*
X132080300Y-80444200D01*
X132008871Y-80301342D01*
X133508871Y-79158485D02*
X132508871Y-79158485D01*
X132651728Y-79158485D02*
X132580300Y-79087057D01*
X132508871Y-78944200D01*
X132508871Y-78729914D01*
X132580300Y-78587057D01*
X132723157Y-78515628D01*
X133508871Y-78515628D01*
X132723157Y-78515628D02*
X132580300Y-78444200D01*
X132508871Y-78301342D01*
X132508871Y-78087057D01*
X132580300Y-77944200D01*
X132723157Y-77872771D01*
X133508871Y-77872771D01*
X132508871Y-77301342D02*
X133508871Y-76944200D01*
X132508871Y-76587057D01*
X124318695Y-113340342D02*
X125461552Y-113340342D01*
X124890123Y-113911771D02*
X124890123Y-112768914D01*
X127818695Y-113126057D02*
X128032980Y-113197485D01*
X128104409Y-113268914D01*
X128175838Y-113411771D01*
X128175838Y-113626057D01*
X128104409Y-113768914D01*
X128032980Y-113840342D01*
X127890123Y-113911771D01*
X127318695Y-113911771D01*
X127318695Y-112411771D01*
X127818695Y-112411771D01*
X127961552Y-112483200D01*
X128032980Y-112554628D01*
X128104409Y-112697485D01*
X128104409Y-112840342D01*
X128032980Y-112983200D01*
X127961552Y-113054628D01*
X127818695Y-113126057D01*
X127318695Y-113126057D01*
X129104409Y-112411771D02*
X129247266Y-112411771D01*
X129390123Y-112483200D01*
X129461552Y-112554628D01*
X129532980Y-112697485D01*
X129604409Y-112983200D01*
X129604409Y-113340342D01*
X129532980Y-113626057D01*
X129461552Y-113768914D01*
X129390123Y-113840342D01*
X129247266Y-113911771D01*
X129104409Y-113911771D01*
X128961552Y-113840342D01*
X128890123Y-113768914D01*
X128818695Y-113626057D01*
X128747266Y-113340342D01*
X128747266Y-112983200D01*
X128818695Y-112697485D01*
X128890123Y-112554628D01*
X128961552Y-112483200D01*
X129104409Y-112411771D01*
X131390123Y-113340342D02*
X132532980Y-113340342D01*
X114085933Y-113340342D02*
X115228790Y-113340342D01*
X114657362Y-113911771D02*
X114657362Y-112768914D01*
X117014504Y-113840342D02*
X117228790Y-113911771D01*
X117585933Y-113911771D01*
X117728790Y-113840342D01*
X117800219Y-113768914D01*
X117871647Y-113626057D01*
X117871647Y-113483200D01*
X117800219Y-113340342D01*
X117728790Y-113268914D01*
X117585933Y-113197485D01*
X117300219Y-113126057D01*
X117157362Y-113054628D01*
X117085933Y-112983200D01*
X117014504Y-112840342D01*
X117014504Y-112697485D01*
X117085933Y-112554628D01*
X117157362Y-112483200D01*
X117300219Y-112411771D01*
X117657362Y-112411771D01*
X117871647Y-112483200D01*
X118800219Y-112411771D02*
X118943076Y-112411771D01*
X119085933Y-112483200D01*
X119157362Y-112554628D01*
X119228790Y-112697485D01*
X119300219Y-112983200D01*
X119300219Y-113340342D01*
X119228790Y-113626057D01*
X119157362Y-113768914D01*
X119085933Y-113840342D01*
X118943076Y-113911771D01*
X118800219Y-113911771D01*
X118657362Y-113840342D01*
X118585933Y-113768914D01*
X118514504Y-113626057D01*
X118443076Y-113340342D01*
X118443076Y-112983200D01*
X118514504Y-112697485D01*
X118585933Y-112554628D01*
X118657362Y-112483200D01*
X118800219Y-112411771D01*
X121085933Y-113340342D02*
X122228790Y-113340342D01*
X103853171Y-113340342D02*
X104996028Y-113340342D01*
X104424600Y-113911771D02*
X104424600Y-112768914D01*
X106781742Y-113840342D02*
X106996028Y-113911771D01*
X107353171Y-113911771D01*
X107496028Y-113840342D01*
X107567457Y-113768914D01*
X107638885Y-113626057D01*
X107638885Y-113483200D01*
X107567457Y-113340342D01*
X107496028Y-113268914D01*
X107353171Y-113197485D01*
X107067457Y-113126057D01*
X106924600Y-113054628D01*
X106853171Y-112983200D01*
X106781742Y-112840342D01*
X106781742Y-112697485D01*
X106853171Y-112554628D01*
X106924600Y-112483200D01*
X107067457Y-112411771D01*
X107424600Y-112411771D01*
X107638885Y-112483200D01*
X109067457Y-113911771D02*
X108210314Y-113911771D01*
X108638885Y-113911771D02*
X108638885Y-112411771D01*
X108496028Y-112626057D01*
X108353171Y-112768914D01*
X108210314Y-112840342D01*
X110853171Y-113340342D02*
X111996028Y-113340342D01*
X93620409Y-113340342D02*
X94763266Y-113340342D01*
X94191838Y-113911771D02*
X94191838Y-112768914D01*
X96548980Y-113840342D02*
X96763266Y-113911771D01*
X97120409Y-113911771D01*
X97263266Y-113840342D01*
X97334695Y-113768914D01*
X97406123Y-113626057D01*
X97406123Y-113483200D01*
X97334695Y-113340342D01*
X97263266Y-113268914D01*
X97120409Y-113197485D01*
X96834695Y-113126057D01*
X96691838Y-113054628D01*
X96620409Y-112983200D01*
X96548980Y-112840342D01*
X96548980Y-112697485D01*
X96620409Y-112554628D01*
X96691838Y-112483200D01*
X96834695Y-112411771D01*
X97191838Y-112411771D01*
X97406123Y-112483200D01*
X97977552Y-112554628D02*
X98048980Y-112483200D01*
X98191838Y-112411771D01*
X98548980Y-112411771D01*
X98691838Y-112483200D01*
X98763266Y-112554628D01*
X98834695Y-112697485D01*
X98834695Y-112840342D01*
X98763266Y-113054628D01*
X97906123Y-113911771D01*
X98834695Y-113911771D01*
X100620409Y-113340342D02*
X101763266Y-113340342D01*
X126608182Y-60635342D02*
X127751039Y-60635342D01*
X129536753Y-61135342D02*
X129751039Y-61206771D01*
X130108182Y-61206771D01*
X130251039Y-61135342D01*
X130322468Y-61063914D01*
X130393896Y-60921057D01*
X130393896Y-60778200D01*
X130322468Y-60635342D01*
X130251039Y-60563914D01*
X130108182Y-60492485D01*
X129822468Y-60421057D01*
X129679611Y-60349628D01*
X129608182Y-60278200D01*
X129536753Y-60135342D01*
X129536753Y-59992485D01*
X129608182Y-59849628D01*
X129679611Y-59778200D01*
X129822468Y-59706771D01*
X130179611Y-59706771D01*
X130393896Y-59778200D01*
X130893896Y-59706771D02*
X131822468Y-59706771D01*
X131322468Y-60278200D01*
X131536753Y-60278200D01*
X131679611Y-60349628D01*
X131751039Y-60421057D01*
X131822468Y-60563914D01*
X131822468Y-60921057D01*
X131751039Y-61063914D01*
X131679611Y-61135342D01*
X131536753Y-61206771D01*
X131108182Y-61206771D01*
X130965325Y-61135342D01*
X130893896Y-61063914D01*
X133608182Y-60635342D02*
X134751039Y-60635342D01*
X134179611Y-61206771D02*
X134179611Y-60063914D01*
X116525511Y-60635342D02*
X117668368Y-60635342D01*
X119454082Y-61135342D02*
X119668368Y-61206771D01*
X120025511Y-61206771D01*
X120168368Y-61135342D01*
X120239797Y-61063914D01*
X120311225Y-60921057D01*
X120311225Y-60778200D01*
X120239797Y-60635342D01*
X120168368Y-60563914D01*
X120025511Y-60492485D01*
X119739797Y-60421057D01*
X119596940Y-60349628D01*
X119525511Y-60278200D01*
X119454082Y-60135342D01*
X119454082Y-59992485D01*
X119525511Y-59849628D01*
X119596940Y-59778200D01*
X119739797Y-59706771D01*
X120096940Y-59706771D01*
X120311225Y-59778200D01*
X121596940Y-60206771D02*
X121596940Y-61206771D01*
X121239797Y-59635342D02*
X120882654Y-60706771D01*
X121811225Y-60706771D01*
X123525511Y-60635342D02*
X124668368Y-60635342D01*
X124096940Y-61206771D02*
X124096940Y-60063914D01*
X106442841Y-60635342D02*
X107585698Y-60635342D01*
X109371412Y-61135342D02*
X109585698Y-61206771D01*
X109942841Y-61206771D01*
X110085698Y-61135342D01*
X110157127Y-61063914D01*
X110228555Y-60921057D01*
X110228555Y-60778200D01*
X110157127Y-60635342D01*
X110085698Y-60563914D01*
X109942841Y-60492485D01*
X109657127Y-60421057D01*
X109514270Y-60349628D01*
X109442841Y-60278200D01*
X109371412Y-60135342D01*
X109371412Y-59992485D01*
X109442841Y-59849628D01*
X109514270Y-59778200D01*
X109657127Y-59706771D01*
X110014270Y-59706771D01*
X110228555Y-59778200D01*
X111585698Y-59706771D02*
X110871412Y-59706771D01*
X110799984Y-60421057D01*
X110871412Y-60349628D01*
X111014270Y-60278200D01*
X111371412Y-60278200D01*
X111514270Y-60349628D01*
X111585698Y-60421057D01*
X111657127Y-60563914D01*
X111657127Y-60921057D01*
X111585698Y-61063914D01*
X111514270Y-61135342D01*
X111371412Y-61206771D01*
X111014270Y-61206771D01*
X110871412Y-61135342D01*
X110799984Y-61063914D01*
X113442841Y-60635342D02*
X114585698Y-60635342D01*
X114014270Y-61206771D02*
X114014270Y-60063914D01*
X96360171Y-60635342D02*
X97503028Y-60635342D01*
X99288742Y-61135342D02*
X99503028Y-61206771D01*
X99860171Y-61206771D01*
X100003028Y-61135342D01*
X100074457Y-61063914D01*
X100145885Y-60921057D01*
X100145885Y-60778200D01*
X100074457Y-60635342D01*
X100003028Y-60563914D01*
X99860171Y-60492485D01*
X99574457Y-60421057D01*
X99431600Y-60349628D01*
X99360171Y-60278200D01*
X99288742Y-60135342D01*
X99288742Y-59992485D01*
X99360171Y-59849628D01*
X99431600Y-59778200D01*
X99574457Y-59706771D01*
X99931600Y-59706771D01*
X100145885Y-59778200D01*
X101431600Y-59706771D02*
X101145885Y-59706771D01*
X101003028Y-59778200D01*
X100931600Y-59849628D01*
X100788742Y-60063914D01*
X100717314Y-60349628D01*
X100717314Y-60921057D01*
X100788742Y-61063914D01*
X100860171Y-61135342D01*
X101003028Y-61206771D01*
X101288742Y-61206771D01*
X101431600Y-61135342D01*
X101503028Y-61063914D01*
X101574457Y-60921057D01*
X101574457Y-60563914D01*
X101503028Y-60421057D01*
X101431600Y-60349628D01*
X101288742Y-60278200D01*
X101003028Y-60278200D01*
X100860171Y-60349628D01*
X100788742Y-60421057D01*
X100717314Y-60563914D01*
X103360171Y-60635342D02*
X104503028Y-60635342D01*
X103931600Y-61206771D02*
X103931600Y-60063914D01*
D10*
%TO.C,TTGO1*%
X87793580Y-96629266D02*
X87793580Y-96057838D01*
X88793580Y-96343552D02*
X87793580Y-96343552D01*
X87793580Y-95867361D02*
X87793580Y-95295933D01*
X88793580Y-95581647D02*
X87793580Y-95581647D01*
X87841200Y-94438790D02*
X87793580Y-94534028D01*
X87793580Y-94676885D01*
X87841200Y-94819742D01*
X87936438Y-94914980D01*
X88031676Y-94962600D01*
X88222152Y-95010219D01*
X88365009Y-95010219D01*
X88555485Y-94962600D01*
X88650723Y-94914980D01*
X88745961Y-94819742D01*
X88793580Y-94676885D01*
X88793580Y-94581647D01*
X88745961Y-94438790D01*
X88698342Y-94391171D01*
X88365009Y-94391171D01*
X88365009Y-94581647D01*
X87793580Y-93772123D02*
X87793580Y-93581647D01*
X87841200Y-93486409D01*
X87936438Y-93391171D01*
X88126914Y-93343552D01*
X88460247Y-93343552D01*
X88650723Y-93391171D01*
X88745961Y-93486409D01*
X88793580Y-93581647D01*
X88793580Y-93772123D01*
X88745961Y-93867361D01*
X88650723Y-93962600D01*
X88460247Y-94010219D01*
X88126914Y-94010219D01*
X87936438Y-93962600D01*
X87841200Y-93867361D01*
X87793580Y-93772123D01*
X88793580Y-92391171D02*
X88793580Y-92962600D01*
X88793580Y-92676885D02*
X87793580Y-92676885D01*
X87936438Y-92772123D01*
X88031676Y-92867361D01*
X88079295Y-92962600D01*
D12*
X78366471Y-111196885D02*
X78366471Y-111804028D01*
X78402185Y-111875457D01*
X78437900Y-111911171D01*
X78509328Y-111946885D01*
X78652185Y-111946885D01*
X78723614Y-111911171D01*
X78759328Y-111875457D01*
X78795042Y-111804028D01*
X78795042Y-111196885D01*
X79116471Y-111911171D02*
X79223614Y-111946885D01*
X79402185Y-111946885D01*
X79473614Y-111911171D01*
X79509328Y-111875457D01*
X79545042Y-111804028D01*
X79545042Y-111732600D01*
X79509328Y-111661171D01*
X79473614Y-111625457D01*
X79402185Y-111589742D01*
X79259328Y-111554028D01*
X79187900Y-111518314D01*
X79152185Y-111482600D01*
X79116471Y-111411171D01*
X79116471Y-111339742D01*
X79152185Y-111268314D01*
X79187900Y-111232600D01*
X79259328Y-111196885D01*
X79437900Y-111196885D01*
X79545042Y-111232600D01*
X80116471Y-111554028D02*
X80223614Y-111589742D01*
X80259328Y-111625457D01*
X80295042Y-111696885D01*
X80295042Y-111804028D01*
X80259328Y-111875457D01*
X80223614Y-111911171D01*
X80152185Y-111946885D01*
X79866471Y-111946885D01*
X79866471Y-111196885D01*
X80116471Y-111196885D01*
X80187900Y-111232600D01*
X80223614Y-111268314D01*
X80259328Y-111339742D01*
X80259328Y-111411171D01*
X80223614Y-111482600D01*
X80187900Y-111518314D01*
X80116471Y-111554028D01*
X79866471Y-111554028D01*
X77532900Y-63444742D02*
X77532900Y-63087600D01*
X77747185Y-63516171D02*
X76997185Y-63266171D01*
X77747185Y-63016171D01*
X77247185Y-62766171D02*
X77747185Y-62766171D01*
X77318614Y-62766171D02*
X77282900Y-62730457D01*
X77247185Y-62659028D01*
X77247185Y-62551885D01*
X77282900Y-62480457D01*
X77354328Y-62444742D01*
X77747185Y-62444742D01*
X77247185Y-62194742D02*
X77247185Y-61909028D01*
X76997185Y-62087600D02*
X77640042Y-62087600D01*
X77711471Y-62051885D01*
X77747185Y-61980457D01*
X77747185Y-61909028D01*
D10*
%TO.C,J11*%
X129244866Y-67864133D02*
X129244866Y-68864133D01*
X129178200Y-69064133D01*
X129044866Y-69197466D01*
X128844866Y-69264133D01*
X128711533Y-69264133D01*
X130644866Y-69264133D02*
X129844866Y-69264133D01*
X130244866Y-69264133D02*
X130244866Y-67864133D01*
X130111533Y-68064133D01*
X129978200Y-68197466D01*
X129844866Y-68264133D01*
X131978200Y-69264133D02*
X131178200Y-69264133D01*
X131578200Y-69264133D02*
X131578200Y-67864133D01*
X131444866Y-68064133D01*
X131311533Y-68197466D01*
X131178200Y-68264133D01*
%TO.C,J1*%
X127879533Y-104313133D02*
X127879533Y-105313133D01*
X127812866Y-105513133D01*
X127679533Y-105646466D01*
X127479533Y-105713133D01*
X127346200Y-105713133D01*
X129279533Y-105713133D02*
X128479533Y-105713133D01*
X128879533Y-105713133D02*
X128879533Y-104313133D01*
X128746200Y-104513133D01*
X128612866Y-104646466D01*
X128479533Y-104713133D01*
%TO.C,PS1*%
X109834514Y-87320380D02*
X109834514Y-86320380D01*
X110215466Y-86320380D01*
X110310704Y-86368000D01*
X110358323Y-86415619D01*
X110405942Y-86510857D01*
X110405942Y-86653714D01*
X110358323Y-86748952D01*
X110310704Y-86796571D01*
X110215466Y-86844190D01*
X109834514Y-86844190D01*
X110786895Y-87272761D02*
X110929752Y-87320380D01*
X111167847Y-87320380D01*
X111263085Y-87272761D01*
X111310704Y-87225142D01*
X111358323Y-87129904D01*
X111358323Y-87034666D01*
X111310704Y-86939428D01*
X111263085Y-86891809D01*
X111167847Y-86844190D01*
X110977371Y-86796571D01*
X110882133Y-86748952D01*
X110834514Y-86701333D01*
X110786895Y-86606095D01*
X110786895Y-86510857D01*
X110834514Y-86415619D01*
X110882133Y-86368000D01*
X110977371Y-86320380D01*
X111215466Y-86320380D01*
X111358323Y-86368000D01*
X112310704Y-87320380D02*
X111739276Y-87320380D01*
X112024990Y-87320380D02*
X112024990Y-86320380D01*
X111929752Y-86463238D01*
X111834514Y-86558476D01*
X111739276Y-86606095D01*
%TO.C,TTGO1*%
X72327900Y-106527600D02*
X72327900Y-111607600D01*
X69152900Y-63982600D02*
X89472900Y-63982600D01*
X86297900Y-111607600D02*
X86297900Y-106527600D01*
X89472900Y-97637600D02*
X69152900Y-97637600D01*
X86297900Y-106527600D02*
X89472900Y-106527600D01*
X69152900Y-106527600D02*
X72327900Y-106527600D01*
X72327900Y-111607600D02*
X69152900Y-111607600D01*
X83757900Y-106527600D02*
X83757900Y-112877600D01*
X66612900Y-111607600D02*
X66612900Y-110337600D01*
X92012900Y-60807600D02*
X92012900Y-65887600D01*
X66612900Y-64617600D02*
X66612900Y-110337600D01*
X69152900Y-111607600D02*
X69152900Y-106527600D01*
X89472900Y-111607600D02*
X86297900Y-111607600D01*
X83757900Y-112877600D02*
X83757900Y-109067600D01*
X67882900Y-112877600D02*
X66612900Y-111607600D01*
X69152900Y-97637600D02*
X69152900Y-63982600D01*
X66612900Y-60807600D02*
X92012900Y-60807600D01*
X89472900Y-106527600D02*
X89472900Y-111607600D01*
X74867900Y-109067600D02*
X74867900Y-112877600D01*
X89472900Y-63982600D02*
X89472900Y-97637600D01*
X90742900Y-112877600D02*
X67882900Y-112877600D01*
X92012900Y-65887600D02*
X92012900Y-110337600D01*
X74867900Y-109067600D02*
X74867900Y-106527600D01*
X66612900Y-60807600D02*
X66612900Y-64617600D01*
X92012900Y-111607600D02*
X90742900Y-112877600D01*
X92012900Y-110337600D02*
X92012900Y-111607600D01*
X74867900Y-106527600D02*
X83757900Y-106527600D01*
X89084823Y-108813600D02*
G75*
G03*
X89084823Y-108813600I-1135923J0D01*
G01*
X71812823Y-108813600D02*
G75*
G03*
X71812823Y-108813600I-1135923J0D01*
G01*
X80210926Y-62077600D02*
G75*
G03*
X80210926Y-62077600I-898026J0D01*
G01*
D13*
%TO.C,J11*%
X135819200Y-61879900D02*
X135819200Y-75929900D01*
X92679200Y-75929900D02*
X92679200Y-61879900D01*
X135819200Y-75929900D02*
X92679200Y-75929900D01*
X92679200Y-61879900D02*
X135819200Y-61879900D01*
D14*
X133319200Y-76929900D02*
G75*
G03*
X133319200Y-76929900I-100000J0D01*
G01*
D13*
%TO.C,J1*%
X92628400Y-111957700D02*
X92628400Y-97907700D01*
X135768400Y-97907700D02*
X135768400Y-111957700D01*
X92628400Y-97907700D02*
X135768400Y-97907700D01*
X135768400Y-111957700D02*
X92628400Y-111957700D01*
D14*
X95328400Y-96907700D02*
G75*
G03*
X95328400Y-96907700I-100000J0D01*
G01*
D15*
%TO.C,PS1*%
X127876000Y-76808000D02*
X93676000Y-76808000D01*
X127876000Y-97008000D02*
X127876000Y-76808000D01*
X128266000Y-90408000D02*
X128266000Y-88398000D01*
X93676000Y-97008000D02*
X127876000Y-97008000D01*
X93676000Y-76808000D02*
X93676000Y-97008000D01*
%TD*%
M02*
